<?xml version="1.0" encoding="UTF-8"?>
<svg id="_圖層_2" data-name="圖層 2" xmlns="http://www.w3.org/2000/svg" viewBox="0 0 220.26 71.98">
  <g id="_圖層_2-2" data-name="圖層 2">
    <g>
      <g>
        <g>
          <polygon points="151.54 30.6 66.91 30.6 107.8 19.65 151.54 30.6 151.54 30.6" style="fill: #4e4b4a; fill-rule: evenodd;"/>
          <polygon points="112.55 26.67 110.18 24.83 107.42 26.01 108.73 29.17 112.42 28.91 112.55 26.67 112.55 26.67" style="fill: #4e4b4a; fill-rule: evenodd;"/>
          <polygon points="73.01 25.34 70.33 26.68 70.21 29.69 73.63 29.86 74.98 26.42 73.01 25.34 73.01 25.34" style="fill: #4e4b4a; fill-rule: evenodd;"/>
          <polygon points="80.19 25.77 74.36 25.76 71.53 28.45 77.31 30.17 82.66 27.65 80.19 25.77 80.19 25.77" style="fill: #4e4b4a; fill-rule: evenodd;"/>
          <polygon points="82.57 25.34 79.88 26.68 79.75 29.69 83.18 29.86 84.53 26.42 82.57 25.34 82.57 25.34" style="fill: #4e4b4a; fill-rule: evenodd;"/>
          <polygon points="89.1 28.33 87.64 25.49 83.14 24.95 82.14 28.31 87.04 30.13 89.1 28.33 89.1 28.33" style="fill: #4e4b4a; fill-rule: evenodd;"/>
          <polygon points="91.85 25.34 88.8 26.68 88.66 29.69 92.54 29.86 94.07 26.42 91.85 25.34 91.85 25.34" style="fill: #4e4b4a; fill-rule: evenodd;"/>
          <polygon points="98.28 25.65 94.9 24.41 92.18 26.78 94.85 29.91 98.96 28.25 98.28 25.65 98.28 25.65" style="fill: #4e4b4a; fill-rule: evenodd;"/>
          <polygon points="95.85 25.63 93.69 28.24 97.98 30.32 103.55 28.25 100.52 25.1 95.85 25.63 95.85 25.63" style="fill: #4e4b4a; fill-rule: evenodd;"/>
          <polygon points="105.82 25.1 103.41 27.1 103.99 30.17 107.51 29.54 108.07 25.74 105.82 25.1 105.82 25.1" style="fill: #4e4b4a; fill-rule: evenodd;"/>
          <polygon points="107.94 23.98 105.57 22.14 102.81 23.33 104.12 26.49 107.81 26.23 107.94 23.98 107.94 23.98" style="fill: #4e4b4a; fill-rule: evenodd;"/>
          <polygon points="84.48 25.65 83.03 22.8 78.53 22.26 77.53 25.63 82.43 27.45 84.48 25.65 84.48 25.65" style="fill: #4e4b4a; fill-rule: evenodd;"/>
          <polygon points="87.23 22.66 84.18 24 84.05 27 87.93 27.18 89.46 23.74 87.23 22.66 87.23 22.66" style="fill: #4e4b4a; fill-rule: evenodd;"/>
          <polygon points="93.68 22.96 90.29 21.73 87.57 24.09 90.23 27.22 94.34 25.57 93.68 22.96 93.68 22.96" style="fill: #4e4b4a; fill-rule: evenodd;"/>
          <polygon points="95.36 22.99 94.35 25.82 96.35 28.08 98.94 25.83 97.53 22.41 95.36 22.99 95.36 22.99" style="fill: #4e4b4a; fill-rule: evenodd;"/>
          <polygon points="101.21 22.41 98.8 24.41 99.38 27.49 102.89 26.86 103.46 23.05 101.21 22.41 101.21 22.41" style="fill: #4e4b4a; fill-rule: evenodd;"/>
          <polygon points="82.84 19.22 79.79 20.56 79.65 23.57 83.53 23.74 85.06 20.3 82.84 19.22 82.84 19.22" style="fill: #a09996; fill-rule: evenodd;"/>
          <polygon points="89.27 19.53 85.89 18.29 83.17 20.66 85.83 23.79 89.95 22.13 89.27 19.53 89.27 19.53" style="fill: #4e4b4a; fill-rule: evenodd;"/>
          <polygon points="90.96 19.56 89.96 22.39 91.95 24.64 94.54 22.39 93.13 18.98 90.96 19.56 90.96 19.56" style="fill: #4e4b4a; fill-rule: evenodd;"/>
          <polygon points="76.38 22.29 73.98 24.29 74.56 27.37 78.07 26.74 78.63 22.93 76.38 22.29 76.38 22.29" style="fill: #88817c; fill-rule: evenodd;"/>
          <polygon points="94.35 19.87 93.35 22.7 95.34 24.95 97.93 22.7 96.52 19.29 94.35 19.87 94.35 19.87" style="fill: #4e4b4a; fill-rule: evenodd;"/>
          <polygon points="100.2 19.29 97.79 21.28 98.37 24.36 101.88 23.74 102.45 19.93 100.2 19.29 100.2 19.29" style="fill: #a09996; fill-rule: evenodd;"/>
          <polygon points="90.44 16.13 87.39 17.48 87.26 20.48 91.14 20.66 92.67 17.22 90.44 16.13 90.44 16.13" style="fill: #4e4b4a; fill-rule: evenodd;"/>
          <polygon points="100.74 24.7 98.37 22.85 95.61 24.04 96.93 27.2 100.61 26.94 100.74 24.7 100.74 24.7" style="fill: #4e4b4a; fill-rule: evenodd;"/>
          <polygon points="88.16 23.71 87.16 26.54 89.15 28.79 91.74 26.54 90.33 23.13 88.16 23.71 88.16 23.71" style="fill: #4e4b4a; fill-rule: evenodd;"/>
          <polygon points="83.77 20.27 82.76 23.1 84.76 25.35 87.35 23.11 85.94 19.69 83.77 20.27 83.77 20.27" style="fill: #4e4b4a; fill-rule: evenodd;"/>
          <polygon points="87.16 20.58 86.15 23.41 88.14 25.66 90.73 23.42 89.32 20 87.16 20.58 87.16 20.58" style="fill: #4e4b4a; fill-rule: evenodd;"/>
          <polygon points="93 20 90.59 22 91.18 25.08 94.69 24.45 95.25 20.64 93 20 93 20" style="fill: #88817c; fill-rule: evenodd;"/>
          <polygon points="109.99 28.19 107.77 25.03 100.91 24.43 99.39 28.16 106.86 30.17 109.99 28.19 109.99 28.19" style="fill: #4e4b4a; fill-rule: evenodd;"/>
          <polygon points="92.4 23.7 91.4 27.28 93.39 30.13 95.98 27.29 94.57 22.96 92.4 23.7 92.4 23.7" style="fill: #4e4b4a; fill-rule: evenodd;"/>
          <polygon points="112.55 25.97 110.18 23.85 107.42 25.22 108.73 28.85 112.42 28.55 112.55 25.97 112.55 25.97" style="fill: #4e4b4a; fill-rule: evenodd;"/>
          <polygon points="69.48 25.99 66.92 27.56 67.13 30.68 70.61 30.63 71.59 26.99 69.48 25.99 69.48 25.99" style="fill: #4e4b4a; fill-rule: evenodd;"/>
          <polygon points="73.01 24.44 70.33 25.99 70.21 29.44 73.63 29.64 74.98 25.69 73.01 24.44 73.01 24.44" style="fill: #4e4b4a; fill-rule: evenodd;"/>
          <polygon points="82.57 24.44 79.88 25.99 79.75 29.44 83.18 29.64 84.53 25.69 82.57 24.44 82.57 24.44" style="fill: #4e4b4a; fill-rule: evenodd;"/>
          <polygon points="89.1 27.89 87.64 24.61 83.14 23.99 82.14 27.86 87.04 29.95 89.1 27.89 89.1 27.89" style="fill: #4e4b4a; fill-rule: evenodd;"/>
          <polygon points="91.85 24.44 88.8 25.99 88.66 29.44 92.54 29.64 94.07 25.69 91.85 24.44 91.85 24.44" style="fill: #4e4b4a; fill-rule: evenodd;"/>
          <polygon points="98.28 24.8 94.9 23.38 92.18 26.1 94.85 29.69 98.96 27.79 98.28 24.8 98.28 24.8" style="fill: #4e4b4a; fill-rule: evenodd;"/>
          <polygon points="95.91 24.33 93.75 27.58 98.04 30.17 103.61 27.59 100.58 23.67 95.91 24.33 95.91 24.33" style="fill: #4e4b4a; fill-rule: evenodd;"/>
          <polygon points="116.5 12.5 114.09 14.79 114.68 18.32 118.19 17.6 118.75 13.23 116.5 12.5 116.5 12.5" style="fill: #4e4b4a; fill-rule: evenodd;"/>
          <polygon points="107.94 22.89 105.57 20.77 102.81 22.13 104.12 25.76 107.81 25.46 107.94 22.89 107.94 22.89" style="fill: #4e4b4a; fill-rule: evenodd;"/>
          <polygon points="84.48 24.8 83.03 21.53 78.53 20.91 77.53 24.77 82.43 26.86 84.48 24.8 84.48 24.8" style="fill: #4e4b4a; fill-rule: evenodd;"/>
          <polygon points="87.23 21.36 84.18 22.9 84.05 26.35 87.93 26.56 89.46 22.61 87.23 21.36 87.23 21.36" style="fill: #4e4b4a; fill-rule: evenodd;"/>
          <polygon points="93.68 21.71 90.29 20.29 87.57 23.02 90.23 26.61 94.34 24.71 93.68 21.71 93.68 21.71" style="fill: #4e4b4a; fill-rule: evenodd;"/>
          <polygon points="95.36 21.75 94.35 25 96.35 27.59 98.94 25.01 97.53 21.08 95.36 21.75 95.36 21.75" style="fill: #4e4b4a; fill-rule: evenodd;"/>
          <polygon points="101.21 21.08 98.8 23.38 99.38 26.91 102.89 26.19 103.46 21.82 101.21 21.08 101.21 21.08" style="fill: #4e4b4a; fill-rule: evenodd;"/>
          <polygon points="82.84 17.41 79.79 18.96 79.65 22.41 83.53 22.61 85.06 18.66 82.84 17.41 82.84 17.41" style="fill: #a09996; fill-rule: evenodd;"/>
          <polygon points="89.27 17.77 85.89 16.35 83.17 19.07 85.83 22.66 89.95 20.76 89.27 17.77 89.27 17.77" style="fill: #4e4b4a; fill-rule: evenodd;"/>
          <polygon points="90.96 17.8 89.96 21.05 91.95 23.64 94.54 21.06 93.13 17.14 90.96 17.8 90.96 17.8" style="fill: #4e4b4a; fill-rule: evenodd;"/>
          <polygon points="76.38 20.95 73.98 23.24 74.56 26.78 78.07 26.06 78.63 21.68 76.38 20.95 76.38 20.95" style="fill: #88817c; fill-rule: evenodd;"/>
          <polygon points="94.35 18.16 93.35 21.41 95.34 24 97.93 21.42 96.52 17.49 94.35 18.16 94.35 18.16" style="fill: #4e4b4a; fill-rule: evenodd;"/>
          <polygon points="90.44 13.87 87.39 15.42 87.26 18.87 91.14 19.07 92.67 15.12 90.44 13.87 90.44 13.87" style="fill: #4e4b4a; fill-rule: evenodd;"/>
          <polygon points="100.74 23.71 98.37 21.59 95.61 22.95 96.93 26.58 100.61 26.28 100.74 23.71 100.74 23.71" style="fill: #4e4b4a; fill-rule: evenodd;"/>
          <polygon points="88.16 22.57 87.16 25.82 89.15 28.41 91.74 25.83 90.33 21.9 88.16 22.57 88.16 22.57" style="fill: #4e4b4a; fill-rule: evenodd;"/>
          <polygon points="83.77 18.62 82.76 21.87 84.76 24.46 87.35 21.88 85.94 17.96 83.77 18.62 83.77 18.62" style="fill: #4e4b4a; fill-rule: evenodd;"/>
          <polygon points="87.16 18.98 86.15 22.23 88.14 24.82 90.73 22.24 89.32 18.31 87.16 18.98 87.16 18.98" style="fill: #4e4b4a; fill-rule: evenodd;"/>
          <polygon points="109.66 26.61 107.08 21.51 99.06 20.54 97.29 26.57 106.01 29.83 109.66 26.61 109.66 26.61" style="fill: #4e4b4a; fill-rule: evenodd;"/>
          <polygon points="92.4 22.56 91.4 26.67 93.39 29.94 95.98 26.68 94.57 21.71 92.4 22.56 92.4 22.56" style="fill: #4e4b4a; fill-rule: evenodd;"/>
          <polygon points="151.94 28.11 149.75 25.8 146.88 26.93 147.9 30.66 151.59 30.66 151.94 28.11 151.94 28.11" style="fill: #4e4b4a; fill-rule: evenodd;"/>
          <polygon points="109.8 25.79 106.8 25.64 105.23 28.59 108.14 30.67 110.99 27.98 109.8 25.79 109.8 25.79" style="fill: #4e4b4a; fill-rule: evenodd;"/>
          <polygon points="112.08 24.09 109.39 25.63 109.27 29.08 112.7 29.29 114.04 25.33 112.08 24.09 112.08 24.09" style="fill: #4e4b4a; fill-rule: evenodd;"/>
          <polygon points="118.04 24.58 113.02 24.58 110.59 28.16 115.56 30.46 120.15 27.1 118.04 24.58 118.04 24.58" style="fill: #4e4b4a; fill-rule: evenodd;"/>
          <polygon points="121.63 24.09 118.94 25.63 118.82 29.08 122.24 29.29 123.59 25.33 121.63 24.09 121.63 24.09" style="fill: #4e4b4a; fill-rule: evenodd;"/>
          <polygon points="128.16 27.53 126.71 24.26 122.2 23.64 121.21 27.5 126.1 29.59 128.16 27.53 128.16 27.53" style="fill: #4e4b4a; fill-rule: evenodd;"/>
          <polygon points="130.91 24.09 127.86 25.63 127.72 29.08 131.6 29.29 133.14 25.33 130.91 24.09 130.91 24.09" style="fill: #4e4b4a; fill-rule: evenodd;"/>
          <polygon points="137.35 24.44 133.97 23.02 131.25 25.74 133.91 29.33 138.02 27.44 137.35 24.44 137.35 24.44" style="fill: #4e4b4a; fill-rule: evenodd;"/>
          <polygon points="134.92 24.48 132.75 27.73 137.04 30.31 142.61 27.74 139.58 23.81 134.92 24.48 134.92 24.48" style="fill: #4e4b4a; fill-rule: evenodd;"/>
          <polygon points="144.88 23.81 142.47 26.1 143.05 29.64 146.57 28.92 147.13 24.54 144.88 23.81 144.88 23.81" style="fill: #4e4b4a; fill-rule: evenodd;"/>
          <polygon points="147 22.54 144.63 20.41 141.87 21.78 143.19 25.41 146.87 25.11 147 22.54 147 22.54" style="fill: #4e4b4a; fill-rule: evenodd;"/>
          <polygon points="125.82 24.14 123.89 20.37 117.91 19.66 116.59 24.1 123.09 26.51 125.82 24.14 125.82 24.14" style="fill: #4e4b4a; fill-rule: evenodd;"/>
          <polygon points="126.3 21 123.25 22.55 123.11 26 126.99 26.2 128.52 22.25 126.3 21 126.3 21" style="fill: #4e4b4a; fill-rule: evenodd;"/>
          <polygon points="132.73 21.36 129.35 19.94 126.63 22.66 129.3 26.25 133.41 24.35 132.73 21.36 132.73 21.36" style="fill: #4e4b4a; fill-rule: evenodd;"/>
          <polygon points="134.42 21.4 133.42 24.64 135.41 27.23 138 24.65 136.59 20.73 134.42 21.4 134.42 21.4" style="fill: #4e4b4a; fill-rule: evenodd;"/>
          <polygon points="140.27 20.73 137.86 23.02 138.44 26.56 141.96 25.84 142.52 21.46 140.27 20.73 140.27 20.73" style="fill: #4e4b4a; fill-rule: evenodd;"/>
          <polygon points="128.34 17.41 124.96 15.99 122.24 18.71 124.9 22.31 129.01 20.4 128.34 17.41 128.34 17.41" style="fill: #4e4b4a; fill-rule: evenodd;"/>
          <polygon points="130.03 17.45 129.02 20.7 131.02 23.29 133.6 20.71 132.19 16.78 130.03 17.45 130.03 17.45" style="fill: #4e4b4a; fill-rule: evenodd;"/>
          <polygon points="109.6 21.26 108.6 24.51 110.59 27.09 113.18 24.51 111.77 20.59 109.6 21.26 109.6 21.26" style="fill: #4e4b4a; fill-rule: evenodd;"/>
          <polygon points="134.13 17.81 132.41 21.05 135.83 23.64 140.27 21.06 137.85 17.14 134.13 17.81 134.13 17.81" style="fill: #4e4b4a; fill-rule: evenodd;"/>
          <polygon points="139.26 17.14 136.85 19.43 137.44 22.97 140.95 22.25 141.51 17.87 139.26 17.14 139.26 17.14" style="fill: #a09996; fill-rule: evenodd;"/>
          <polygon points="129.51 13.52 126.46 15.06 126.32 18.51 130.2 18.71 131.74 14.76 129.51 13.52 129.51 13.52" style="fill: #4e4b4a; fill-rule: evenodd;"/>
          <polygon points="139.81 23.35 137.44 21.24 134.68 22.6 135.99 26.23 139.68 25.93 139.81 23.35 139.81 23.35" style="fill: #4e4b4a; fill-rule: evenodd;"/>
          <polygon points="127.23 22.21 126.22 25.47 128.22 28.05 130.81 25.47 129.4 21.55 127.23 22.21 127.23 22.21" style="fill: #4e4b4a; fill-rule: evenodd;"/>
          <polygon points="122.83 18.27 121.82 21.52 123.82 24.11 126.41 21.53 125 17.6 122.83 18.27 122.83 18.27" style="fill: #4e4b4a; fill-rule: evenodd;"/>
          <polygon points="126.22 18.62 125.21 21.87 127.21 24.46 129.8 21.88 128.39 17.96 126.22 18.62 126.22 18.62" style="fill: #4e4b4a; fill-rule: evenodd;"/>
          <polygon points="150.1 27.87 147.88 24.48 141.02 23.84 139.51 27.84 146.97 30.01 150.1 27.87 150.1 27.87" style="fill: #4e4b4a; fill-rule: evenodd;"/>
          <polygon points="131.62 22.2 130.46 26.31 132.76 29.58 135.74 26.32 133.6 20.71 131.62 22.2 131.62 22.2" style="fill: #4e4b4a; fill-rule: evenodd;"/>
          <polygon points="88.11 17.83 90.48 19.67 93.25 18.49 91.93 15.33 88.24 15.59 88.11 17.83 88.11 17.83" style="fill: #4e4b4a; fill-rule: evenodd;"/>
          <polygon points="129.93 17.68 132.93 17.81 134.5 15.25 131.59 13.43 128.74 15.78 129.93 17.68 129.93 17.68" style="fill: #4e4b4a; fill-rule: evenodd;"/>
          <polygon points="127.65 19.16 130.34 17.82 130.46 14.81 127.04 14.64 125.69 18.07 127.65 19.16 127.65 19.16" style="fill: #4e4b4a; fill-rule: evenodd;"/>
          <polygon points="121.7 18.73 126.71 18.74 129.14 15.62 124.17 13.61 119.58 16.54 121.7 18.73 121.7 18.73" style="fill: #4e4b4a; fill-rule: evenodd;"/>
          <polygon points="119.69 22.82 124.55 20.38 124.76 14.95 118.58 14.64 116.14 20.85 119.69 22.82 119.69 22.82" style="fill: #4e4b4a; fill-rule: evenodd;"/>
          <polygon points="111.57 16.16 113.02 19.01 117.53 19.55 118.52 16.19 113.62 14.37 111.57 16.16 111.57 16.16" style="fill: #4e4b4a; fill-rule: evenodd;"/>
          <polygon points="108.82 19.16 111.87 17.82 112.01 14.81 108.12 14.64 106.59 18.07 108.82 19.16 108.82 19.16" style="fill: #4e4b4a; fill-rule: evenodd;"/>
          <polygon points="102.38 18.85 105.76 20.09 108.48 17.72 105.82 14.59 101.71 16.25 102.38 18.85 102.38 18.85" style="fill: #4e4b4a; fill-rule: evenodd;"/>
          <polygon points="104.81 18.82 106.98 15.99 102.69 13.74 97.12 15.99 100.15 19.4 104.81 18.82 104.81 18.82" style="fill: #4e4b4a; fill-rule: evenodd;"/>
          <polygon points="94.85 19.4 97.26 17.4 96.67 14.33 93.16 14.95 92.6 18.76 94.85 19.4 94.85 19.4" style="fill: #4e4b4a; fill-rule: evenodd;"/>
          <polygon points="92.73 20.51 95.1 22.36 97.86 21.17 96.54 18.01 92.86 18.28 92.73 20.51 92.73 20.51" style="fill: #4e4b4a; fill-rule: evenodd;"/>
          <polygon points="113.43 21.85 116.48 20.5 116.62 17.5 112.73 17.32 111.2 20.76 113.43 21.85 113.43 21.85" style="fill: #4e4b4a; fill-rule: evenodd;"/>
          <polygon points="106.99 21.53 110.37 22.77 113.1 20.4 110.43 17.28 106.32 18.93 106.99 21.53 106.99 21.53" style="fill: #4e4b4a; fill-rule: evenodd;"/>
          <polygon points="105.31 21.51 106.31 18.68 104.32 16.42 101.73 18.67 103.14 22.08 105.31 21.51 105.31 21.51" style="fill: #4e4b4a; fill-rule: evenodd;"/>
          <polygon points="99.17 22.7 101.87 20.46 101.22 17.01 97.27 17.72 96.64 21.99 99.17 22.7 99.17 22.7" style="fill: #4e4b4a; fill-rule: evenodd;"/>
          <polygon points="111.39 24.97 114.77 26.21 117.49 23.84 114.83 20.71 110.72 22.37 111.39 24.97 111.39 24.97" style="fill: #4e4b4a; fill-rule: evenodd;"/>
          <polygon points="109.7 24.94 110.71 22.11 108.72 19.86 106.13 22.11 107.54 25.52 109.7 24.94 109.7 24.94" style="fill: #4e4b4a; fill-rule: evenodd;"/>
          <polygon points="130.13 21.63 131.13 18.8 129.14 16.55 126.55 18.79 127.96 22.2 130.13 21.63 130.13 21.63" style="fill: #4e4b4a; fill-rule: evenodd;"/>
          <polygon points="126.14 20.24 128.54 18.24 127.96 15.16 124.45 15.79 123.88 19.6 126.14 20.24 126.14 20.24" style="fill: #88817c; fill-rule: evenodd;"/>
          <polygon points="106.31 24.63 107.32 21.8 105.33 19.55 102.74 21.79 104.15 25.21 106.31 24.63 106.31 24.63" style="fill: #4e4b4a; fill-rule: evenodd;"/>
          <polygon points="110.23 28.37 113.27 27.02 113.41 24.02 109.53 23.84 108 27.28 110.23 28.37 110.23 28.37" style="fill: #4e4b4a; fill-rule: evenodd;"/>
          <polygon points="99.92 19.8 102.29 21.64 105.05 20.46 103.74 17.3 100.05 17.56 99.92 19.8 99.92 19.8" style="fill: #4e4b4a; fill-rule: evenodd;"/>
          <polygon points="112.5 20.79 113.51 17.96 111.51 15.71 108.92 17.95 110.33 21.37 112.5 20.79 112.5 20.79" style="fill: #4e4b4a; fill-rule: evenodd;"/>
          <polygon points="116.9 24 117.9 20.08 115.91 16.96 113.32 20.07 114.73 24.81 116.9 24 116.9 24" style="fill: #4e4b4a; fill-rule: evenodd;"/>
          <polygon points="90.68 15.54 92.89 19.35 99.76 20.07 101.27 15.57 93.81 13.13 90.68 15.54 90.68 15.54" style="fill: #4e4b4a; fill-rule: evenodd;"/>
          <polygon points="108.26 20.8 109.27 17.22 107.28 14.38 104.69 17.21 106.1 21.54 108.26 20.8 108.26 20.8" style="fill: #4e4b4a; fill-rule: evenodd;"/>
          <polygon points="89.35 12.1 91.72 9.98 94.48 11.34 93.17 14.98 89.48 14.68 89.35 12.1 89.35 12.1" style="fill: #4e4b4a; fill-rule: evenodd;"/>
          <polygon points="131.16 12.28 134.17 12.12 135.73 15.07 132.83 17.16 129.97 14.46 131.16 12.28 131.16 12.28" style="fill: #4e4b4a; fill-rule: evenodd;"/>
          <polygon points="128.89 10.57 131.57 12.12 131.69 15.57 128.27 15.77 126.92 11.82 128.89 10.57 128.89 10.57" style="fill: #4e4b4a; fill-rule: evenodd;"/>
          <polygon points="122.93 11.07 127.94 11.06 130.38 14.65 125.4 16.95 120.81 13.59 122.93 11.07 122.93 11.07" style="fill: #4e4b4a; fill-rule: evenodd;"/>
          <polygon points="119.34 10.57 122.03 12.12 122.15 15.57 118.73 15.77 117.37 11.82 119.34 10.57 119.34 10.57" style="fill: #4e4b4a; fill-rule: evenodd;"/>
          <polygon points="112.81 14.02 114.26 10.74 118.77 10.12 119.76 13.99 114.86 16.07 112.81 14.02 112.81 14.02" style="fill: #4e4b4a; fill-rule: evenodd;"/>
          <polygon points="110.06 10.57 113.11 12.12 113.24 15.57 109.36 15.77 107.83 11.82 110.06 10.57 110.06 10.57" style="fill: #4e4b4a; fill-rule: evenodd;"/>
          <polygon points="103.62 10.93 107 9.51 109.72 12.23 107.06 15.82 102.95 13.92 103.62 10.93 103.62 10.93" style="fill: #4e4b4a; fill-rule: evenodd;"/>
          <polygon points="106.05 10.97 108.21 14.21 103.92 16.8 98.36 14.22 101.38 10.3 106.05 10.97 106.05 10.97" style="fill: #4e4b4a; fill-rule: evenodd;"/>
          <polygon points="96.08 10.3 98.49 12.59 97.91 16.13 94.4 15.41 93.83 11.03 96.08 10.3 96.08 10.3" style="fill: #4e4b4a; fill-rule: evenodd;"/>
          <polygon points="93.96 9.02 96.33 6.9 99.09 8.26 97.78 11.89 94.09 11.59 93.96 9.02 93.96 9.02" style="fill: #4e4b4a; fill-rule: evenodd;"/>
          <polygon points="117.42 10.93 118.87 7.66 123.38 7.04 124.37 10.9 119.47 12.99 117.42 10.93 117.42 10.93" style="fill: #4e4b4a; fill-rule: evenodd;"/>
          <polygon points="114.67 7.49 117.72 9.03 117.86 12.48 113.97 12.69 112.44 8.74 114.67 7.49 114.67 7.49" style="fill: #4e4b4a; fill-rule: evenodd;"/>
          <polygon points="108.23 7.84 111.61 6.42 114.33 9.14 111.67 12.74 107.55 10.84 108.23 7.84 108.23 7.84" style="fill: #4e4b4a; fill-rule: evenodd;"/>
          <polygon points="106.54 7.88 107.55 11.13 105.55 13.72 102.97 11.14 104.37 7.21 106.54 7.88 106.54 7.88" style="fill: #4e4b4a; fill-rule: evenodd;"/>
          <polygon points="100.69 7.21 103.11 9.51 102.52 13.04 97.01 12.32 98.44 7.95 100.69 7.21 100.69 7.21" style="fill: #4e4b4a; fill-rule: evenodd;"/>
          <polygon points="119.06 3.54 122.11 5.09 122.25 8.54 118.37 8.74 116.84 4.79 119.06 3.54 119.06 3.54" style="fill: #a09996; fill-rule: evenodd;"/>
          <polygon points="112.63 3.9 116.01 2.48 118.73 5.2 116.07 8.79 111.95 6.89 112.63 3.9 112.63 3.9" style="fill: #4e4b4a; fill-rule: evenodd;"/>
          <polygon points="112.12 3.93 113.46 7.18 110.81 9.77 107.36 7.19 109.24 3.27 112.12 3.93 112.12 3.93" style="fill: #4e4b4a; fill-rule: evenodd;"/>
          <polygon points="129.73 9.72 130.73 12.97 128.74 15.56 126.15 12.98 127.56 9.06 129.73 9.72 129.73 9.72" style="fill: #4e4b4a; fill-rule: evenodd;"/>
          <polygon points="125.52 7.08 127.93 9.37 127.34 12.9 123.83 12.19 123.27 7.81 125.52 7.08 125.52 7.08" style="fill: #88817c; fill-rule: evenodd;"/>
          <polygon points="107.55 4.29 110.64 6.83 106.56 10.13 103.97 7.55 105.38 3.62 107.55 4.29 107.55 4.29" style="fill: #4e4b4a; fill-rule: evenodd;"/>
          <polygon points="101.71 3.62 104.12 5.91 103.53 9.45 100.02 8.73 99.46 4.36 101.71 3.62 101.71 3.62" style="fill: #a09996; fill-rule: evenodd;"/>
          <polygon points="111.46 0 114.51 1.54 114.64 5 110.76 5.2 109.23 1.25 111.46 0 111.46 0" style="fill: #4e4b4a; fill-rule: evenodd;"/>
          <polygon points="101.16 9.84 104.68 5.59 106.29 9.08 104.97 12.72 101.29 12.41 101.16 9.84 101.16 9.84" style="fill: #4e4b4a; fill-rule: evenodd;"/>
          <polygon points="113.74 8.94 114.74 13.34 112.75 16.84 110.16 13.35 111.57 8.03 113.74 8.94 113.74 8.94" style="fill: #4e4b4a; fill-rule: evenodd;"/>
          <polygon points="118.55 4.83 119.67 8.46 117.45 11.34 114.56 8.47 116.13 4.09 118.55 4.83 118.55 4.83" style="fill: #4e4b4a; fill-rule: evenodd;"/>
          <polygon points="114.75 5.11 115.75 8.36 113.76 10.95 111.17 8.37 112.58 4.44 114.75 5.11 114.75 5.11" style="fill: #4e4b4a; fill-rule: evenodd;"/>
          <polygon points="104.93 9.87 107.34 12.16 106.76 15.7 103.24 14.98 102.68 10.61 104.93 9.87 104.93 9.87" style="fill: #88817c; fill-rule: evenodd;"/>
          <polygon points="91.92 14.74 94.13 10.36 101 9.53 102.51 14.7 95.05 17.49 91.92 14.74 91.92 14.74" style="fill: #4e4b4a; fill-rule: evenodd;"/>
          <polygon points="109.5 8.69 110.51 12.8 108.51 16.07 105.92 12.81 107.33 7.84 109.5 8.69 109.5 8.69" style="fill: #4e4b4a; fill-rule: evenodd;"/>
          <polygon points="118.36 13.09 120.67 10.7 122.34 11.77 123.45 14.83 119.07 15.35 118.36 13.09 118.36 13.09" style="fill: #88817c; fill-rule: evenodd;"/>
          <polygon points="131.57 17.54 133.89 15.15 137.42 15.77 136.67 19.28 132.28 19.79 131.57 17.54 131.57 17.54" style="fill: #4e4b4a; fill-rule: evenodd;"/>
          <polygon points="106.13 3.95 108.43 1.54 111.97 2.13 111.24 5.64 106.5 5.08 106.13 3.95 106.13 3.95" style="fill: #a09996; fill-rule: evenodd;"/>
          <polygon points="112.68 6.36 110.27 8.65 111.51 11.39 114.37 11.47 113.82 8.72 112.68 6.36 112.68 6.36" style="fill: #88817c; fill-rule: evenodd;"/>
          <polygon points="106.02 20.74 106.02 19.1 107.77 16.88 104.25 17.51 103.69 21.32 106.02 20.74 106.02 20.74" style="fill: #88817c; fill-rule: evenodd;"/>
          <polygon points="132.07 17.96 129.66 20.25 130.24 23.79 132.66 20.59 134.32 18.69 132.07 17.96 132.07 17.96" style="fill: #88817c; fill-rule: evenodd;"/>
          <polygon points="98.67 13 95.41 12.33 92.84 14.83 95.44 17.3 99.35 15.27 98.67 13 98.67 13" style="fill: #88817c; fill-rule: evenodd;"/>
          <polygon points="96.97 20.88 99.38 18.89 98.79 15.81 95.28 16.43 94.72 20.24 96.97 20.88 96.97 20.88" style="fill: #a09996; fill-rule: evenodd;"/>
          <polygon points="90.02 16.5 88.45 17.99 88.83 20.29 91.11 19.82 91.48 16.98 90.02 16.5 90.02 16.5" style="fill: #a09996; fill-rule: evenodd;"/>
          <polygon points="114.88 19.69 115.55 17.81 114.22 16.31 112.5 17.8 113.44 20.07 114.88 19.69 114.88 19.69" style="fill: #a09996; fill-rule: evenodd;"/>
          <polygon points="114.46 6.44 116.26 5.65 116.34 3.88 114.05 3.78 113.15 5.8 114.46 6.44 114.46 6.44" style="fill: #a09996; fill-rule: evenodd;"/>
          <polygon points="92.97 23.29 93.24 21.35 91.78 20.34 90.49 22.23 91.73 24.06 92.97 23.29 92.97 23.29" style="fill: #a09996; fill-rule: evenodd;"/>
          <polygon points="119.48 24.84 121.11 25.93 122.65 25.04 121.51 23.06 119.32 23.39 119.48 24.84 119.48 24.84" style="fill: #a09996; fill-rule: evenodd;"/>
          <polygon points="131.27 16.59 133.79 15.48 133.9 13 130.69 12.85 129.43 15.7 131.27 16.59 131.27 16.59" style="fill: #a09996; fill-rule: evenodd;"/>
        </g>
        <g>
          <polygon points="108.75 34.72 50.43 34.72 78.61 27.17 108.75 34.72 108.75 34.72" style="fill: #4e4b4a; fill-rule: evenodd;"/>
          <polygon points="81.88 32.01 80.25 30.74 78.35 31.56 79.25 33.74 81.79 33.56 81.88 32.01 81.88 32.01" style="fill: #4e4b4a; fill-rule: evenodd;"/>
          <polygon points="54.63 31.09 52.78 32.02 52.7 34.09 55.06 34.21 55.99 31.84 54.63 31.09 54.63 31.09" style="fill: #4e4b4a; fill-rule: evenodd;"/>
          <polygon points="59.58 31.39 55.56 31.39 53.61 33.24 57.6 34.42 61.28 32.69 59.58 31.39 59.58 31.39" style="fill: #4e4b4a; fill-rule: evenodd;"/>
          <polygon points="61.22 31.09 59.37 32.02 59.28 34.09 61.64 34.21 62.57 31.84 61.22 31.09 61.22 31.09" style="fill: #4e4b4a; fill-rule: evenodd;"/>
          <polygon points="65.72 33.16 64.72 31.2 61.61 30.82 60.93 33.14 64.3 34.4 65.72 33.16 65.72 33.16" style="fill: #4e4b4a; fill-rule: evenodd;"/>
          <polygon points="67.61 31.09 65.51 32.02 65.42 34.09 68.09 34.21 69.15 31.84 67.61 31.09 67.61 31.09" style="fill: #4e4b4a; fill-rule: evenodd;"/>
          <polygon points="72.05 31.31 69.72 30.46 67.85 32.09 69.68 34.24 72.52 33.1 72.05 31.31 72.05 31.31" style="fill: #4e4b4a; fill-rule: evenodd;"/>
          <polygon points="70.38 31.3 68.88 33.1 71.84 34.53 75.68 33.1 73.59 30.93 70.38 31.3 70.38 31.3" style="fill: #4e4b4a; fill-rule: evenodd;"/>
          <polygon points="77.25 30.93 75.58 32.31 75.99 34.43 78.41 33.99 78.79 31.37 77.25 30.93 77.25 30.93" style="fill: #4e4b4a; fill-rule: evenodd;"/>
          <polygon points="78.71 30.16 77.07 28.89 75.17 29.71 76.07 31.89 78.62 31.71 78.71 30.16 78.71 30.16" style="fill: #4e4b4a; fill-rule: evenodd;"/>
          <polygon points="62.54 31.31 61.54 29.35 58.43 28.97 57.75 31.29 61.12 32.55 62.54 31.31 62.54 31.31" style="fill: #4e4b4a; fill-rule: evenodd;"/>
          <polygon points="64.44 29.24 62.33 30.17 62.24 32.24 64.92 32.36 65.97 29.99 64.44 29.24 64.44 29.24" style="fill: #4e4b4a; fill-rule: evenodd;"/>
          <polygon points="68.88 29.46 66.54 28.61 64.67 30.24 66.5 32.39 69.34 31.25 68.88 29.46 68.88 29.46" style="fill: #4e4b4a; fill-rule: evenodd;"/>
          <polygon points="70.04 29.48 69.34 31.43 70.72 32.98 72.5 31.43 71.53 29.08 70.04 29.48 70.04 29.48" style="fill: #4e4b4a; fill-rule: evenodd;"/>
          <polygon points="74.07 29.08 72.4 30.45 72.81 32.58 75.23 32.14 75.62 29.52 74.07 29.08 74.07 29.08" style="fill: #4e4b4a; fill-rule: evenodd;"/>
          <polygon points="61.4 26.88 59.3 27.8 59.21 29.87 61.88 29.99 62.94 27.62 61.4 26.88 61.4 26.88" style="fill: #a09996; fill-rule: evenodd;"/>
          <polygon points="65.84 27.09 63.51 26.24 61.64 27.87 63.47 30.02 66.31 28.88 65.84 27.09 65.84 27.09" style="fill: #4e4b4a; fill-rule: evenodd;"/>
          <polygon points="67.01 27.11 66.31 29.06 67.69 30.61 69.47 29.06 68.5 26.71 67.01 27.11 67.01 27.11" style="fill: #4e4b4a; fill-rule: evenodd;"/>
          <polygon points="56.96 29 55.3 30.37 55.7 32.49 58.12 32.06 58.51 29.44 56.96 29 56.96 29" style="fill: #88817c; fill-rule: evenodd;"/>
          <polygon points="69.34 27.32 68.65 29.28 70.02 30.83 71.8 29.28 70.83 26.93 69.34 27.32 69.34 27.32" style="fill: #4e4b4a; fill-rule: evenodd;"/>
          <polygon points="73.37 26.93 71.71 28.3 72.11 30.42 74.53 29.99 74.92 27.37 73.37 26.93 73.37 26.93" style="fill: #a09996; fill-rule: evenodd;"/>
          <polygon points="66.65 24.75 64.55 25.68 64.45 27.75 67.13 27.87 68.18 25.5 66.65 24.75 66.65 24.75" style="fill: #4e4b4a; fill-rule: evenodd;"/>
          <polygon points="73.75 30.65 72.11 29.38 70.21 30.2 71.12 32.38 73.66 32.2 73.75 30.65 73.75 30.65" style="fill: #4e4b4a; fill-rule: evenodd;"/>
          <polygon points="65.08 29.97 64.38 31.92 65.76 33.47 67.54 31.93 66.57 29.57 65.08 29.97 65.08 29.97" style="fill: #4e4b4a; fill-rule: evenodd;"/>
          <polygon points="62.05 27.6 61.35 29.55 62.73 31.1 64.51 29.56 63.54 27.2 62.05 27.6 62.05 27.6" style="fill: #4e4b4a; fill-rule: evenodd;"/>
          <polygon points="64.38 27.82 63.69 29.76 65.06 31.32 66.85 29.77 65.88 27.42 64.38 27.82 64.38 27.82" style="fill: #4e4b4a; fill-rule: evenodd;"/>
          <polygon points="68.41 27.42 66.75 28.79 67.15 30.91 69.57 30.48 69.96 27.86 68.41 27.42 68.41 27.42" style="fill: #88817c; fill-rule: evenodd;"/>
          <polygon points="80.12 33.06 78.59 30.88 73.86 30.47 72.82 33.04 77.96 34.43 80.12 33.06 80.12 33.06" style="fill: #4e4b4a; fill-rule: evenodd;"/>
          <polygon points="68 29.96 67.3 32.43 68.68 34.39 70.46 32.44 69.49 29.46 68 29.96 68 29.96" style="fill: #4e4b4a; fill-rule: evenodd;"/>
          <polygon points="81.88 31.53 80.25 30.07 78.35 31.01 79.25 33.51 81.79 33.3 81.88 31.53 81.88 31.53" style="fill: #4e4b4a; fill-rule: evenodd;"/>
          <polygon points="52.2 31.55 50.44 32.62 50.58 34.77 52.98 34.74 53.66 32.23 52.2 31.55 52.2 31.55" style="fill: #4e4b4a; fill-rule: evenodd;"/>
          <polygon points="54.63 30.48 52.78 31.54 52.7 33.92 55.06 34.06 55.99 31.34 54.63 30.48 54.63 30.48" style="fill: #4e4b4a; fill-rule: evenodd;"/>
          <polygon points="61.22 30.48 59.37 31.54 59.28 33.92 61.64 34.06 62.57 31.34 61.22 30.48 61.22 30.48" style="fill: #4e4b4a; fill-rule: evenodd;"/>
          <polygon points="65.72 32.85 64.72 30.6 61.61 30.17 60.93 32.83 64.3 34.27 65.72 32.85 65.72 32.85" style="fill: #4e4b4a; fill-rule: evenodd;"/>
          <polygon points="67.61 30.48 65.51 31.54 65.42 33.92 68.09 34.06 69.15 31.34 67.61 30.48 67.61 30.48" style="fill: #4e4b4a; fill-rule: evenodd;"/>
          <polygon points="72.05 30.72 69.72 29.74 67.85 31.62 69.68 34.09 72.52 32.79 72.05 30.72 72.05 30.72" style="fill: #4e4b4a; fill-rule: evenodd;"/>
          <polygon points="70.42 30.4 68.93 32.64 71.88 34.43 75.72 32.65 73.63 29.94 70.42 30.4 70.42 30.4" style="fill: #4e4b4a; fill-rule: evenodd;"/>
          <polygon points="84.61 22.25 82.95 23.82 83.35 26.26 85.77 25.76 86.16 22.75 84.61 22.25 84.61 22.25" style="fill: #4e4b4a; fill-rule: evenodd;"/>
          <polygon points="78.71 29.41 77.07 27.95 75.17 28.88 76.07 31.39 78.62 31.18 78.71 29.41 78.71 29.41" style="fill: #4e4b4a; fill-rule: evenodd;"/>
          <polygon points="62.54 30.73 61.54 28.47 58.43 28.04 57.75 30.71 61.12 32.14 62.54 30.73 62.54 30.73" style="fill: #4e4b4a; fill-rule: evenodd;"/>
          <polygon points="64.44 28.35 62.33 29.42 62.24 31.79 64.92 31.93 65.97 29.21 64.44 28.35 64.44 28.35" style="fill: #4e4b4a; fill-rule: evenodd;"/>
          <polygon points="68.88 28.6 66.54 27.62 64.67 29.49 66.5 31.97 69.34 30.66 68.88 28.6 68.88 28.6" style="fill: #4e4b4a; fill-rule: evenodd;"/>
          <polygon points="70.04 28.62 69.34 30.86 70.72 32.64 72.5 30.87 71.53 28.16 70.04 28.62 70.04 28.62" style="fill: #4e4b4a; fill-rule: evenodd;"/>
          <polygon points="74.07 28.16 72.4 29.74 72.81 32.18 75.23 31.68 75.62 28.67 74.07 28.16 74.07 28.16" style="fill: #4e4b4a; fill-rule: evenodd;"/>
          <polygon points="61.4 25.63 59.3 26.69 59.21 29.07 61.88 29.21 62.94 26.49 61.4 25.63 61.4 25.63" style="fill: #a09996; fill-rule: evenodd;"/>
          <polygon points="65.84 25.88 63.51 24.9 61.64 26.77 63.47 29.25 66.31 27.94 65.84 25.88 65.84 25.88" style="fill: #4e4b4a; fill-rule: evenodd;"/>
          <polygon points="67.01 25.9 66.31 28.14 67.69 29.92 69.47 28.15 68.5 25.44 67.01 25.9 67.01 25.9" style="fill: #4e4b4a; fill-rule: evenodd;"/>
          <polygon points="56.96 28.07 55.3 29.65 55.7 32.08 58.12 31.59 58.51 28.57 56.96 28.07 56.96 28.07" style="fill: #88817c; fill-rule: evenodd;"/>
          <polygon points="69.34 26.15 68.65 28.39 70.02 30.17 71.8 28.39 70.83 25.69 69.34 26.15 69.34 26.15" style="fill: #4e4b4a; fill-rule: evenodd;"/>
          <polygon points="66.65 23.19 64.55 24.26 64.45 26.63 67.13 26.77 68.18 24.05 66.65 23.19 66.65 23.19" style="fill: #4e4b4a; fill-rule: evenodd;"/>
          <polygon points="73.75 29.97 72.11 28.51 70.21 29.45 71.12 31.95 73.66 31.75 73.75 29.97 73.75 29.97" style="fill: #4e4b4a; fill-rule: evenodd;"/>
          <polygon points="65.08 29.19 64.38 31.43 65.76 33.21 67.54 31.43 66.57 28.73 65.08 29.19 65.08 29.19" style="fill: #4e4b4a; fill-rule: evenodd;"/>
          <polygon points="62.05 26.47 61.35 28.71 62.73 30.49 64.51 28.71 63.54 26.01 62.05 26.47 62.05 26.47" style="fill: #4e4b4a; fill-rule: evenodd;"/>
          <polygon points="64.38 26.71 63.69 28.95 65.06 30.73 66.85 28.96 65.88 26.25 64.38 26.71 64.38 26.71" style="fill: #4e4b4a; fill-rule: evenodd;"/>
          <polygon points="79.89 31.97 78.11 28.45 72.59 27.78 71.37 31.94 77.37 34.19 79.89 31.97 79.89 31.97" style="fill: #4e4b4a; fill-rule: evenodd;"/>
          <polygon points="68 29.18 67.3 32.01 68.68 34.27 70.46 32.02 69.49 28.6 68 29.18 68 29.18" style="fill: #4e4b4a; fill-rule: evenodd;"/>
          <polygon points="109.03 33 107.52 31.41 105.55 32.19 106.24 34.76 108.79 34.76 109.03 33 109.03 33" style="fill: #4e4b4a; fill-rule: evenodd;"/>
          <polygon points="79.99 31.41 77.92 31.3 76.84 33.33 78.84 34.77 80.81 32.91 79.99 31.41 79.99 31.41" style="fill: #4e4b4a; fill-rule: evenodd;"/>
          <polygon points="81.56 30.23 79.71 31.29 79.62 33.67 81.98 33.81 82.91 31.09 81.56 30.23 81.56 30.23" style="fill: #4e4b4a; fill-rule: evenodd;"/>
          <polygon points="85.66 30.57 82.21 30.57 80.53 33.04 83.96 34.62 87.12 32.31 85.66 30.57 85.66 30.57" style="fill: #4e4b4a; fill-rule: evenodd;"/>
          <polygon points="88.14 30.23 86.29 31.29 86.2 33.67 88.56 33.81 89.49 31.09 88.14 30.23 88.14 30.23" style="fill: #4e4b4a; fill-rule: evenodd;"/>
          <polygon points="92.64 32.61 91.64 30.35 88.54 29.92 87.85 32.58 91.23 34.02 92.64 32.61 92.64 32.61" style="fill: #4e4b4a; fill-rule: evenodd;"/>
          <polygon points="94.54 30.23 92.43 31.29 92.34 33.67 95.02 33.81 96.07 31.09 94.54 30.23 94.54 30.23" style="fill: #4e4b4a; fill-rule: evenodd;"/>
          <polygon points="98.98 30.48 96.64 29.5 94.77 31.37 96.6 33.85 99.44 32.54 98.98 30.48 98.98 30.48" style="fill: #4e4b4a; fill-rule: evenodd;"/>
          <polygon points="97.3 30.5 95.81 32.74 98.76 34.52 102.6 32.75 100.51 30.04 97.3 30.5 97.3 30.5" style="fill: #4e4b4a; fill-rule: evenodd;"/>
          <polygon points="104.17 30.04 102.51 31.62 102.91 34.06 105.33 33.56 105.72 30.55 104.17 30.04 104.17 30.04" style="fill: #4e4b4a; fill-rule: evenodd;"/>
          <polygon points="105.63 29.16 103.99 27.7 102.09 28.64 103 31.14 105.54 30.93 105.63 29.16 105.63 29.16" style="fill: #4e4b4a; fill-rule: evenodd;"/>
          <polygon points="91.03 30.27 89.7 27.67 85.58 27.18 84.67 30.24 89.15 31.9 91.03 30.27 91.03 30.27" style="fill: #4e4b4a; fill-rule: evenodd;"/>
          <polygon points="91.36 28.11 89.26 29.17 89.16 31.55 91.84 31.69 92.89 28.97 91.36 28.11 91.36 28.11" style="fill: #4e4b4a; fill-rule: evenodd;"/>
          <polygon points="95.79 28.35 93.46 27.37 91.59 29.25 93.43 31.72 96.26 30.42 95.79 28.35 95.79 28.35" style="fill: #4e4b4a; fill-rule: evenodd;"/>
          <polygon points="96.96 28.38 96.26 30.62 97.64 32.4 99.42 30.62 98.45 27.92 96.96 28.38 96.96 28.38" style="fill: #4e4b4a; fill-rule: evenodd;"/>
          <polygon points="100.99 27.92 99.33 29.5 99.73 31.93 102.15 31.44 102.54 28.42 100.99 27.92 100.99 27.92" style="fill: #4e4b4a; fill-rule: evenodd;"/>
          <polygon points="92.77 25.63 90.43 24.65 88.56 26.53 90.39 29 93.23 27.69 92.77 25.63 92.77 25.63" style="fill: #4e4b4a; fill-rule: evenodd;"/>
          <polygon points="93.93 25.66 93.23 27.9 94.61 29.68 96.39 27.9 95.42 25.2 93.93 25.66 93.93 25.66" style="fill: #4e4b4a; fill-rule: evenodd;"/>
          <polygon points="79.85 28.28 79.16 30.52 80.53 32.3 82.32 30.53 81.35 27.82 79.85 28.28 79.85 28.28" style="fill: #4e4b4a; fill-rule: evenodd;"/>
          <polygon points="96.76 25.9 95.57 28.14 97.93 29.92 100.99 28.15 99.32 25.44 96.76 25.9 96.76 25.9" style="fill: #4e4b4a; fill-rule: evenodd;"/>
          <polygon points="100.29 25.44 98.63 27.02 99.03 29.46 101.46 28.96 101.84 25.95 100.29 25.44 100.29 25.44" style="fill: #a09996; fill-rule: evenodd;"/>
          <polygon points="93.57 22.95 91.47 24.01 91.37 26.39 94.05 26.53 95.11 23.81 93.57 22.95 93.57 22.95" style="fill: #4e4b4a; fill-rule: evenodd;"/>
          <polygon points="100.67 29.73 99.04 28.27 97.13 29.2 98.04 31.71 100.58 31.5 100.67 29.73 100.67 29.73" style="fill: #4e4b4a; fill-rule: evenodd;"/>
          <polygon points="92 28.94 91.31 31.18 92.68 32.96 94.46 31.19 93.49 28.48 92 28.94 92 28.94" style="fill: #4e4b4a; fill-rule: evenodd;"/>
          <polygon points="88.97 26.22 88.27 28.46 89.65 30.24 91.43 28.47 90.46 25.76 88.97 26.22 88.97 26.22" style="fill: #4e4b4a; fill-rule: evenodd;"/>
          <polygon points="91.31 26.47 90.61 28.71 91.99 30.49 93.77 28.71 92.8 26.01 91.31 26.47 91.31 26.47" style="fill: #4e4b4a; fill-rule: evenodd;"/>
          <polygon points="107.76 32.84 106.24 30.5 101.5 30.06 100.46 32.82 105.6 34.31 107.76 32.84 107.76 32.84" style="fill: #4e4b4a; fill-rule: evenodd;"/>
          <polygon points="95.03 28.93 94.22 31.77 95.81 34.02 97.87 31.77 96.39 27.9 95.03 28.93 95.03 28.93" style="fill: #4e4b4a; fill-rule: evenodd;"/>
          <polygon points="65.04 25.92 66.67 27.19 68.58 26.37 67.67 24.19 65.13 24.37 65.04 25.92 65.04 25.92" style="fill: #4e4b4a; fill-rule: evenodd;"/>
          <polygon points="93.86 25.82 95.93 25.91 97.01 24.14 95.01 22.89 93.04 24.5 93.86 25.82 93.86 25.82" style="fill: #4e4b4a; fill-rule: evenodd;"/>
          <polygon points="92.29 26.84 94.14 25.91 94.23 23.84 91.87 23.72 90.94 26.09 92.29 26.84 92.29 26.84" style="fill: #4e4b4a; fill-rule: evenodd;"/>
          <polygon points="88.19 26.54 91.64 26.55 93.32 24.39 89.89 23.01 86.73 25.03 88.19 26.54 88.19 26.54" style="fill: #4e4b4a; fill-rule: evenodd;"/>
          <polygon points="86.8 29.36 90.15 27.68 90.3 23.94 86.04 23.72 84.36 28 86.8 29.36 86.8 29.36" style="fill: #4e4b4a; fill-rule: evenodd;"/>
          <polygon points="81.21 24.77 82.21 26.73 85.32 27.11 86 24.79 82.62 23.54 81.21 24.77 81.21 24.77" style="fill: #4e4b4a; fill-rule: evenodd;"/>
          <polygon points="79.31 26.84 81.41 25.91 81.51 23.84 78.83 23.72 77.78 26.09 79.31 26.84 79.31 26.84" style="fill: #4e4b4a; fill-rule: evenodd;"/>
          <polygon points="74.87 26.62 77.21 27.48 79.08 25.84 77.25 23.69 74.41 24.83 74.87 26.62 74.87 26.62" style="fill: #4e4b4a; fill-rule: evenodd;"/>
          <polygon points="76.55 26.6 78.04 24.65 75.09 23.1 71.25 24.65 73.34 27 76.55 26.6 76.55 26.6" style="fill: #4e4b4a; fill-rule: evenodd;"/>
          <polygon points="69.68 27 71.35 25.63 70.94 23.5 68.52 23.94 68.13 26.56 69.68 27 69.68 27" style="fill: #4e4b4a; fill-rule: evenodd;"/>
          <polygon points="68.22 27.77 69.85 29.04 71.76 28.22 70.85 26.04 68.31 26.23 68.22 27.77 68.22 27.77" style="fill: #4e4b4a; fill-rule: evenodd;"/>
          <polygon points="82.49 28.69 84.59 27.76 84.69 25.69 82.01 25.57 80.95 27.94 82.49 28.69 82.49 28.69" style="fill: #4e4b4a; fill-rule: evenodd;"/>
          <polygon points="78.05 28.47 80.38 29.33 82.26 27.69 80.42 25.54 77.59 26.68 78.05 28.47 78.05 28.47" style="fill: #4e4b4a; fill-rule: evenodd;"/>
          <polygon points="76.89 28.45 77.58 26.5 76.21 24.95 74.43 26.5 75.4 28.85 76.89 28.45 76.89 28.45" style="fill: #4e4b4a; fill-rule: evenodd;"/>
          <polygon points="72.66 29.28 74.52 27.73 74.07 25.35 71.35 25.84 70.92 28.79 72.66 29.28 72.66 29.28" style="fill: #4e4b4a; fill-rule: evenodd;"/>
          <polygon points="81.08 30.84 83.42 31.69 85.29 30.06 83.45 27.91 80.62 29.05 81.08 30.84 81.08 30.84" style="fill: #4e4b4a; fill-rule: evenodd;"/>
          <polygon points="79.92 30.82 80.62 28.87 79.24 27.32 77.46 28.87 78.43 31.22 79.92 30.82 79.92 30.82" style="fill: #4e4b4a; fill-rule: evenodd;"/>
          <polygon points="94 28.54 94.69 26.59 93.32 25.03 91.53 26.58 92.5 28.93 94 28.54 94 28.54" style="fill: #4e4b4a; fill-rule: evenodd;"/>
          <polygon points="91.25 27.58 92.91 26.2 92.51 24.08 90.08 24.51 89.69 27.14 91.25 27.58 91.25 27.58" style="fill: #88817c; fill-rule: evenodd;"/>
          <polygon points="77.59 30.61 78.28 28.66 76.91 27.11 75.12 28.65 76.09 31.01 77.59 30.61 77.59 30.61" style="fill: #4e4b4a; fill-rule: evenodd;"/>
          <polygon points="80.28 33.18 82.38 32.25 82.47 30.18 79.8 30.06 78.75 32.43 80.28 33.18 80.28 33.18" style="fill: #4e4b4a; fill-rule: evenodd;"/>
          <polygon points="73.18 27.28 74.81 28.55 76.72 27.73 75.81 25.55 73.27 25.73 73.18 27.28 73.18 27.28" style="fill: #4e4b4a; fill-rule: evenodd;"/>
          <polygon points="81.85 27.96 82.54 26.01 81.17 24.46 79.38 26.01 80.35 28.36 81.85 27.96 81.85 27.96" style="fill: #4e4b4a; fill-rule: evenodd;"/>
          <polygon points="84.88 30.17 85.57 27.47 84.2 25.32 82.42 27.47 83.39 30.73 84.88 30.17 84.88 30.17" style="fill: #4e4b4a; fill-rule: evenodd;"/>
          <polygon points="66.81 24.34 68.34 26.96 73.07 27.46 74.11 24.36 68.97 22.68 66.81 24.34 66.81 24.34" style="fill: #4e4b4a; fill-rule: evenodd;"/>
          <polygon points="78.93 27.97 79.62 25.5 78.25 23.54 76.46 25.5 77.44 28.48 78.93 27.97 78.93 27.97" style="fill: #4e4b4a; fill-rule: evenodd;"/>
          <polygon points="65.89 21.97 67.53 20.51 69.43 21.45 68.53 23.95 65.98 23.75 65.89 21.97 65.89 21.97" style="fill: #4e4b4a; fill-rule: evenodd;"/>
          <polygon points="94.71 22.09 96.78 21.99 97.86 24.02 95.86 25.46 93.89 23.6 94.71 22.09 94.71 22.09" style="fill: #4e4b4a; fill-rule: evenodd;"/>
          <polygon points="93.14 20.92 95 21.98 95.08 24.36 92.72 24.5 91.79 21.78 93.14 20.92 93.14 20.92" style="fill: #4e4b4a; fill-rule: evenodd;"/>
          <polygon points="89.04 21.26 92.49 21.25 94.17 23.72 90.74 25.31 87.58 23 89.04 21.26 89.04 21.26" style="fill: #4e4b4a; fill-rule: evenodd;"/>
          <polygon points="86.56 20.92 88.41 21.98 88.5 24.36 86.14 24.5 85.21 21.78 86.56 20.92 86.56 20.92" style="fill: #4e4b4a; fill-rule: evenodd;"/>
          <polygon points="82.06 23.29 83.06 21.04 86.17 20.61 86.85 23.27 83.48 24.71 82.06 23.29 82.06 23.29" style="fill: #4e4b4a; fill-rule: evenodd;"/>
          <polygon points="80.17 20.92 82.27 21.98 82.36 24.36 79.69 24.5 78.63 21.78 80.17 20.92 80.17 20.92" style="fill: #4e4b4a; fill-rule: evenodd;"/>
          <polygon points="75.73 21.16 78.06 20.18 79.93 22.06 78.1 24.53 75.26 23.23 75.73 21.16 75.73 21.16" style="fill: #4e4b4a; fill-rule: evenodd;"/>
          <polygon points="77.4 21.19 78.9 23.43 75.94 25.21 72.1 23.43 74.19 20.73 77.4 21.19 77.4 21.19" style="fill: #4e4b4a; fill-rule: evenodd;"/>
          <polygon points="70.54 20.73 72.2 22.31 71.79 24.75 69.37 24.25 68.98 21.23 70.54 20.73 70.54 20.73" style="fill: #4e4b4a; fill-rule: evenodd;"/>
          <polygon points="69.07 19.85 70.71 18.39 72.61 19.33 71.71 21.83 69.16 21.62 69.07 19.85 69.07 19.85" style="fill: #4e4b4a; fill-rule: evenodd;"/>
          <polygon points="85.24 21.17 86.24 18.91 89.35 18.48 90.03 21.15 86.65 22.59 85.24 21.17 85.24 21.17" style="fill: #4e4b4a; fill-rule: evenodd;"/>
          <polygon points="83.35 18.79 85.44 19.86 85.54 22.24 82.86 22.37 81.81 19.65 83.35 18.79 83.35 18.79" style="fill: #4e4b4a; fill-rule: evenodd;"/>
          <polygon points="78.9 19.04 81.23 18.06 83.11 19.93 81.28 22.41 78.44 21.1 78.9 19.04 78.9 19.04" style="fill: #4e4b4a; fill-rule: evenodd;"/>
          <polygon points="77.74 19.06 78.44 21.3 77.06 23.08 75.28 21.31 76.25 18.6 77.74 19.06 77.74 19.06" style="fill: #4e4b4a; fill-rule: evenodd;"/>
          <polygon points="73.71 18.6 75.37 20.18 74.97 22.62 71.18 22.12 72.16 19.11 73.71 18.6 73.71 18.6" style="fill: #4e4b4a; fill-rule: evenodd;"/>
          <polygon points="86.37 16.07 88.48 17.14 88.57 19.52 85.89 19.66 84.84 16.93 86.37 16.07 86.37 16.07" style="fill: #a09996; fill-rule: evenodd;"/>
          <polygon points="81.94 16.32 84.27 15.34 86.14 17.21 84.31 19.69 81.47 18.38 81.94 16.32 81.94 16.32" style="fill: #4e4b4a; fill-rule: evenodd;"/>
          <polygon points="81.59 16.34 82.51 18.58 80.68 20.36 78.31 18.59 79.6 15.88 81.59 16.34 81.59 16.34" style="fill: #4e4b4a; fill-rule: evenodd;"/>
          <polygon points="93.72 20.33 94.42 22.57 93.04 24.35 91.26 22.57 92.23 19.87 93.72 20.33 93.72 20.33" style="fill: #4e4b4a; fill-rule: evenodd;"/>
          <polygon points="90.82 18.51 92.48 20.09 92.08 22.52 89.66 22.03 89.27 19.01 90.82 18.51 90.82 18.51" style="fill: #88817c; fill-rule: evenodd;"/>
          <polygon points="78.44 16.59 80.57 18.34 77.76 20.61 75.97 18.83 76.94 16.13 78.44 16.59 78.44 16.59" style="fill: #4e4b4a; fill-rule: evenodd;"/>
          <polygon points="74.41 16.13 76.07 17.71 75.67 20.14 73.25 19.65 72.86 16.63 74.41 16.13 74.41 16.13" style="fill: #a09996; fill-rule: evenodd;"/>
          <polygon points="81.13 13.63 83.23 14.69 83.33 17.07 80.65 17.21 79.6 14.49 81.13 13.63 81.13 13.63" style="fill: #4e4b4a; fill-rule: evenodd;"/>
          <polygon points="74.03 20.41 76.46 17.48 77.57 19.89 76.66 22.39 74.12 22.18 74.03 20.41 74.03 20.41" style="fill: #4e4b4a; fill-rule: evenodd;"/>
          <polygon points="82.7 19.79 83.4 22.82 82.02 25.23 80.23 22.83 81.21 19.17 82.7 19.79 82.7 19.79" style="fill: #4e4b4a; fill-rule: evenodd;"/>
          <polygon points="86.02 16.96 86.79 19.46 85.26 21.45 83.27 19.47 84.35 16.45 86.02 16.96 86.02 16.96" style="fill: #4e4b4a; fill-rule: evenodd;"/>
          <polygon points="83.4 17.15 84.09 19.39 82.72 21.17 80.93 19.4 81.9 16.69 83.4 17.15 83.4 17.15" style="fill: #4e4b4a; fill-rule: evenodd;"/>
          <polygon points="76.63 20.43 78.29 22.01 77.89 24.45 75.47 23.96 75.08 20.94 76.63 20.43 76.63 20.43" style="fill: #88817c; fill-rule: evenodd;"/>
          <polygon points="67.66 23.79 69.19 20.77 73.92 20.2 74.96 23.76 69.82 25.69 67.66 23.79 67.66 23.79" style="fill: #4e4b4a; fill-rule: evenodd;"/>
          <polygon points="79.78 19.62 80.48 22.45 79.1 24.71 77.32 22.46 78.29 19.04 79.78 19.62 79.78 19.62" style="fill: #4e4b4a; fill-rule: evenodd;"/>
          <polygon points="85.89 22.65 87.48 21.01 88.63 21.74 89.4 23.85 86.38 24.21 85.89 22.65 85.89 22.65" style="fill: #88817c; fill-rule: evenodd;"/>
          <polygon points="95 25.72 96.59 24.07 99.02 24.5 98.5 26.92 95.48 27.27 95 25.72 95 25.72" style="fill: #4e4b4a; fill-rule: evenodd;"/>
          <polygon points="77.46 16.35 79.04 14.69 81.48 15.1 80.98 17.52 77.71 17.13 77.46 16.35 77.46 16.35" style="fill: #a09996; fill-rule: evenodd;"/>
          <polygon points="81.97 18.02 80.31 19.59 81.16 21.48 83.13 21.54 82.76 19.64 81.97 18.02 81.97 18.02" style="fill: #88817c; fill-rule: evenodd;"/>
          <polygon points="77.38 27.92 77.39 26.8 78.59 25.27 76.17 25.7 75.78 28.32 77.38 27.92 77.38 27.92" style="fill: #88817c; fill-rule: evenodd;"/>
          <polygon points="95.33 26.01 93.67 27.59 94.07 30.02 95.74 27.82 96.89 26.51 95.33 26.01 95.33 26.01" style="fill: #88817c; fill-rule: evenodd;"/>
          <polygon points="72.32 22.59 70.07 22.13 68.3 23.85 70.09 25.55 72.79 24.15 72.32 22.59 72.32 22.59" style="fill: #88817c; fill-rule: evenodd;"/>
          <polygon points="71.14 28.02 72.8 26.65 72.4 24.53 69.98 24.96 69.59 27.58 71.14 28.02 71.14 28.02" style="fill: #a09996; fill-rule: evenodd;"/>
          <polygon points="66.35 25 65.27 26.03 65.53 27.62 67.11 27.29 67.36 25.33 66.35 25 66.35 25" style="fill: #a09996; fill-rule: evenodd;"/>
          <polygon points="83.49 27.2 83.95 25.9 83.04 24.87 81.85 25.9 82.5 27.47 83.49 27.2 83.49 27.2" style="fill: #a09996; fill-rule: evenodd;"/>
          <polygon points="83.2 18.07 84.44 17.52 84.5 16.3 82.92 16.23 82.3 17.63 83.2 18.07 83.2 18.07" style="fill: #a09996; fill-rule: evenodd;"/>
          <polygon points="68.39 29.68 68.57 28.34 67.57 27.65 66.68 28.95 67.53 30.21 68.39 29.68 68.39 29.68" style="fill: #a09996; fill-rule: evenodd;"/>
          <polygon points="86.66 30.75 87.79 31.5 88.84 30.89 88.06 29.53 86.55 29.75 86.66 30.75 86.66 30.75" style="fill: #a09996; fill-rule: evenodd;"/>
          <polygon points="94.79 25.07 96.52 24.3 96.6 22.59 94.39 22.49 93.51 24.45 94.79 25.07 94.79 25.07" style="fill: #a09996; fill-rule: evenodd;"/>
        </g>
      </g>
      <rect x="147.58" y="7.44" width="54.52" height="23.42" style="fill: #bec9ce;"/>
      <rect x="147.58" y="7.44" width="15" height="23.45" style="fill: #dae1e5;"/>
      <path d="M215.62,34.54c-.29,3.8-.76,8.14-1.51,12.35-.46,2.59-1.03,5.12-1.73,7.45-.97,3.22-2.19,6.05-3.73,8.04H37.24c-4.39,0-11.55-7.13-18.57-15.49-3.28-3.9-6.57-8.48-9.48-12.47C5.37,29.21,2.29,24.75.38,22.08c-.67-.94.05-2.24,1.2-2.24h36.69c2.07,0,4.08.69,5.72,1.97,3.76,2.94,7.96,5.21,12.41,6.74,4.45,1.53,9.15,2.33,13.93,2.33h84.12c1.68,0,3.28-.73,4.37-2l3.8-4.4c.65-.76,1.61-1.19,2.61-1.19h50.89s0,4.85-.49,11.26Z" style="fill: #58534f;"/>
      <path d="M216.21,62.38c0,1.2-.49,2.28-1.27,3.07-.78.78-1.87,1.27-3.07,1.27H36.07c-2.39,0-4.33-1.94-4.33-4.33,0-.73.18-1.42.5-2.02.2-.39.47-.74.77-1.05.78-.78,1.87-1.27,3.06-1.27h175.81c2.4,0,4.34,1.94,4.34,4.34Z" style="fill: #202525;"/>
      <path d="M215.09,40.1l-201.05,1.01C10.22,35.89,2.12,24.69.38,22.08c-.64-.96.05-2.24,1.2-2.24h36.69c2.07,0,4.08.69,5.72,1.97,3.76,2.94,7.96,5.21,12.41,6.74,4.45,1.53,9.15,2.33,13.93,2.33h84.12c1.21,0,2.37-.38,3.34-1.06.03-.02.06-.04.08-.06.13-.1.26-.2.38-.31.12-.1.23-.21.34-.32.08-.08.16-.17.23-.25l.91-1.05.27-.31,1.4-1.62.27-.31.96-1.11c.65-.76,1.61-1.19,2.61-1.19h50.89s-.52,10.41-1.02,16.82Z" style="fill: #dae1e5;"/>
      <g>
        <path d="M17.08,27.28v.63c0,.85-.31,1.54-.69,1.54h-3.09c-.07,0-.14-.02-.21-.07-.28-.2-.48-.78-.48-1.47v-.63c0-.85.31-1.54.69-1.54h3.09c.26,0,.49.33.61.82.05.22.08.46.08.72Z" style="fill: #777471;"/>
        <path d="M17.08,27.28v.63c0,.85-.31,1.54-.69,1.54h-3.09c-.07,0-.14-.02-.21-.07-.05-.22-.08-.46-.08-.72v-.63c0-.85.31-1.54.69-1.54h3.09c.07,0,.14.02.21.07.05.22.08.46.08.72Z" style="fill: #4d4b4a; opacity: .25;"/>
      </g>
      <g>
        <path d="M152.72,6.29h4.23c.46,0,.84.37.84.84v11.73c0,.46-.38.84-.84.84h-4.23c-.46,0-.84-.37-.84-.84V7.13c0-.46.37-.84.84-.84Z" transform="translate(167.83 -141.84) rotate(90)" style="fill: #fde0d0;"/>
        <path d="M148.97,10.32h11.73c.31,0,.56.25.56.56v4.23c0,.31-.25.56-.56.56h-11.73c-.31,0-.56-.25-.56-.56v-4.23c0-.31.25-.56.56-.56Z" style="fill: #77a1b6;"/>
        <rect x="149.94" y="10.32" width=".35" height="5.36" style="fill: #fde0d0;"/>
        <rect x="153.72" y="10.32" width=".35" height="5.36" style="fill: #fde0d0;"/>
        <rect x="157.49" y="10.32" width=".35" height="5.36" style="fill: #fde0d0;"/>
      </g>
      <g>
        <path d="M152.72,13.64h4.23c.46,0,.84.38.84.84v11.73c0,.46-.38.84-.84.84h-4.23c-.46,0-.84-.38-.84-.84v-11.73c0-.46.37-.84.84-.84Z" transform="translate(175.17 -134.49) rotate(90)" style="fill: #fde0d0;"/>
        <rect x="148.41" y="17.66" width="12.85" height="5.36" rx=".56" ry=".56" style="fill: #77a1b6;"/>
        <rect x="149.94" y="17.66" width=".35" height="5.36" style="fill: #fde0d0;"/>
        <rect x="153.72" y="17.66" width=".35" height="5.36" style="fill: #fde0d0;"/>
        <rect x="157.49" y="17.66" width=".35" height="5.36" style="fill: #fde0d0;"/>
      </g>
      <g>
        <path d="M166.85,10.44h.97c.37,0,.67.3.67.67v3.78c0,.37-.3.66-.66.66h-.97c-.37,0-.67-.3-.67-.67v-3.78c0-.37.3-.66.66-.66Z" style="fill: #1d6385;"/>
        <path d="M179.27,10.44h.97c.37,0,.67.3.67.67v3.78c0,.37-.3.67-.67.67h-.97c-.37,0-.67-.3-.67-.67v-3.78c0-.37.3-.67.67-.67Z" style="fill: #1d6385;"/>
        <path d="M191.68,10.44h.97c.37,0,.67.3.67.67v3.78c0,.37-.3.67-.67.67h-.97c-.37,0-.67-.3-.67-.67v-3.78c0-.37.3-.67.67-.67Z" style="fill: #1d6385;"/>
      </g>
      <g>
        <path d="M166.85,17.78h.97c.37,0,.67.3.67.67v3.79c0,.37-.3.66-.66.66h-.97c-.37,0-.67-.3-.67-.67v-3.79c0-.37.3-.66.66-.66Z" style="fill: #1d6385;"/>
        <path d="M179.27,17.78h.97c.37,0,.67.3.67.67v3.78c0,.37-.3.67-.67.67h-.97c-.37,0-.67-.3-.67-.67v-3.78c0-.37.3-.67.67-.67Z" style="fill: #1d6385;"/>
        <rect x="191.01" y="17.78" width="2.31" height="5.12" rx=".67" ry=".67" style="fill: #1d6385;"/>
      </g>
      <g>
        <path d="M166.86,10.44h.45c.37,0,.67.3.67.67v3.78c0,.37-.3.66-.66.66h-.45c-.37,0-.67-.3-.67-.67v-3.78c0-.37.3-.67.67-.67Z" style="fill: #77a1b6;"/>
        <path d="M179.27,10.44h.45c.37,0,.67.3.67.67v3.78c0,.37-.3.67-.67.67h-.45c-.37,0-.67-.3-.67-.67v-3.78c0-.37.3-.67.67-.67Z" style="fill: #77a1b6;"/>
        <rect x="191.01" y="10.44" width="1.78" height="5.11" rx=".67" ry=".67" style="fill: #77a1b6;"/>
      </g>
      <g>
        <path d="M166.86,17.78h.45c.37,0,.67.3.67.67v3.78c0,.37-.3.66-.66.66h-.45c-.37,0-.67-.3-.67-.67v-3.78c0-.37.3-.67.67-.67Z" style="fill: #77a1b6;"/>
        <path d="M179.27,17.78h.45c.37,0,.67.3.67.67v3.78c0,.37-.3.67-.67.67h-.45c-.37,0-.67-.3-.67-.67v-3.78c0-.37.3-.67.67-.67Z" style="fill: #77a1b6;"/>
        <rect x="191.01" y="17.78" width="1.78" height="5.12" rx=".67" ry=".67" style="fill: #77a1b6;"/>
      </g>
      <path d="M203.13,8.15c0,.19-.08.37-.21.5-.13.13-.3.21-.5.21h-55.18c-.39,0-.71-.31-.71-.71,0-.19.08-.37.21-.5.13-.13.3-.21.5-.21h55.18c.39,0,.7.32.7.7Z" style="fill: #9bacb2;"/>
      <path d="M163.69,8.15c0,.19-.08.37-.21.5-.13.13-.3.21-.5.21h-15.81c-.39,0-.71-.31-.71-.71,0-.19.08-.37.21-.5.13-.13.3-.21.5-.21h15.81c.39,0,.7.32.7.7Z" style="fill: #e9eff2;"/>
      <path d="M214.11,46.89c-.72,4.04-1.7,7.97-3.04,11.16H36.07c-1.2,0-2.28.49-3.06,1.27-.31.31-.57.66-.77,1.05-3.99-2.69-8.82-7.79-13.55-13.47h195.44Z" style="fill: #0b3043; opacity: .25;"/>
      <path d="M216.21,62.38H31.73c0-.73.18-1.42.5-2.02.2-.39.47-.74.77-1.05.78-.78,1.87-1.27,3.06-1.27h175.81c2.4,0,4.34,1.94,4.34,4.34Z" style="fill: #373438;"/>
      <path d="M215.62,34.54c-.29,3.8-.76,8.14-1.51,12.35-.72,4.05-1.7,7.97-3.04,11.16h-32.95c8.64-12.79,10.13-27.13,10.22-34.77h27.76s0,4.85-.49,11.26Z" style="fill: #0b3043; opacity: .25;"/>
      <path d="M216.21,62.38c0,1.2-.49,2.28-1.27,3.07-.78.78-1.87,1.27-3.07,1.27h-34.53c3.22-4.54.78-8.67.78-8.67h33.75c2.4,0,4.34,1.94,4.34,4.34Z" style="fill: #252525; opacity: .25;"/>
      <path d="M212.25,54.19c-.39,1.31-.83,2.56-1.31,3.71H35.94c-1.2,0-2.28.49-3.06,1.27-.31.31-.57.66-.77,1.05-3.99-2.69-8.82-7.78-13.55-13.48-3.35-4.03-6.66-8.36-9.58-12.35C5.15,29.18,1.99,24.55.25,21.93c-.64-.96.05-2.24,1.2-2.24h12.04c1.87,4.84,5.64,11.91,12.98,18.29,8.35,7.26,18.94,11.42,29.99,11.97,71.07,3.53,136.56,4.13,155.8,4.24Z" style="fill: #fff; opacity: .15;"/>
      <path d="M162.58,9.76h25.32c7.52,0,13.66,6.01,13.83,13.53h.37v-14.44h-39.52v.91Z" style="fill: #a1b1b7;"/>
      <g>
        <polygon points="161.65 25.59 161.38 25.9 69.04 25.9 69.04 25.59 161.65 25.59" style="fill: #333;"/>
        <polygon points="159.98 27.52 159.72 27.83 69.04 27.83 69.04 27.52 159.98 27.52" style="fill: #333;"/>
        <path d="M158.24,29.45c-.12.11-.25.21-.38.31h-88.82v-.31h89.2Z" style="fill: #333;"/>
        <g>
          <rect x="69.04" y="24.17" width=".8" height="6.69" style="fill: #333;"/>
          <rect x="86.78" y="24.17" width=".81" height="6.69" style="fill: #333;"/>
          <rect x="104.53" y="24.17" width=".8" height="6.69" style="fill: #333;"/>
          <rect x="122.28" y="24.17" width=".81" height="6.69" style="fill: #333;"/>
          <rect x="140.03" y="24.17" width=".8" height="6.69" style="fill: #333;"/>
          <path d="M158.58,24.17v4.95c-.11.11-.22.22-.34.32-.12.11-.25.21-.38.31-.03.02-.06.04-.08.06v-5.64h.8Z" style="fill: #333;"/>
        </g>
      </g>
      <g style="opacity: .8;">
        <g>
          <path d="M28.86,27.39c-.05.01-.11.02-.16.04-.34-.07-.51-.29-.87-.28-.23,0-.36.07-.39.31-.06.43-.04.85-.18,1.26,0,0,0,.03,0,.03-.07.07-.28.18-.35.25-.04,0-.09,0-.13,0-.15-.54.06-1.07.04-1.61.02-.11-.03-.15-.13-.14-.34.04-.69.05-.97.3-.11.1-.24.24-.39.09-.16-.16-.14-.37,0-.52.17-.17.16-.35.18-.6.01-.11.02-.19-.05-.29-.22-.29,0-.37.22-.38.29-.02.59-.01.88.02.34.03.48-.1.46-.43,0-.11,0-.23,0-.34,0-.16-.02-.35.19-.42.22-.06.44-.03.6.14.15.16.1.33-.01.49-.04.05-.06.11-.08.17-.12.34-.05.44.3.37.34-.08.72-.09.99-.38.09-.09.21-.07.32-.09.02.01.03.02.06.01.09.14.1.29.09.45-.16.19-.43.28-.48.56-.19.17-.26.37-.12.6.08.14.06.26,0,.39ZM27.78,26.9c.41,0,.68-.23.67-.58,0-.16-.12-.13-.22-.13-.57,0-.83.16-.82.49,0,.3.24.19.37.22ZM26.49,26.3c-.35,0-.63.25-.62.52,0,.17.13.16.25.16.51,0,.78-.15.78-.43,0-.32-.27-.19-.4-.24Z" style="fill: #131214;"/>
          <path d="M36.9,25.98c-.04.06-.09.13-.13.19-.41.51-.24,1.32-.23,1.95,0,.31-.07.45-.38.48-.13-.22-.84-.09-.96-.07-.11-.03-.53-.09-.68.01-.06.05-.23.05-.29.1-.06,0-.12,0-.19.01-.01-.2-.02-.39.05-.6.21-.67.18-1.35-.04-2.08.07-.07.16-.1.26-.11.34.15.58.01.77-.27.11-.04.17-.12.09-.23-.19-.3-.15-.39.21-.44.05,0,.1,0,.15,0,.08.02.16.04.24.06.07.2.34.31.24.58-.1.09-.26.14-.28.33.26.01.46-.08.65-.21.08,0,.15-.01.23-.02.05.02.11.03.16.05.04.09.08.18.12.27ZM35.88,28.02c.25-.21.09-.73.05-.98-.03-.15-.31.03-.49,0-.09-.01-.18,0-.27.01-.15.01-.31.01-.45.05-.11.03-.23.1-.2.24.03.13.16.09.26.09.22,0,.43-.02.65-.02.13,0,.27.01.22.21-.38.07-.49.13-.87.14-.15,0-.26.08-.25.23.01.15.16.29.24.28.43-.06.72-.04,1.12-.25ZM35.29,26.74h0c.2,0,.41,0,.61-.01.15,0,.22-.11.25-.25.02-.11-.03-.18-.13-.19-.44-.04-.87.01-1.27.19-.07.03-.13.1-.11.18.03.1.12.08.19.08.15,0,.31,0,.46,0Z" style="fill: #131214;"/>
          <g>
            <path d="M38.61,25.17s.07-.1.1-.15c.08-.02.16-.05.24-.07.08,0,.16,0,.24,0,.06.02.11.03.17.05.01.04.03.09.04.13-.06.09-.07.19-.06.3h0c-.24.13-.12.36-.15.54-.04.07.08.12.04.2-.11.06-.1.12,0,.17.12.03.23,0,.35-.03.08,0,.15-.01.23-.02.12.05.05-.19.11-.26.1-.04.17-.16.31-.09.09.14.03.28.01.42,0,.02-.01.04-.03.06-.16.07-.07.34-.06.49-.02.04-.03.07-.05.11-.36.36-.35,1.07-.36,1.55-.05.01-.16,0-.21.02-.11-.1-.23-.17-.38-.11-.67.02-1.15-.12-1.76.18-.18-.27-.05-.52.03-.78.12-.09.03-.19.05-.35.11-.09.09-.23.12-.35.07-.29-.15-.5-.15-.77.14-.09.29-.12.45-.13.03.02.05.03.08.05.02.08.04.16.16.14.21-.07.42-.14.63-.21.1-.04-.04-.09-.06-.19,0-.03.01-.06.02-.1.16-.17.27-.35.05-.56l-.02-.02c-.04-.08-.08-.16-.12-.24ZM39.35,27.91s0-.03,0-.03c.05-.03.1-.05.15-.08h.01s-.01,0-.01,0c.01-.1.03-.21.04-.31.09-.04.09-.09.03-.16.04-.13.08-.27.13-.4.03-.07.11-.14.05-.21-.06-.09-.16-.03-.25-.01-.09.02-.18.03-.26.06-.14.05-.25.16-.25.31-.01.2.18.13.28.18,0,.08,0,.16,0,.25,0,.02-.01.04-.01.06-.07.01-.15.02-.22.04-.11.03-.24.06-.21.21.02.13.16.07.25.1.04,0,.07.02.11.03.07.1.13.07.17-.03ZM38.42,27.88l.06-.06s0-.06.01-.09c.09-.14,0-.14-.1-.14-.16.04-.33.07-.48.12-.11.03-.25.1-.24.22.02.16.19.07.29.08.17.02.33-.04.47-.13ZM38.1,27.37c.2-.05.47-.02.51-.34.01-.1-.03-.16-.13-.13-.22.07-.44.15-.54.37-.05.11.08.09.16.09Z" style="fill: #131214;"/>
            <path d="M39.72,28.58c.08-.47.12-1.2.36-1.55-.15.43-.22,1.12-.3,1.56-.02,0-.04,0-.06-.02Z" style="fill: #2e2720;"/>
            <path d="M39.13,28.49c.16-.06.27.01.38.11-.05.01-.1.02-.15.03-.08-.05-.16-.09-.23-.14Z" style="fill: #2e2720;"/>
            <path d="M40.23,26.37c.01-.14.07-.28-.01-.42.27.09.27.13.01.42Z" style="fill: #2e2720;"/>
            <path d="M39.33,25.82c-.05.05-.1.11-.15.16.03-.19-.09-.41.15-.54,0,.1.01.21.02.31-.02.02-.02.04-.02.07Z" style="fill: #2e2720;"/>
            <path d="M40.13,26.92c0-.16-.1-.43.06-.49-.03.14.05.4-.06.49Z" style="fill: #2e2720;"/>
            <path d="M38.7,25.99c.02-.19.03-.37.05-.56.22.21.11.38-.05.56Z" style="fill: #2e2720;"/>
            <path d="M39.26,27.26c.1.02.2.05.3.07.07.07.06.12-.03.16-.09,0-.18.01-.27.02,0-.08,0-.16,0-.25Z" style="fill: #2e2720;"/>
            <path d="M39.18,27.93c.06,0,.11-.02.17-.03-.04.1-.1.13-.17.03Z" style="fill: #2e2720;"/>
            <path d="M37.96,26.34c.08.02.13.07.16.14-.11.02-.13-.06-.16-.14Z" style="fill: #736e6c;"/>
            <path d="M39.22,26.18c0,.06,0,.11,0,.17-.1-.05-.11-.11,0-.17Z" style="fill: #2e2720;"/>
            <path d="M38.74,26.27c0-.08-.13-.13-.06-.19.02.1.16.15.06.19Z" style="fill: #2e2720;"/>
            <path d="M38.48,27.73s-.07-.09-.1-.14c.1,0,.19,0,.1.14Z" style="fill: #2e2720;"/>
            <path d="M38.42,27.88s.04-.04.06-.06c-.02.02-.04.04-.06.06Z" style="fill: #2e2720;"/>
            <polygon points="39.5 27.8 39.51 27.81 39.5 27.8 39.5 27.8" style="fill: #7f7774;"/>
          </g>
          <g>
            <path d="M31.36,25.77s.06-.04.1-.06c.13.05.26.1.39.16.23.05.46.07.69.03.18.03.32-.07.47-.14.09-.04.18-.07.27-.11.39.08.27.35.17.56-.22.44-.26.9-.3,1.37-.02.26.09.53.01.8-.02.02-.04.05-.06.07-.09-.03-.18-.07-.2-.16-.07-.33-.29-.34-.55-.29-.23.04-.47.09-.7.13-.2-.27,0-.35.2-.44.1-.02.17-.08.22-.18.09-.05.17-.11.26-.16.02.11-.02.2-.07.29,0,.05,0,.11.07.11.02,0,.05-.05.08-.07.08-.03.13-.09.16-.17.14-.05.33-.04.36-.25.05-.21-.08-.28-.25-.29-.19,0-.24.11-.21.28-.04.02-.07.03-.11.05-.15-.01-.1-.25-.26-.25-.17.04-.34.12-.52.08,0,0-.02-.01-.02-.01v.02c.05.15-.03.27-.04.41-.07.04-.13.08-.2.12-.02-.07-.04-.14-.12-.17,0-.05.01-.1.02-.15.14-.25.09-.52.12-.78,0-.08-.06-.2-.11-.14-.27.29-.7.04-.95.31-.06.05-.07.12-.04.19.03,0,.05.01.08.02.02.02.03.03.05.04.04.17.18.15.31.17.13.02.3,0,.31.21-.09,0-.17,0-.26.01-.09.01-.2.04-.2.13,0,.15.14.08.23.09.04,0,.07,0,.11-.01.11.32-.27.25-.35.39.42.34.51-.18.76-.26.1.21-.04.39-.07.59-.02.02-.04.05-.06.07-.45-.14-.9-.12-1.35-.03-.15.03-.33.14-.41-.11.03-.02.05-.04.08-.06.21.05.31-.14.46-.21.16-.07.26-.19.22-.35-.05-.17-.23-.11-.36-.11-.12-.12-.05-.22.04-.32.15-.09.2-.22.14-.38-.11-.18-.23-.08-.36-.02-.14.07-.32.25-.43.08-.1-.16.07-.44.22-.46.59-.08.81-.5,1.02-.95.1,0,.19,0,.29,0,.03.05.1.11.1.16,0,.15,0,.26.2.28.17.02.33.07.4-.15ZM32.5,26.7c.2.1.41.25.57-.05.01-.09,0-.18.04-.26.15-.35-.01-.37-.29-.29-.22.07-.45.2-.66.17-.45-.06-.37.31-.54.48.08.01.12-.01.15-.05.15-.16.28-.49.47-.02.03.08.16.04.25.01ZM30.83,26.28c-.19-.07-.38-.07-.57,0-.02,0-.03.09-.02.1.2.08.39.08.57-.04,0,0,0-.02.02-.06Z" style="fill: #131214;"/>
            <path d="M29.35,28.24c.08.25.26.13.41.11.45-.09.9-.11,1.35.03-.04.07-.11.14-.18.11-.54-.19-1.05-.05-1.57.08-.06.01-.13,0-.19-.01,0-.02,0-.04,0-.05,0-.05.01-.1.02-.15.06-.04.12-.08.17-.12Z" style="fill: #2e2720;"/>
            <path d="M29.74,27.52c.13,0,.31-.06.36.11.05.16-.06.28-.22.35-.15.07-.25.26-.46.21-.05-.3.14-.47.32-.66Z" style="fill: #2e2720;"/>
            <path d="M29.93,26.82c.06.17.01.29-.14.38,0-.14.05-.27.14-.38Z" style="fill: #2e2720;"/>
            <path d="M31.29,27.67c.07-.04.13-.08.2-.12.12.03.27-.01.35.13-.19.09-.4.17-.2.44-.16.07-.35.05-.48.19.02-.2.17-.38.07-.59.02-.02.04-.04.06-.05Z" style="fill: #2e2720;"/>
            <path d="M32.35,28c.26-.05.49-.04.55.29.02.09.11.13.2.16-.06.1-.16.08-.25.1-.09-.25-.24-.46-.51-.55Z" style="fill: #2e2720;"/>
            <path d="M29.15,28.51s.01.03,0,.05c-.03.02-.07.09-.1.02-.02-.05.05-.06.09-.07Z" style="fill: #736e6c;"/>
            <path d="M33.44,25.52c.06,0,.11.01.17.02.1.07.12.18.13.28-.17.44-.39.86-.42,1.34-.02.28-.1.55.06.82-.02.16-.05.32-.21.41.08-.27-.03-.53-.01-.8.04-.47.08-.94.3-1.37.11-.21.23-.47-.17-.56.01-.03.03-.06.04-.09.04-.01.08-.03.12-.04Z" style="fill: #2e2720;"/>
            <path d="M30.24,26.74c.16.11.34.06.51.06.07,0,.17-.02.18.09,0,.1-.09.11-.16.13-.15.05-.3,0-.45-.03-.02-.01-.04-.03-.05-.04-.03,0-.05-.01-.08-.02-.03-.07-.02-.14.04-.19Z" style="fill: #2e2720;"/>
            <path d="M32.5,26.7s.02-.07.03-.11c.08,0,.16,0,.24,0,.09.08.19.09.3.06-.17.3-.37.15-.57.05Z" style="fill: #2e2720;"/>
            <path d="M32.33,27.3s0,.03-.02.05c-.09.05-.17.11-.26.16,0-.15,0-.3.01-.46.16,0,.11.23.26.25Z" style="fill: #2e2720;"/>
            <path d="M32.55,27.51c0-.05,0-.1,0-.15.12-.03.24-.07.36-.1-.03.21-.22.2-.36.25Z" style="fill: #2e2720;"/>
            <path d="M32.24,27.64s.09.03.14.04c-.03.03-.05.07-.08.07-.07,0-.07-.06-.07-.11Z" style="fill: #2e2720;"/>
            <path d="M30.2,26.93s.05.01.08.02c-.03,0-.05-.01-.08-.02Z" style="fill: #656363;"/>
            <polygon points="31.55 27.14 31.53 27.12 31.55 27.14 31.55 27.14" style="fill: #2e2720;"/>
            <path d="M32.77,26.59c-.08,0-.16,0-.24,0,.01-.11.04-.21.18-.19.1.02.08.11.06.18Z" style="fill: #131214;"/>
          </g>
        </g>
      </g>
      <rect x="26.07" y="64.37" width="194.19" height="7.6" rx="3.74" ry="3.74" style="opacity: .2;"/>
    </g>
  </g>
</svg>