<?xml version="1.0" encoding="UTF-8"?>
<svg id="uuid-1fa19098-0adf-448d-9c25-4946317a4bed" data-name="圖層 2" xmlns="http://www.w3.org/2000/svg" viewBox="0 0 543 668">
  <g>
    <rect x="14.34" y="609.07" width="214.79" height="44.88" transform="translate(243.47 1263.03) rotate(180)" style="fill: none; stroke: #aa3535; stroke-linecap: round; stroke-linejoin: round; stroke-width: 28.09px;"/>
    <rect x="14.34" y="14.04" width="504.13" height="140.84" transform="translate(532.8 168.93) rotate(180)" style="fill: none; stroke: #aa3535; stroke-linecap: round; stroke-linejoin: round; stroke-width: 28.09px;"/>
    <rect x="-140.08" y="332.21" width="523.64" height="83.35" transform="translate(-252.15 495.62) rotate(-90)" style="fill: none; stroke: #aa3535; stroke-linecap: round; stroke-linejoin: round; stroke-width: 28.09px;"/>
  </g>
  <g>
    <rect x="15.44" y="608.59" width="214.79" height="44.88" transform="translate(245.67 1262.05) rotate(180)" style="fill: #cd4d4d;"/>
    <rect x="15.44" y="13.56" width="504.13" height="140.84" transform="translate(535 167.95) rotate(180)" style="fill: #cd4d4d;"/>
    <rect x="-138.98" y="331.72" width="523.64" height="83.35" transform="translate(-250.56 496.23) rotate(-90)" style="fill: #cd4d4d;"/>
  </g>
  <g>
    <rect x="305.04" y="154.89" width="125.64" height="282.45" transform="translate(735.71 592.22) rotate(180)" style="fill: #e4e4e4;"/>
    <rect x="305.04" y="154.89" width="125.64" height="282.45" transform="translate(735.71 592.22) rotate(180)" style="fill: none; stroke: #c4c4c4; stroke-linecap: round; stroke-linejoin: round; stroke-width: 28.09px;"/>
    <path d="M305.04,180.56h125.64v25.68h-125.64v-25.68ZM305.04,231.92h125.64v25.68h-125.64v-25.68ZM305.04,283.27h125.64v25.68h-125.64v-25.68ZM305.04,334.62h125.64v25.68h-125.64v-25.68ZM305.04,385.98h125.64v25.68h-125.64v-25.68Z" style="fill: #686868;"/>
  </g>
</svg>