<?xml version="1.0" encoding="UTF-8"?>
<svg id="uuid-4b3101ef-422b-497d-9a19-7356d15d7a85" data-name="圖層 2" xmlns="http://www.w3.org/2000/svg" viewBox="0 0 543 668">
  <g>
    <rect x="303.44" y="14.04" width="214.79" height="44.88" style="fill: none; stroke: #aa3535; stroke-linecap: round; stroke-linejoin: round; stroke-width: 28.09px;"/>
    <rect x="14.11" y="513.11" width="504.13" height="140.84" style="fill: none; stroke: #aa3535; stroke-linecap: round; stroke-linejoin: round; stroke-width: 28.09px;"/>
    <rect x="149.02" y="252.44" width="523.64" height="83.35" transform="translate(704.95 -116.72) rotate(90)" style="fill: none; stroke: #aa3535; stroke-linecap: round; stroke-linejoin: round; stroke-width: 28.09px;"/>
  </g>
  <g>
    <rect x="302.34" y="14.53" width="214.79" height="44.88" style="fill: #cd4d4d;"/>
    <rect x="13" y="513.6" width="504.13" height="140.84" style="fill: #cd4d4d;"/>
    <rect x="147.91" y="252.93" width="523.64" height="83.35" transform="translate(704.34 -115.13) rotate(90)" style="fill: #cd4d4d;"/>
  </g>
  <g>
    <rect x="101.89" y="230.67" width="125.64" height="282.45" style="fill: #e4e4e4;"/>
    <rect x="101.89" y="230.67" width="125.64" height="282.45" style="fill: none; stroke: #c4c4c4; stroke-linecap: round; stroke-linejoin: round; stroke-width: 28.09px;"/>
    <path d="M227.53,513.11h-125.64v-25.68h125.64v25.68ZM227.53,461.76h-125.64v-25.68h125.64v25.68ZM227.53,410.41h-125.64v-25.68h125.64v25.68ZM227.53,359.05h-125.64v-25.68h125.64v25.68ZM227.53,307.7h-125.64v-25.68h125.64v25.68ZM227.53,256.34h-125.64v-25.68h125.64v25.68Z" style="fill: #686868;"/>
  </g>
</svg>