<?xml version="1.0" encoding="UTF-8"?>
<svg xmlns="http://www.w3.org/2000/svg" xmlns:xlink="http://www.w3.org/1999/xlink" viewBox="0 0 1360 860">
  <defs>
    <linearGradient id="_未命名漸層_86" data-name="未命名漸層 86" x1="698.71" y1="471.8" x2="1262.33" y2="397.95" gradientUnits="userSpaceOnUse">
      <stop offset="0" stop-color="#76bfe0"/>
      <stop offset="1" stop-color="#bde3f6"/>
    </linearGradient>
    <linearGradient id="_未命名漸層_28" data-name="未命名漸層 28" x1="1155.44" y1="373.03" x2="1377.05" y2="318.06" gradientUnits="userSpaceOnUse">
      <stop offset="0" stop-color="#84cbeb"/>
      <stop offset="1" stop-color="#58a1d0"/>
    </linearGradient>
    <radialGradient id="_未命名漸層_35" data-name="未命名漸層 35" cx="1206.58" cy="224.46" fx="1206.58" fy="224.46" r="15.89" gradientUnits="userSpaceOnUse">
      <stop offset="0" stop-color="#fff" stop-opacity="0"/>
      <stop offset="1" stop-color="#595757"/>
    </radialGradient>
    <linearGradient id="_未命名漸層_63" data-name="未命名漸層 63" x1="491.15" y1="301.94" x2="491.15" y2="321.98" gradientUnits="userSpaceOnUse">
      <stop offset="0" stop-color="#c9c9c9"/>
      <stop offset=".37" stop-color="#afafaf"/>
      <stop offset=".74" stop-color="#9b9b9b"/>
      <stop offset="1" stop-color="#949494"/>
    </linearGradient>
    <linearGradient id="_未命名漸層_97" data-name="未命名漸層 97" x1="491.15" y1="335.61" x2="491.15" y2="320.91" gradientUnits="userSpaceOnUse">
      <stop offset="0" stop-color="#c9c9c9"/>
      <stop offset="1" stop-color="#757575"/>
    </linearGradient>
    <linearGradient id="_未命名漸層_63-2" data-name="未命名漸層 63" x1="491.15" y1="4522.72" x2="491.15" y2="4542.75" gradientTransform="translate(0 4778.47) scale(1 -1)" xlink:href="#_未命名漸層_63"/>
    <linearGradient id="_未命名漸層_97-2" data-name="未命名漸層 97" x1="491.15" y1="4556.39" x2="491.15" y2="4541.68" gradientTransform="translate(0 4778.47) scale(1 -1)" xlink:href="#_未命名漸層_97"/>
    <clipPath id="clippath">
      <polygon points="182.39 635.35 566.24 633.55 556.51 697.08 163.05 699.59 182.39 635.35" style="clip-rule: evenodd; fill: none;"/>
    </clipPath>
    <linearGradient id="_未命名漸層_54" data-name="未命名漸層 54" x1="-14204.02" y1="630.47" x2="-14204.02" y2="697.08" gradientTransform="translate(-13950.71) rotate(-180) scale(1 -1)" gradientUnits="userSpaceOnUse">
      <stop offset="0" stop-color="#a09996"/>
      <stop offset=".2" stop-color="#938c89"/>
      <stop offset=".56" stop-color="#726b69"/>
      <stop offset="1" stop-color="#423b39"/>
    </linearGradient>
    <linearGradient id="linear-gradient" x1="-14134.33" y1="649.52" x2="-14147.99" y2="674.27" gradientTransform="translate(-13950.71) rotate(-180) scale(1 -1)" gradientUnits="userSpaceOnUse">
      <stop offset="0" stop-color="#625d5b" stop-opacity="0"/>
      <stop offset=".26" stop-color="#5b5654" stop-opacity=".19"/>
      <stop offset=".74" stop-color="#4c4543" stop-opacity=".68"/>
      <stop offset="1" stop-color="#423b39"/>
    </linearGradient>
    <linearGradient id="linear-gradient-2" x1="-14205.83" y1="716.15" x2="-14205.83" y2="694.42" xlink:href="#linear-gradient"/>
    <clipPath id="clippath-1">
      <polygon points="615.79 639.13 1072.47 640.39 1056.18 697.26 598.73 695.79 615.79 639.13" style="clip-rule: evenodd; fill: none;"/>
    </clipPath>
    <linearGradient id="_未命名漸層_81" data-name="未命名漸層 81" x1="-14634.71" y1="632.1" x2="-14634.71" y2="698.71" gradientTransform="translate(-13950.71) rotate(-180) scale(1 -1)" gradientUnits="userSpaceOnUse">
      <stop offset="0" stop-color="#b76769"/>
      <stop offset=".2" stop-color="#aa5c5e"/>
      <stop offset=".56" stop-color="#894043"/>
      <stop offset="1" stop-color="#5a191c"/>
    </linearGradient>
    <linearGradient id="linear-gradient-3" x1="-14565.02" y1="651.15" x2="-14578.68" y2="675.9" gradientTransform="translate(-13950.71) rotate(-180) scale(1 -1)" gradientUnits="userSpaceOnUse">
      <stop offset="0" stop-color="#78252a" stop-opacity="0"/>
      <stop offset=".2" stop-color="#732328" stop-opacity=".14"/>
      <stop offset=".58" stop-color="#681e22" stop-opacity=".5"/>
      <stop offset="1" stop-color="#5a191c"/>
    </linearGradient>
    <linearGradient id="linear-gradient-4" x1="-14636.51" y1="717.78" x2="-14636.51" y2="696.05" xlink:href="#linear-gradient-3"/>
    <linearGradient id="_未命名漸層_83" data-name="未命名漸層 83" x1="-266.62" y1="633.88" x2="-266.62" y2="700.48" gradientTransform="translate(1237.13)" gradientUnits="userSpaceOnUse">
      <stop offset="0" stop-color="#dcd6d6"/>
      <stop offset=".2" stop-color="#d0c9c9"/>
      <stop offset=".58" stop-color="#b0a8a8"/>
      <stop offset="1" stop-color="#867c7c"/>
    </linearGradient>
    <linearGradient id="linear-gradient-5" x1="-196.94" y1="652.93" x2="-210.59" y2="677.68" gradientTransform="translate(1237.13)" gradientUnits="userSpaceOnUse">
      <stop offset="0" stop-color="#a69d9e" stop-opacity="0"/>
      <stop offset=".15" stop-color="#a3999a" stop-opacity=".09"/>
      <stop offset=".42" stop-color="#9b9192" stop-opacity=".34"/>
      <stop offset=".78" stop-color="#8e8485" stop-opacity=".73"/>
      <stop offset="1" stop-color="#867c7c"/>
    </linearGradient>
    <linearGradient id="linear-gradient-6" x1="-268.43" y1="719.56" x2="-268.43" y2="697.83" xlink:href="#linear-gradient-5"/>
    <clipPath id="clippath-2">
      <polygon points="269.84 109.56 684.58 109.56 683.22 161.24 275.86 160.21 269.84 109.56" style="clip-rule: evenodd; fill: none;"/>
    </clipPath>
    <linearGradient id="_未命名漸層_81-2" data-name="未命名漸層 81" x1="-14305.41" y1="106.91" x2="-14305.41" y2="161.11" xlink:href="#_未命名漸層_81"/>
    <linearGradient id="linear-gradient-7" x1="-14248.7" y1="122.41" x2="-14259.81" y2="142.55" xlink:href="#linear-gradient-3"/>
    <linearGradient id="linear-gradient-8" x1="-14306.88" y1="176.63" x2="-14306.88" y2="158.94" xlink:href="#linear-gradient-3"/>
    <linearGradient id="_未命名漸層_81-3" data-name="未命名漸層 81" x1="260.98" y1="106.91" x2="260.98" y2="161.11" gradientTransform="translate(349.73)" xlink:href="#_未命名漸層_81"/>
    <linearGradient id="linear-gradient-9" x1="317.68" y1="122.41" x2="306.57" y2="142.55" gradientTransform="translate(349.73)" xlink:href="#linear-gradient-3"/>
    <linearGradient id="linear-gradient-10" x1="259.51" y1="176.63" x2="259.51" y2="158.94" gradientTransform="translate(349.73)" xlink:href="#linear-gradient-3"/>
    <clipPath id="clippath-3">
      <polygon points="673.52 773.89 1039.1 772.69 1020.32 809.79 655.02 809.79 673.52 773.89" style="clip-rule: evenodd; fill: none;"/>
    </clipPath>
    <linearGradient id="_未命名漸層_62" data-name="未命名漸層 62" x1="139.89" y1="770.51" x2="139.89" y2="813" gradientTransform="translate(830.56)" gradientUnits="userSpaceOnUse">
      <stop offset="0" stop-color="#9e5456"/>
      <stop offset=".2" stop-color="#914b4d"/>
      <stop offset=".56" stop-color="#703335"/>
      <stop offset="1" stop-color="#401013"/>
    </linearGradient>
    <linearGradient id="linear-gradient-11" x1="262.39" y1="782.66" x2="253.68" y2="798.45" gradientTransform="translate(830.56)" gradientUnits="userSpaceOnUse">
      <stop offset="0" stop-color="#5f1a1e" stop-opacity="0"/>
      <stop offset=".27" stop-color="#58181b" stop-opacity=".19"/>
      <stop offset=".76" stop-color="#491216" stop-opacity=".71"/>
      <stop offset="1" stop-color="#401013"/>
    </linearGradient>
    <linearGradient id="linear-gradient-12" x1="216.78" y1="825.17" x2="216.78" y2="811.3" xlink:href="#linear-gradient-11"/>
    <clipPath id="clippath-4">
      <polygon points="268.62 764.21 549.41 765.89 534.45 812.18 254.7 810.45 268.62 764.21" style="clip-rule: evenodd; fill: none;"/>
    </clipPath>
    <linearGradient id="_未命名漸層_54-2" data-name="未命名漸層 54" x1="584.97" y1="763.87" x2="584.97" y2="812.35" gradientTransform="translate(-109.77)" xlink:href="#_未命名漸層_54"/>
    <linearGradient id="linear-gradient-13" x1="635.69" y1="777.74" x2="625.75" y2="795.75" gradientTransform="translate(-109.77)" xlink:href="#linear-gradient"/>
    <linearGradient id="linear-gradient-14" x1="583.66" y1="826.23" x2="583.66" y2="810.41" gradientTransform="translate(-109.77)" xlink:href="#linear-gradient"/>
    <clipPath id="clippath-5">
      <polygon points="277.86 520.13 565.16 480.67 543.93 529.41 275.97 532.45 277.86 520.13" style="clip-rule: evenodd; fill: none;"/>
    </clipPath>
    <linearGradient id="_未命名漸層_87" data-name="未命名漸層 87" x1="602.01" y1="494.87" x2="602.01" y2="529.64" gradientTransform="translate(-109.77)" gradientUnits="userSpaceOnUse">
      <stop offset="0" stop-color="#cdc9c8"/>
      <stop offset=".19" stop-color="#c0bcbb"/>
      <stop offset=".53" stop-color="#a09b9a"/>
      <stop offset=".99" stop-color="#6d6665"/>
      <stop offset="1" stop-color="#6c6564"/>
    </linearGradient>
    <linearGradient id="linear-gradient-15" x1="638.39" y1="504.81" x2="631.26" y2="517.73" gradientTransform="translate(-109.77)" gradientUnits="userSpaceOnUse">
      <stop offset="0" stop-color="#a19f9f" stop-opacity="0"/>
      <stop offset=".18" stop-color="#9a9898" stop-opacity=".12"/>
      <stop offset=".5" stop-color="#8a8686" stop-opacity=".42"/>
      <stop offset=".93" stop-color="#706a69" stop-opacity=".91"/>
      <stop offset="1" stop-color="#6c6564"/>
    </linearGradient>
    <linearGradient id="linear-gradient-16" x1="601.07" y1="539.59" x2="601.07" y2="528.25" xlink:href="#linear-gradient-15"/>
    <clipPath id="clippath-6">
      <polygon points="311.93 455.76 599.22 416.29 577.99 465.04 310.04 468.08 311.93 455.76" style="clip-rule: evenodd; fill: none;"/>
    </clipPath>
    <linearGradient id="_未命名漸層_98" data-name="未命名漸層 98" x1="636.08" y1="430.5" x2="636.08" y2="465.26" gradientTransform="translate(-109.77)" gradientUnits="userSpaceOnUse">
      <stop offset="0" stop-color="#bb6566"/>
      <stop offset=".2" stop-color="#ae5a5b"/>
      <stop offset=".56" stop-color="#8d3f41"/>
      <stop offset="1" stop-color="#5e181b"/>
    </linearGradient>
    <linearGradient id="linear-gradient-17" x1="672.45" y1="440.44" x2="665.32" y2="453.36" gradientTransform="translate(-109.77)" gradientUnits="userSpaceOnUse">
      <stop offset="0" stop-color="#7c2329" stop-opacity="0"/>
      <stop offset=".2" stop-color="#782127" stop-opacity=".13"/>
      <stop offset=".56" stop-color="#6d1d22" stop-opacity=".48"/>
      <stop offset="1" stop-color="#5e181b"/>
    </linearGradient>
    <linearGradient id="linear-gradient-18" x1="635.13" y1="475.22" x2="635.13" y2="463.88" xlink:href="#linear-gradient-17"/>
    <filter id="drop-shadow-1" x="369.24" y="578.53" width="80" height="81" filterUnits="userSpaceOnUse">
      <feOffset dx="0" dy="0"/>
      <feGaussianBlur result="blur" stdDeviation="5.12"/>
      <feFlood flood-color="#000" flood-opacity=".21"/>
      <feComposite in2="blur" operator="in"/>
      <feComposite in="SourceGraphic"/>
    </filter>
    <linearGradient id="Degradado_sin_nombre_5" data-name="Degradado sin nombre 5" x1="400.01" y1="603.33" x2="421.64" y2="640.79" gradientUnits="userSpaceOnUse">
      <stop offset="0" stop-color="#4b8db6"/>
      <stop offset="1" stop-color="#4b8db6"/>
    </linearGradient>
    <linearGradient id="Degradado_sin_nombre_11" data-name="Degradado sin nombre 11" x1="392.1" y1="644.48" x2="427.33" y2="624.64" gradientUnits="userSpaceOnUse">
      <stop offset="0" stop-color="#fff"/>
      <stop offset="1" stop-color="#fff" stop-opacity="0"/>
    </linearGradient>
    <filter id="drop-shadow-2" x="1041.91" y="615.53" width="81" height="81" filterUnits="userSpaceOnUse">
      <feOffset dx="0" dy="0"/>
      <feGaussianBlur result="blur-2" stdDeviation="5.12"/>
      <feFlood flood-color="#000" flood-opacity=".21"/>
      <feComposite in2="blur-2" operator="in"/>
      <feComposite in="SourceGraphic"/>
    </filter>
    <linearGradient id="Degradado_sin_nombre_5-2" data-name="Degradado sin nombre 5" x1="1073.4" y1="639.87" x2="1095.03" y2="677.33" xlink:href="#Degradado_sin_nombre_5"/>
    <linearGradient id="Degradado_sin_nombre_11-2" data-name="Degradado sin nombre 11" x1="1065.5" y1="681.02" x2="1100.72" y2="661.19" xlink:href="#Degradado_sin_nombre_11"/>
    <filter id="drop-shadow-3" x="579.79" y="376.79" width="80" height="80" filterUnits="userSpaceOnUse">
      <feOffset dx="0" dy="0"/>
      <feGaussianBlur result="blur-3" stdDeviation="5.12"/>
      <feFlood flood-color="#000" flood-opacity=".21"/>
      <feComposite in2="blur-3" operator="in"/>
      <feComposite in="SourceGraphic"/>
    </filter>
    <linearGradient id="Degradado_sin_nombre_5-3" data-name="Degradado sin nombre 5" x1="814.27" y1="190.94" x2="835.9" y2="228.41" gradientTransform="translate(-203.61 210.35)" xlink:href="#Degradado_sin_nombre_5"/>
    <linearGradient id="Degradado_sin_nombre_11-3" data-name="Degradado sin nombre 11" x1="806.37" y1="232.1" x2="841.59" y2="212.26" gradientTransform="translate(-203.61 210.35)" xlink:href="#Degradado_sin_nombre_11"/>
    <filter id="drop-shadow-4" x="667.79" y="184.79" width="80" height="80" filterUnits="userSpaceOnUse">
      <feOffset dx="0" dy="0"/>
      <feGaussianBlur result="blur-4" stdDeviation="5.12"/>
      <feFlood flood-color="#000" flood-opacity=".21"/>
      <feComposite in2="blur-4" operator="in"/>
      <feComposite in="SourceGraphic"/>
    </filter>
    <linearGradient id="Degradado_sin_nombre_5-4" data-name="Degradado sin nombre 5" x1="902.03" y1="-.7" x2="923.66" y2="36.76" gradientTransform="translate(-203.61 210.35)" xlink:href="#Degradado_sin_nombre_5"/>
    <linearGradient id="Degradado_sin_nombre_11-4" data-name="Degradado sin nombre 11" x1="894.12" y1="40.46" x2="929.35" y2="20.62" gradientTransform="translate(-203.61 210.35)" xlink:href="#Degradado_sin_nombre_11"/>
    <filter id="drop-shadow-5" x="667.79" y="272.79" width="80" height="81" filterUnits="userSpaceOnUse">
      <feOffset dx="0" dy="0"/>
      <feGaussianBlur result="blur-5" stdDeviation="5.12"/>
      <feFlood flood-color="#000" flood-opacity=".21"/>
      <feComposite in2="blur-5" operator="in"/>
      <feComposite in="SourceGraphic"/>
    </filter>
    <linearGradient id="Degradado_sin_nombre_5-5" data-name="Degradado sin nombre 5" x1="902.03" y1="87.43" x2="923.66" y2="124.89" gradientTransform="translate(-203.61 210.35)" xlink:href="#Degradado_sin_nombre_5"/>
    <linearGradient id="Degradado_sin_nombre_11-5" data-name="Degradado sin nombre 11" x1="894.12" y1="128.58" x2="929.35" y2="108.74" gradientTransform="translate(-203.61 210.35)" xlink:href="#Degradado_sin_nombre_11"/>
    <filter id="drop-shadow-6" x="585.79" y="23.79" width="80" height="81" filterUnits="userSpaceOnUse">
      <feOffset dx="0" dy="0"/>
      <feGaussianBlur result="blur-6" stdDeviation="5.12"/>
      <feFlood flood-color="#000" flood-opacity=".21"/>
      <feComposite in2="blur-6" operator="in"/>
      <feComposite in="SourceGraphic"/>
    </filter>
    <linearGradient id="Degradado_sin_nombre_5-6" data-name="Degradado sin nombre 5" x1="1543.25" y1="594.23" x2="1564.88" y2="631.69" gradientTransform="translate(-960.33 -452.56) rotate(-3.42)" xlink:href="#Degradado_sin_nombre_5"/>
    <linearGradient id="Degradado_sin_nombre_11-6" data-name="Degradado sin nombre 11" x1="1535.35" y1="635.38" x2="1570.57" y2="615.54" gradientTransform="translate(-960.33 -452.56) rotate(-3.42)" xlink:href="#Degradado_sin_nombre_11"/>
    <filter id="drop-shadow-7" x="369.24" y="742.53" width="81" height="81" filterUnits="userSpaceOnUse">
      <feOffset dx="0" dy="0"/>
      <feGaussianBlur result="blur-7" stdDeviation="5.12"/>
      <feFlood flood-color="#000" flood-opacity=".21"/>
      <feComposite in2="blur-7" operator="in"/>
      <feComposite in="SourceGraphic"/>
    </filter>
    <linearGradient id="Degradado_sin_nombre_5-7" data-name="Degradado sin nombre 5" x1="400.26" y1="766.88" x2="421.89" y2="804.34" xlink:href="#Degradado_sin_nombre_5"/>
    <linearGradient id="Degradado_sin_nombre_11-7" data-name="Degradado sin nombre 11" x1="392.36" y1="808.03" x2="427.58" y2="788.19" xlink:href="#Degradado_sin_nombre_11"/>
    <filter id="drop-shadow-8" x="579.79" y="457.79" width="80" height="80" filterUnits="userSpaceOnUse">
      <feOffset dx="0" dy="0"/>
      <feGaussianBlur result="blur-8" stdDeviation="5.12"/>
      <feFlood flood-color="#000" flood-opacity=".21"/>
      <feComposite in2="blur-8" operator="in"/>
      <feComposite in="SourceGraphic"/>
    </filter>
    <linearGradient id="Degradado_sin_nombre_5-8" data-name="Degradado sin nombre 5" x1="1064.24" y1="-1" x2="1085.86" y2="36.46" gradientTransform="translate(-453.68 483.08)" xlink:href="#Degradado_sin_nombre_5"/>
    <linearGradient id="Degradado_sin_nombre_11-8" data-name="Degradado sin nombre 11" x1="1056.33" y1="40.15" x2="1091.55" y2="20.31" gradientTransform="translate(-453.68 483.08)" xlink:href="#Degradado_sin_nombre_11"/>
    <filter id="drop-shadow-9" x="1048.39" y="743.53" width="80" height="81" filterUnits="userSpaceOnUse">
      <feOffset dx="0" dy="0"/>
      <feGaussianBlur result="blur-9" stdDeviation="5.12"/>
      <feFlood flood-color="#000" flood-opacity=".21"/>
      <feComposite in2="blur-9" operator="in"/>
      <feComposite in="SourceGraphic"/>
    </filter>
    <linearGradient id="Degradado_sin_nombre_5-9" data-name="Degradado sin nombre 5" x1="1079.07" y1="768.12" x2="1100.7" y2="805.58" xlink:href="#Degradado_sin_nombre_5"/>
    <linearGradient id="Degradado_sin_nombre_11-9" data-name="Degradado sin nombre 11" x1="1071.16" y1="809.28" x2="1106.39" y2="789.44" xlink:href="#Degradado_sin_nombre_11"/>
  </defs>
  <g style="isolation: isolate;">
    <g id="_圖層_4" data-name="圖層 4">
      <polygon points="1350.8 860 0 855.32 4.65 -.98 1360 0 1350.8 860" style="fill: #f1eee5;"/>
      <polygon points="736.83 316.53 670.94 500.99 670.96 536.04 1355.28 536.04 1355.28 288.19 736.83 316.53" style="fill: url(#_未命名漸層_86);"/>
      <polygon points="733.41 285.5 639.01 544.46 20.66 544.46 20.71 24.23 710.97 26.06 733.41 285.5" style="fill: #e7e1c7;"/>
      <polygon points="19.35 559.19 20.7 836.06 1333.83 833.86 1334.37 565.32 19.35 559.19" style="fill: #e7e1c7;"/>
      <polygon points="270.82 164.54 689.71 164.33 692.17 114.52 262.25 117.32 270.82 164.54" style="fill: #f1eee5;"/>
      <polygon points="273.15 193.83 282.24 362.05 698.49 363.59 710.29 191.33 273.15 193.83" style="fill: #f1eee5;"/>
      <polygon points="590.65 452.04 277.45 452.14 277.61 466.76 585.22 464.04 590.65 452.04" style="fill: #f1eee5;"/>
      <polygon points="281.54 512.47 573.79 509.26 565.06 529.97 281.51 532.71 281.54 512.47" style="fill: #f1eee5;"/>
      <path d="M1114.08,298.98c.43,9.51,2.93,28.26,13.31,41.31,19.35,24.31,53.46,32.31,71.58,32.76,32.47.79,45.77,22.5,76.51,19.88,30.03-2.57,77.76,5.49,84.52,13.67-.38-39.47-.76-78.94-1.15-118.4-81.51,4.8-163.26,5.99-244.77,10.79Z" style="fill: url(#_未命名漸層_28);"/>
      <polygon points="575.97 625.17 173.86 627.46 154.11 705.88 565.6 702.33 575.97 625.17" style="fill: #f1eee5;"/>
      <polygon points="147.57 758.93 561.16 759.13 541.29 820.17 166.05 818.21 147.57 758.93" style="fill: #f1eee5;"/>
      <polygon points="588.63 702.35 1061.19 703.53 1087.7 626.76 601.84 628.93 588.63 702.35" style="fill: #f1eee5;"/>
      <polygon points="579.89 813.23 1020.12 815.71 1041.78 767.75 588.75 770.1 579.89 813.23" style="fill: #f1eee5;"/>
      <g>
        <text transform="translate(851.89 131.5)" style="fill: #003049; font-family: GenSenRoundedTW-B, &apos;GenSenRounded TW&apos;; font-size: 101.06px; letter-spacing: .07em; stroke: #fff; stroke-linecap: round; stroke-linejoin: round; stroke-width: 10.69px;"><tspan x="0" y="0">W11</tspan></text>
        <text transform="translate(851.11 192.56)" style="fill: #003049; font-family: GenSenRoundedTW-B, &apos;GenSenRounded TW&apos;; font-size: 52.8px; letter-spacing: .07em; stroke: #fff; stroke-linecap: round; stroke-linejoin: round; stroke-width: 10.69px;"><tspan x="0" y="0">生產資訊</tspan></text>
      </g>
      <text transform="translate(851.89 131.5)" style="fill: #4e8db6; font-family: GenSenRoundedTW-B, &apos;GenSenRounded TW&apos;; font-size: 101.06px; letter-spacing: .07em;"><tspan x="0" y="0">W11</tspan></text>
      <text transform="translate(851.11 192.56)" style="fill: #4e8db6; font-family: GenSenRoundedTW-B, &apos;GenSenRounded TW&apos;; font-size: 52.8px; letter-spacing: .07em;"><tspan x="0" y="0">生產資訊</tspan></text>
      <rect x="262.25" y="100.05" width="428.86" height="4.55" style="fill: #898989;"/>
      <line x1="690.85" y1="551.83" x2="1316.01" y2="551.83" style="fill: none; stroke: #c9c9c9; stroke-dasharray: 9.28; stroke-miterlimit: 10; stroke-width: 4.64px;"/>
      <line x1="747.82" y1="302.82" x2="1026.67" y2="293.36" style="fill: none; stroke: #c9c9c9; stroke-dasharray: 9.28; stroke-miterlimit: 10; stroke-width: 4.64px;"/>
      <g style="opacity: .5;">
        <path d="M817.17,513.42c-2.89,0-5.4-.53-7.54-1.6-2.13-1.07-3.91-2.36-5.34-3.87l4.74-5.34c.89,1.07,2.03,1.93,3.43,2.6,1.4.67,2.81,1,4.23,1,2.05,0,3.92-.59,5.64-1.77,1.71-1.18,3.08-3.17,4.1-5.97,1.02-2.8,1.53-6.6,1.53-11.4,0-3.96-.4-7.17-1.2-9.64-.8-2.47-1.89-4.28-3.27-5.43-1.38-1.16-2.96-1.73-4.73-1.73-1.34,0-2.55.36-3.64,1.07s-1.96,1.73-2.6,3.07c-.65,1.33-.97,3-.97,5,0,1.87.3,3.43.9,4.7s1.48,2.21,2.63,2.83c1.16.62,2.51.93,4.07.93,1.38,0,2.84-.46,4.4-1.37,1.56-.91,3-2.44,4.34-4.57l.47,6.14c-.93,1.25-2.02,2.32-3.27,3.23-1.25.91-2.52,1.61-3.84,2.1-1.31.49-2.57.73-3.77.73-2.71,0-5.12-.53-7.24-1.6-2.11-1.07-3.77-2.7-4.97-4.9-1.2-2.2-1.8-4.95-1.8-8.24s.69-6.04,2.07-8.37c1.38-2.33,3.21-4.15,5.5-5.44,2.29-1.29,4.79-1.93,7.5-1.93,2.36,0,4.59.47,6.7,1.4,2.11.93,3.97,2.36,5.57,4.27,1.6,1.91,2.86,4.33,3.77,7.27.91,2.93,1.37,6.42,1.37,10.47,0,4.63-.51,8.6-1.53,11.94-1.02,3.33-2.42,6.07-4.2,8.2-1.78,2.13-3.79,3.7-6.03,4.7-2.25,1-4.59,1.5-7.04,1.5Z" style="fill: #fff;"/>
        <path d="M858.79,513.42c-3.11,0-5.89-.57-8.34-1.7-2.45-1.13-4.37-2.69-5.77-4.67-1.4-1.98-2.1-4.24-2.1-6.77,0-2.05.4-3.84,1.2-5.37.8-1.53,1.86-2.89,3.17-4.07,1.31-1.18,2.72-2.17,4.23-2.97v-.27c-1.87-1.33-3.43-2.91-4.7-4.74-1.27-1.82-1.9-3.98-1.9-6.47s.63-4.82,1.9-6.74c1.27-1.91,2.99-3.39,5.17-4.44,2.18-1.04,4.65-1.57,7.4-1.57s5.39.53,7.5,1.6c2.11,1.07,3.75,2.58,4.9,4.53,1.16,1.96,1.73,4.23,1.73,6.8,0,1.6-.32,3.1-.97,4.5-.65,1.4-1.46,2.63-2.43,3.7-.98,1.07-1.98,1.98-3,2.73v.33c1.47.84,2.83,1.82,4.1,2.93,1.27,1.11,2.28,2.45,3.04,4,.75,1.56,1.13,3.4,1.13,5.54,0,2.45-.68,4.66-2.03,6.63-1.36,1.98-3.25,3.55-5.67,4.7-2.42,1.16-5.28,1.73-8.57,1.73ZM858.98,507.15c1.56,0,2.92-.29,4.1-.87,1.18-.58,2.1-1.39,2.77-2.44.67-1.04,1-2.3,1-3.77,0-1.34-.3-2.47-.9-3.4-.6-.93-1.42-1.75-2.47-2.43-1.05-.69-2.26-1.34-3.64-1.97-1.38-.62-2.89-1.27-4.53-1.93-1.51,1.07-2.75,2.37-3.7,3.9-.96,1.53-1.43,3.23-1.43,5.1,0,1.51.39,2.86,1.17,4.04.78,1.18,1.83,2.1,3.17,2.77,1.33.67,2.82,1,4.47,1ZM861.99,485.41c1.29-1.29,2.27-2.61,2.93-3.97s1-2.79,1-4.3c0-1.42-.28-2.68-.83-3.77-.56-1.09-1.36-1.94-2.4-2.57-1.05-.62-2.3-.93-3.77-.93-1.87,0-3.42.57-4.67,1.7-1.25,1.13-1.87,2.75-1.87,4.84,0,1.6.43,2.93,1.3,4,.87,1.07,2.02,1.99,3.47,2.77,1.44.78,3.06,1.52,4.83,2.24Z" style="fill: #fff;"/>
      </g>
      <g style="opacity: .5;">
        <path d="M1145.49,513.42c-2.89,0-5.4-.53-7.54-1.6-2.13-1.07-3.91-2.36-5.34-3.87l4.74-5.34c.89,1.07,2.03,1.93,3.43,2.6,1.4.67,2.81,1,4.23,1,2.05,0,3.92-.59,5.64-1.77,1.71-1.18,3.08-3.17,4.1-5.97,1.02-2.8,1.53-6.6,1.53-11.4,0-3.96-.4-7.17-1.2-9.64-.8-2.47-1.89-4.28-3.27-5.43-1.38-1.16-2.96-1.73-4.73-1.73-1.34,0-2.55.36-3.64,1.07s-1.96,1.73-2.6,3.07c-.65,1.33-.97,3-.97,5,0,1.87.3,3.43.9,4.7.6,1.27,1.48,2.21,2.63,2.83,1.16.62,2.51.93,4.07.93,1.38,0,2.84-.46,4.4-1.37s3-2.44,4.34-4.57l.47,6.14c-.93,1.25-2.02,2.32-3.27,3.23-1.25.91-2.52,1.61-3.84,2.1-1.31.49-2.57.73-3.77.73-2.71,0-5.12-.53-7.24-1.6-2.11-1.07-3.77-2.7-4.97-4.9-1.2-2.2-1.8-4.95-1.8-8.24s.69-6.04,2.07-8.37c1.38-2.33,3.21-4.15,5.5-5.44,2.29-1.29,4.79-1.93,7.5-1.93,2.36,0,4.59.47,6.7,1.4,2.11.93,3.97,2.36,5.57,4.27,1.6,1.91,2.86,4.33,3.77,7.27.91,2.93,1.37,6.42,1.37,10.47,0,4.63-.51,8.6-1.53,11.94-1.02,3.33-2.42,6.07-4.2,8.2-1.78,2.13-3.79,3.7-6.03,4.7-2.25,1-4.59,1.5-7.04,1.5Z" style="fill: #fff;"/>
        <path d="M1180.37,512.48c.22-4.22.62-8.12,1.2-11.7.58-3.58,1.38-6.96,2.4-10.14,1.02-3.18,2.32-6.29,3.9-9.34,1.58-3.04,3.52-6.17,5.84-9.37h-22.61v-7.4h32.15v5.4c-2.8,3.47-5.07,6.77-6.8,9.9-1.73,3.13-3.09,6.33-4.07,9.57-.98,3.25-1.69,6.74-2.13,10.47-.45,3.73-.76,7.94-.93,12.61h-8.94Z" style="fill: #fff;"/>
      </g>
      <g style="opacity: .5;">
        <path d="M851.1,382.94v-7.14h10.74v-31.34h-8.94v-5.47c2.4-.49,4.48-1.04,6.24-1.67,1.76-.62,3.37-1.4,4.83-2.33h6.54v40.81h9.47v7.14h-28.88Z" style="fill: #fff;"/>
        <path d="M903.52,383.87c-3.29,0-6.16-.97-8.6-2.9-2.45-1.93-4.34-4.76-5.67-8.47-1.33-3.71-2-8.28-2-13.7s.67-9.96,2-13.6c1.33-3.64,3.22-6.4,5.67-8.27,2.44-1.87,5.31-2.8,8.6-2.8s6.22.93,8.67,2.8c2.44,1.87,4.32,4.62,5.64,8.27,1.31,3.65,1.97,8.18,1.97,13.6s-.66,9.99-1.97,13.7c-1.31,3.71-3.19,6.54-5.64,8.47-2.45,1.93-5.34,2.9-8.67,2.9ZM903.52,376.94c1.55,0,2.93-.57,4.13-1.7,1.2-1.13,2.15-3.04,2.84-5.7.69-2.67,1.03-6.25,1.03-10.74s-.35-8.1-1.03-10.7c-.69-2.6-1.64-4.43-2.84-5.5-1.2-1.07-2.58-1.6-4.13-1.6s-2.87.53-4.07,1.6c-1.2,1.07-2.16,2.9-2.87,5.5-.71,2.6-1.07,6.17-1.07,10.7s.35,8.07,1.07,10.74c.71,2.67,1.67,4.57,2.87,5.7s2.56,1.7,4.07,1.7Z" style="fill: #fff;"/>
        <path d="M928.46,382.94v-7.14h10.74v-31.34h-8.94v-5.47c2.4-.49,4.48-1.04,6.24-1.67,1.76-.62,3.37-1.4,4.83-2.33h6.54v40.81h9.47v7.14h-28.88Z" style="fill: #fff;"/>
      </g>
      <rect x="585.73" y="742.42" width="466.85" height="5.58" style="fill: #898989;"/>
      <rect x="156.02" y="713.42" width="409.57" height="5.58" style="fill: #898989;"/>
      <rect x="151.11" y="741.12" width="409.57" height="5.58" style="fill: #898989;"/>
      <rect x="575.97" y="821.98" width="444.15" height="5.58" style="fill: #898989;"/>
      <rect x="589.33" y="713.66" width="466.85" height="5.58" style="fill: #898989;"/>
      <rect x="273.15" y="172.6" width="417.96" height="4.17" style="fill: #898989;"/>
      <rect x="277.45" y="439.59" width="304.25" height="4.06" style="fill: #898989;"/>
      <rect x="281.51" y="501.5" width="277.79" height="4.17" style="fill: #898989;"/>
      <g>
        <polygon points="1388.35 245.18 1204.54 245.18 1204.54 204.93 1399.99 204.93 1388.35 245.18" style="fill: #4e8db6; stroke: #fff; stroke-linecap: round; stroke-linejoin: round; stroke-width: 7.19px;"/>
        <polygon points="1375.91 245.18 1204.54 245.18 1204.54 204.93 1387.55 204.93 1375.91 245.18" style="fill: #4e8db6;"/>
        <circle cx="1196.58" cy="224.46" r="25.56" style="fill: #4e8db6; stroke: #fff; stroke-miterlimit: 10; stroke-width: 5.46px;"/>
        <circle cx="1196.58" cy="224.46" r="25.56" style="fill: #4e8db6;"/>
        <g>
          <circle cx="1196.55" cy="224.52" r="20.03" style="fill: #fff;"/>
          <g>
            <circle cx="1196.44" cy="224.5" r="14.93" style="fill: #d5d5d6;"/>
            <path d="M1196.66,209.62v29.86c8.24,0,14.93-6.68,14.93-14.93s-6.68-14.93-14.93-14.93Z" style="fill: #c1c1c1;"/>
          </g>
          <g>
            <path d="M1201.27,212.61l-.05.02-2.14,3.72h-.02c-2.96-.89-6.54.03-8.73,2.3-.69.69-1.26,1.5-1.7,2.42h-.06s-4.17-.85-4.17-.85c-.04,0-.08.04-.07.08l.02.05,3.71,2.14v.02c-.89,2.98.05,6.61,2.36,8.79.68.66,1.46,1.21,2.36,1.64v.05s-.84,4.17-.84,4.17c0,.04.04.08.08.07l.05-.02,2.13-3.72h.03c2.98.89,6.61-.05,8.79-2.36.66-.68,1.22-1.46,1.65-2.36h.05s4.17.85,4.17.85c.03,0,.05-.03.07-.05.01-.04,0-.09-.05-.11l-3.69-2.11v-.02c.89-2.96-.03-6.54-2.3-8.73-.69-.69-1.5-1.26-2.42-1.71v-.05s.85-4.17.85-4.17c0-.03-.04-.08-.09-.07ZM1200.29,232.69c-.04-.19-.06-.37-.08-.56.47-.23.89-.49,1.29-.79v-.03s-1.23-.65-1.23-.65l.95-.73.31,1.37c.95-.72,1.71-1.62,2.27-2.7l.55.11c-.88,1.77-2.22,3.1-4.04,3.98h-.02ZM1195.89,230.6l1-1.73,1.23,1.51.04.06c-.75.21-1.51.25-2.27.15ZM1198.39,230.73l.39.49c-.75.24-1.51.37-2.27.35-.37-.01-.75-.03-1.1-.13l.3-.53c.9.15,1.79.07,2.68-.19ZM1197,228.75l-.02-.05c.24-.42.48-.85.73-1.25l2.2,4.87-2.9-3.57ZM1199.46,227.71l1.96.4c-.43.64-.96,1.19-1.62,1.6h0s-.33-2-.33-2ZM1201.75,228.19h.02s.59.11.59.11c-.58,1-1.4,1.78-2.4,2.38-.04-.2-.07-.4-.11-.6v-.02c.78-.49,1.4-1.11,1.89-1.87ZM1194.4,233.2c.09-.16.18-.33.28-.48,1.18.3,2.36.34,3.52.08l-.82-1.13,1.18-.23-.32,1.34v.03c.49-.09.97-.24,1.45-.44.13.13.24.3.37.43v.02c-1.01.43-2.03.65-3.05.7-.87.04-1.76-.04-2.61-.31ZM1188.89,228.56c.18-.03.37-.06.56-.08.23.46.49.89.79,1.28h.03s.65-1.22.65-1.22l.73.95-1.37.31c.72.95,1.62,1.7,2.7,2.27l-.11.55c-1.77-.88-3.1-2.22-3.98-4.04v-.02ZM1190.97,224.16l1.73,1-1.52,1.23-.07.04c-.2-.75-.25-1.51-.15-2.27ZM1190.85,226.66l-.49.39c-.24-.75-.37-1.51-.35-2.27.01-.37.03-.75.13-1.1l.53.3c-.15.9-.07,1.79.19,2.68ZM1192.87,225.25c.42.24.85.48,1.25.73l-4.86,2.19,3.57-2.89.05-.02ZM1193.86,227.73l-.4,1.96c-.64-.43-1.19-.96-1.6-1.62h.01s1.98-.34,1.98-.34ZM1193.38,230.02v.02s-.11.59-.11.59c-1-.58-1.79-1.39-2.38-2.41.2-.03.4-.06.59-.1h.03c.49.78,1.11,1.41,1.87,1.89ZM1188.38,222.67c.16.09.33.18.48.28-.3,1.18-.34,2.36-.08,3.52l1.13-.82.23,1.18-1.34-.32h-.02c.09.49.24.98.44,1.46-.13.13-.3.24-.43.37h-.02c-.43-1.02-.65-2.03-.7-3.05-.04-.87.04-1.76.31-2.61ZM1196.5,225.09l-4.19,11.07,2.03-10,.04-.13,2.11-.94ZM1207.88,229.26l-9.99-2.03-.13-.04-.95-2.11,11.07,4.19ZM1204.41,221.28c-.19.04-.37.06-.56.08-.23-.47-.49-.89-.79-1.28h-.03s-.65,1.23-.65,1.23l-.72-.95,1.37-.31c-.72-.95-1.62-1.71-2.7-2.27l.11-.54c1.77.88,3.1,2.22,3.98,4.04v.02ZM1202.33,225.69l-1.72-1,1.51-1.23.06-.04c.2.75.25,1.5.15,2.27ZM1202.46,223.19c.16-.13.34-.28.49-.39.37,1.11.45,2.23.23,3.37l-.53-.3c.14-.9.07-1.79-.19-2.68ZM1200.43,224.59c-.42-.24-.85-.48-1.25-.73l4.87-2.19-3.57,2.89-.05.02ZM1199.44,222.12l.4-1.96c.64.43,1.19.96,1.6,1.62l-2,.34ZM1199.92,219.82v-.03s.11-.59.11-.59c1,.58,1.78,1.4,2.38,2.4l-.6.11h-.03c-.49-.78-1.11-1.41-1.86-1.89ZM1204.93,227.18c-.16-.1-.34-.18-.49-.29.3-1.18.33-2.36.08-3.52l-1.13.82-.23-1.18,1.34.32h.03c-.1-.49-.24-.97-.44-1.45.15-.13.28-.25.43-.36h.02c.78,1.87.91,3.76.4,5.67ZM1195.42,222.62l.13.04.94,2.11-11.07-4.19,9.99,2.04ZM1197.41,219.24v.02s-1,1.7-1,1.7l-1.23-1.51-.04-.06c.75-.2,1.5-.25,2.27-.15ZM1194.92,219.12l-.39-.49c1.11-.36,2.24-.45,3.37-.23-.09.19-.21.34-.3.53-.9-.14-1.79-.07-2.68.19ZM1196.33,221.13c-.24.42-.48.85-.73,1.25l-2.19-4.86,2.92,3.61ZM1193.45,219.78c-.78.49-1.41,1.11-1.89,1.87h-.03s-.59-.11-.59-.11c.58-1,1.4-1.78,2.4-2.38.05.21.07.41.11.62ZM1193.84,222.13l-1.96-.4c.43-.64.96-1.19,1.62-1.6h0s.33,2,.33,2ZM1193.01,217.16c.01.19.07.37.08.56-.46.23-.89.49-1.28.79v.02s1.22.65,1.22.65l-.95.72-.31-1.37c-.95.72-1.71,1.62-2.27,2.7l-.55-.11c.88-1.77,2.22-3.1,4.04-3.98h.02ZM1198.91,216.64c-.09.17-.18.34-.29.49-1.18-.3-2.36-.33-3.52-.08l.82,1.13-1.19.23.33-1.34v-.03c-.49.1-.98.24-1.46.44-.12-.14-.25-.28-.36-.43v-.02c1.87-.78,3.76-.91,5.67-.4ZM1200.99,213.69l-2.04,10-.04.13-2.11.95,4.19-11.07Z" style="fill: #004a5f;"/>
            <path d="M1212.08,231.42s-.09-.01-.11-.04c-.03-.03-.05-.05-.06-.06l-1.22-1.82v1.8s-.01.06-.04.08c-.02.02-.05.03-.08.03h-.35s-.06-.01-.08-.03c-.02-.02-.04-.05-.04-.08v-2.82s.01-.06.04-.08c.02-.02.05-.03.08-.03h.31s.09.01.11.04c.03.03.05.05.06.06l1.22,1.82v-1.8s.01-.06.04-.08c.02-.02.05-.03.08-.03h.35s.06.01.08.03c.02.02.04.05.04.08v2.82s-.01.06-.04.08c-.02.02-.05.03-.08.03h-.31Z" style="fill: #bc2222;"/>
            <path d="M1181.84,218.38c.19,0,.37.03.52.08.15.05.27.12.37.2.1.08.17.17.22.26.05.09.08.18.08.27,0,.03,0,.06-.03.09-.02.02-.05.03-.09.03h-.31s-.09,0-.11-.03c-.02-.02-.05-.04-.07-.08-.04-.07-.11-.14-.2-.19-.09-.05-.22-.08-.4-.08-.08,0-.15,0-.22.02-.07.02-.13.04-.18.07-.05.03-.09.07-.12.11-.03.04-.04.09-.04.15,0,.07.01.12.04.16.03.04.07.08.14.11.07.03.15.06.26.09.11.03.24.06.4.09.17.04.33.08.45.13.13.05.23.11.31.18.08.07.14.15.18.25.04.09.06.2.06.32,0,.13-.03.25-.09.36-.06.11-.14.21-.25.29-.11.08-.24.14-.4.19s-.33.07-.53.07c-.16,0-.32-.02-.47-.06-.15-.04-.28-.1-.4-.17-.12-.07-.21-.16-.28-.27-.07-.1-.11-.22-.12-.35,0-.04,0-.06.03-.09.02-.02.05-.03.09-.03h.31s.09,0,.11.03.05.04.07.08c.02.04.05.08.07.11.03.04.07.07.12.1.05.03.11.05.19.07.07.02.17.03.28.03.09,0,.17,0,.25-.02.08-.01.15-.03.21-.07.06-.03.11-.07.15-.11.04-.05.06-.1.06-.17s-.02-.12-.06-.16c-.04-.04-.1-.08-.19-.1s-.19-.06-.31-.08c-.12-.03-.26-.06-.42-.1-.15-.03-.27-.08-.38-.12-.11-.05-.2-.11-.27-.18-.07-.07-.12-.15-.16-.25-.04-.09-.05-.21-.05-.34s.03-.25.09-.36c.06-.11.14-.21.24-.28.1-.08.22-.14.36-.19.14-.05.29-.07.46-.07Z" style="fill: #004a5f;"/>
            <path d="M1192.64,240.21s.06.01.08.04c.02.02.03.05.03.08v.31s-.01.06-.03.08c-.02.02-.05.04-.08.04h-1.92s-.06-.01-.08-.04c-.02-.02-.03-.05-.03-.08v-2.82s.01-.06.03-.08c.02-.02.05-.04.08-.04h1.88s.06.01.08.04c.02.02.03.05.03.08v.31s-.01.06-.03.08c-.02.02-.05.03-.08.03h-1.41s0,.69,0,.69h1.31s.06.01.08.04c.02.02.04.05.04.08v.31s-.01.06-.04.08c-.02.02-.05.04-.08.04h-1.31s0,.72,0,.72h1.45Z" style="fill: #004a5f;"/>
            <path d="M1201.62,209.9l-.38,1.31s-.03.08-.05.11c-.02.03-.05.04-.1.04h-.35s-.08-.01-.1-.04c-.02-.03-.04-.06-.05-.11l-.56-2.76s0-.03,0-.03c0-.03.01-.06.04-.08.02-.02.05-.04.08-.04h.32s.06,0,.08.03c.03.02.04.05.05.09l.37,1.85.32-1.17s.02-.05.04-.08c.02-.03.06-.05.11-.05h.36c.05,0,.09.02.11.05.02.03.04.06.04.08l.32,1.17.37-1.85s.03-.07.05-.09c.03-.02.05-.03.08-.03h.32s.06.01.08.04c.02.02.03.05.03.08,0,0,0,.02,0,.03l-.56,2.76s-.03.08-.05.11c-.02.03-.06.04-.1.04h-.35s-.08-.01-.1-.04c-.02-.03-.04-.06-.05-.11l-.38-1.31Z" style="fill: #004a5f;"/>
            <g>
              <path d="M1197.31,215.47c4.7.32,8.47,4.09,8.8,8.79l.9.14c-.26-5.31-4.53-9.58-9.84-9.84l.14.9Z" style="fill: #004a5f;"/>
              <path d="M1206.11,225.58c-.32,4.7-4.09,8.47-8.8,8.8l-.14.9c5.31-.26,9.58-4.53,9.84-9.84l-.9.14Z" style="fill: #004a5f;"/>
              <path d="M1195.99,234.38c-4.7-.32-8.47-4.09-8.8-8.79l-.9-.15c.26,5.31,4.53,9.58,9.84,9.84l-.14-.9Z" style="fill: #004a5f;"/>
              <path d="M1187.19,224.27c.32-4.7,4.09-8.47,8.79-8.8l.15-.9c-5.31.26-9.58,4.53-9.84,9.84l.9-.14Z" style="fill: #004a5f;"/>
            </g>
          </g>
          <path d="M1196.54,204.36v40.19c11.1,0,20.1-9,20.1-20.1s-9-20.1-20.1-20.1Z" style="fill: url(#_未命名漸層_35); opacity: .2;"/>
        </g>
      </g>
      <rect y="0" width="1360" height="860" style="fill: none; stroke: #4e8db6; stroke-linecap: round; stroke-linejoin: round; stroke-width: 21.72px;"/>
      <g>
        <rect x="1202.06" y="44.38" width="137.46" height="140.51" style="fill: #d8d2c3;"/>
        <g>
          <g>
            <rect x="1194.16" y="38.24" width="140.22" height="26.62" style="fill: #d84141;"/>
            <rect x="1194.16" y="64.86" width="140.22" height="113.59" style="fill: #fff;"/>
          </g>
          <g>
            <rect x="1210.81" y="25.44" width="9.35" height="24.11" rx="4.57" ry="4.57" style="fill: #fff;"/>
            <rect x="1235.2" y="25.44" width="9.35" height="24.11" rx="4.57" ry="4.57" style="fill: #fff;"/>
            <rect x="1259.59" y="25.44" width="9.35" height="24.11" rx="4.57" ry="4.57" style="fill: #fff;"/>
            <rect x="1283.98" y="25.44" width="9.35" height="24.11" rx="4.57" ry="4.57" style="fill: #fff;"/>
            <rect x="1308.37" y="25.44" width="9.35" height="24.11" rx="4.57" ry="4.57" style="fill: #fff;"/>
          </g>
        </g>
        <line x1="1208.54" y1="127.12" x2="1320.75" y2="127.12" style="fill: none; stroke: #303030; stroke-miterlimit: 10; stroke-width: 1.35px;"/>
        <text transform="translate(1204.19 169.29)" style="fill: #303030; font-family: NotoSansTC-Light, &apos;Noto Sans TC&apos;; font-size: 6.23px; font-weight: 300; letter-spacing: .12em;"><tspan x="0" y="0">(資料30秒更新一次,欲即時更新可按F5)</tspan></text>
        <text transform="translate(1226.21 80.98)" style="fill: #231815; font-family: NotoSansTC-Regular, &apos;Noto Sans TC&apos;; font-size: 10.25px; letter-spacing: .3em; opacity: .99;"><tspan x="0" y="0">資料更新時間</tspan></text>
      </g>
      <g>
        <g>
          <rect x="767.28" y="270.64" width="8.56" height="4.45" style="fill: none; stroke: #999; stroke-miterlimit: 10; stroke-width: 1.04px;"/>
          <rect x="767.28" y="260.42" width=".93" height="10.22" style="fill: none; stroke: #999; stroke-miterlimit: 10; stroke-width: 1.04px;"/>
          <rect x="774.91" y="260.42" width=".93" height="10.22" style="fill: none; stroke: #999; stroke-miterlimit: 10; stroke-width: 1.04px;"/>
        </g>
        <rect x="763.19" y="295.89" width="16.78" height="2.41" style="fill: none; stroke: #999; stroke-linejoin: round; stroke-width: 1.04px;"/>
        <polygon points="780.24 302.6 776.31 302.6 776.57 298.3 779.98 298.3 780.24 302.6" style="fill: none; stroke: #999; stroke-linejoin: round; stroke-width: 1.04px;"/>
        <polygon points="766.84 302.6 762.91 302.6 763.17 298.3 766.58 298.3 766.84 302.6" style="fill: none; stroke: #999; stroke-linejoin: round; stroke-width: 1.04px;"/>
        <rect x="760.92" y="249.44" width="22.36" height="7.19" style="fill: none; stroke: #999; stroke-linejoin: round; stroke-width: .91px;"/>
        <rect x="760.92" y="249.44" width="22.36" height="7.19" style="fill: #e2e2e2;"/>
        <rect x="759.71" y="256.64" width="24.8" height="1.2" style="fill: none; stroke: #999; stroke-linejoin: round; stroke-width: 1.04px;"/>
        <rect x="763.19" y="281" width="16.78" height="2.41" style="fill: none; stroke: #999; stroke-linejoin: round; stroke-width: 1.04px;"/>
        <rect x="756.04" y="257.81" width="32.12" height="2.41" style="fill: none; stroke: #999; stroke-linejoin: round; stroke-width: 1.04px;"/>
        <rect x="759.71" y="256.64" width="24.8" height="1.2" style="fill: #fff;"/>
        <rect x="763.19" y="281" width="16.78" height="2.41" style="fill: #fff;"/>
        <rect x="756.04" y="257.81" width="32.12" height="2.41" style="fill: #fff;"/>
        <polygon points="765.55 298.3 763.15 298.3 763.26 256.61 765.55 256.61 765.55 298.3" style="fill: #fff;"/>
        <polygon points="779.96 298.3 777.56 298.3 777.62 256.61 779.96 256.61 779.96 298.3" style="fill: #fff;"/>
        <rect x="766.66" y="251.35" width="9.83" height="4.66" style="fill: none; stroke: #aa3535; stroke-linejoin: round; stroke-width: .91px;"/>
        <rect x="766.66" y="251.35" width="9.83" height="4.66" style="fill: #d93732;"/>
        <line x1="760.3" y1="256.44" x2="783.29" y2="256.44" style="fill: none; stroke: #999; stroke-linejoin: round; stroke-width: .39px;"/>
        <line x1="759.31" y1="257.62" x2="784.75" y2="257.62" style="fill: none; stroke: #999; stroke-linejoin: round; stroke-width: .39px;"/>
        <polygon points="765.55 298.3 763.15 298.3 763.3 241.14 765.55 241.14 765.55 298.3" style="fill: none; stroke: #999; stroke-linejoin: round; stroke-width: 1.04px;"/>
        <polygon points="779.96 298.3 777.56 298.3 777.72 241.14 779.96 241.14 779.96 298.3" style="fill: none; stroke: #999; stroke-linejoin: round; stroke-width: 1.04px;"/>
        <polygon points="765.55 298.3 763.15 298.3 763.3 241.14 765.55 241.14 765.55 298.3" style="fill: #fff;"/>
        <polygon points="779.96 298.3 777.56 298.3 777.72 241.14 779.96 241.14 779.96 298.3" style="fill: #fff;"/>
        <rect x="763.19" y="295.89" width="16.78" height="2.41" style="fill: #fff;"/>
        <polygon points="766.84 302.6 762.91 302.6 763.17 298.3 766.58 298.3 766.84 302.6" style="fill: #fff;"/>
        <polygon points="780.24 302.6 776.31 302.6 776.57 298.3 779.98 298.3 780.24 302.6" style="fill: #fff;"/>
        <rect x="767.3" y="270.74" width="8.56" height="4.45" style="fill: #fff;"/>
        <rect x="774.92" y="260.52" width=".93" height="10.22" style="fill: #fff;"/>
        <rect x="767.3" y="260.52" width=".93" height="10.22" style="fill: #fff;"/>
      </g>
      <g>
        <g>
          <rect x="942.61" y="267.09" width="8.56" height="4.45" style="fill: none; stroke: #999; stroke-miterlimit: 10; stroke-width: 1.04px;"/>
          <rect x="942.61" y="256.87" width=".93" height="10.22" style="fill: none; stroke: #999; stroke-miterlimit: 10; stroke-width: 1.04px;"/>
          <rect x="950.23" y="256.87" width=".93" height="10.22" style="fill: none; stroke: #999; stroke-miterlimit: 10; stroke-width: 1.04px;"/>
        </g>
        <rect x="938.52" y="292.35" width="16.78" height="2.41" style="fill: none; stroke: #999; stroke-linejoin: round; stroke-width: 1.04px;"/>
        <polygon points="955.57 299.05 951.64 299.05 951.9 294.75 955.31 294.75 955.57 299.05" style="fill: none; stroke: #999; stroke-linejoin: round; stroke-width: 1.04px;"/>
        <polygon points="942.17 299.05 938.24 299.05 938.5 294.75 941.91 294.75 942.17 299.05" style="fill: none; stroke: #999; stroke-linejoin: round; stroke-width: 1.04px;"/>
        <rect x="936.25" y="245.89" width="22.36" height="7.19" style="fill: none; stroke: #999; stroke-linejoin: round; stroke-width: .91px;"/>
        <rect x="936.25" y="245.89" width="22.36" height="7.19" style="fill: #e2e2e2;"/>
        <rect x="935.03" y="253.09" width="24.8" height="1.2" style="fill: none; stroke: #999; stroke-linejoin: round; stroke-width: 1.04px;"/>
        <rect x="938.52" y="277.46" width="16.78" height="2.41" style="fill: none; stroke: #999; stroke-linejoin: round; stroke-width: 1.04px;"/>
        <rect x="931.37" y="254.27" width="32.12" height="2.41" style="fill: none; stroke: #999; stroke-linejoin: round; stroke-width: 1.04px;"/>
        <rect x="935.03" y="253.09" width="24.8" height="1.2" style="fill: #fff;"/>
        <rect x="938.52" y="277.46" width="16.78" height="2.41" style="fill: #fff;"/>
        <rect x="931.37" y="254.27" width="32.12" height="2.41" style="fill: #fff;"/>
        <polygon points="940.88 294.75 938.48 294.75 938.59 253.06 940.88 253.06 940.88 294.75" style="fill: #fff;"/>
        <polygon points="955.29 294.75 952.89 294.75 952.95 253.06 955.29 253.06 955.29 294.75" style="fill: #fff;"/>
        <rect x="941.99" y="247.8" width="9.83" height="4.66" style="fill: none; stroke: #aa3535; stroke-linejoin: round; stroke-width: .91px;"/>
        <rect x="941.99" y="247.8" width="9.83" height="4.66" style="fill: #d93732;"/>
        <line x1="935.63" y1="252.9" x2="958.61" y2="252.9" style="fill: none; stroke: #999; stroke-linejoin: round; stroke-width: .39px;"/>
        <line x1="934.64" y1="254.07" x2="960.08" y2="254.07" style="fill: none; stroke: #999; stroke-linejoin: round; stroke-width: .39px;"/>
        <polygon points="940.88 294.75 938.48 294.75 938.63 237.6 940.88 237.6 940.88 294.75" style="fill: none; stroke: #999; stroke-linejoin: round; stroke-width: 1.04px;"/>
        <polygon points="955.29 294.75 952.89 294.75 953.04 237.6 955.29 237.6 955.29 294.75" style="fill: none; stroke: #999; stroke-linejoin: round; stroke-width: 1.04px;"/>
        <polygon points="940.88 294.75 938.48 294.75 938.63 237.6 940.88 237.6 940.88 294.75" style="fill: #fff;"/>
        <polygon points="955.29 294.75 952.89 294.75 953.04 237.6 955.29 237.6 955.29 294.75" style="fill: #fff;"/>
        <rect x="938.52" y="292.35" width="16.78" height="2.41" style="fill: #fff;"/>
        <polygon points="942.17 299.05 938.24 299.05 938.5 294.75 941.91 294.75 942.17 299.05" style="fill: #fff;"/>
        <polygon points="955.57 299.05 951.64 299.05 951.9 294.75 955.31 294.75 955.57 299.05" style="fill: #fff;"/>
        <rect x="942.63" y="267.19" width="8.56" height="4.45" style="fill: #fff;"/>
        <rect x="950.25" y="256.97" width=".93" height="10.22" style="fill: #fff;"/>
        <rect x="942.63" y="256.97" width=".93" height="10.22" style="fill: #fff;"/>
      </g>
      <g>
        <rect x="303.79" y="199.64" width="370.76" height="154.46" style="fill: #fff;"/>
        <rect x="313.39" y="294.1" width="355.51" height="31.87" style="fill: url(#_未命名漸層_63);"/>
        <rect x="313.39" y="316.62" width="355.51" height="25.83" style="fill: url(#_未命名漸層_97);"/>
        <rect x="311.4" y="283.98" width="357.51" height="3.29" style="fill: #686868;"/>
        <g>
          <line x1="312.86" y1="346.43" x2="312.86" y2="293.26" style="fill: none; stroke: #8e8e8e; stroke-miterlimit: 10; stroke-width: 2.93px;"/>
          <line x1="357.19" y1="346.43" x2="357.19" y2="293.26" style="fill: none; stroke: #8e8e8e; stroke-miterlimit: 10; stroke-width: 2.93px;"/>
          <line x1="401.51" y1="346.43" x2="401.51" y2="293.26" style="fill: none; stroke: #8e8e8e; stroke-miterlimit: 10; stroke-width: 2.93px;"/>
          <line x1="445.83" y1="346.43" x2="445.83" y2="293.26" style="fill: none; stroke: #8e8e8e; stroke-miterlimit: 10; stroke-width: 2.93px;"/>
          <line x1="490.15" y1="346.43" x2="490.15" y2="293.26" style="fill: none; stroke: #8e8e8e; stroke-miterlimit: 10; stroke-width: 2.93px;"/>
          <line x1="534.47" y1="346.43" x2="534.47" y2="293.26" style="fill: none; stroke: #8e8e8e; stroke-miterlimit: 10; stroke-width: 2.93px;"/>
          <line x1="578.79" y1="346.43" x2="578.79" y2="293.26" style="fill: none; stroke: #8e8e8e; stroke-miterlimit: 10; stroke-width: 2.93px;"/>
          <line x1="623.11" y1="346.43" x2="623.11" y2="293.26" style="fill: none; stroke: #8e8e8e; stroke-miterlimit: 10; stroke-width: 2.93px;"/>
          <line x1="667.44" y1="346.43" x2="667.44" y2="293.26" style="fill: none; stroke: #8e8e8e; stroke-miterlimit: 10; stroke-width: 2.93px;"/>
        </g>
        <line x1="313.39" y1="316.54" x2="666.05" y2="316.54" style="fill: none; stroke: #727272; stroke-miterlimit: 10; stroke-width: .93px;"/>
        <rect x="311.4" y="293.22" width="357.51" height="4.03" style="fill: #686868;"/>
        <rect x="311.4" y="342.39" width="357.51" height="4.03" style="fill: #686868;"/>
        <rect x="313.39" y="231.73" width="355.51" height="31.87" style="fill: url(#_未命名漸層_63-2);"/>
        <rect x="313.39" y="215.25" width="355.51" height="25.83" style="fill: url(#_未命名漸層_97-2);"/>
        <rect x="311.4" y="270.43" width="357.51" height="3.29" style="fill: #686868;"/>
        <g>
          <line x1="312.86" y1="211.27" x2="312.86" y2="264.44" style="fill: none; stroke: #8e8e8e; stroke-miterlimit: 10; stroke-width: 2.93px;"/>
          <line x1="357.19" y1="211.27" x2="357.19" y2="264.44" style="fill: none; stroke: #8e8e8e; stroke-miterlimit: 10; stroke-width: 2.93px;"/>
          <line x1="401.51" y1="211.27" x2="401.51" y2="264.44" style="fill: none; stroke: #8e8e8e; stroke-miterlimit: 10; stroke-width: 2.93px;"/>
          <line x1="445.83" y1="211.27" x2="445.83" y2="264.44" style="fill: none; stroke: #8e8e8e; stroke-miterlimit: 10; stroke-width: 2.93px;"/>
          <line x1="490.15" y1="211.27" x2="490.15" y2="264.44" style="fill: none; stroke: #8e8e8e; stroke-miterlimit: 10; stroke-width: 2.93px;"/>
          <line x1="534.47" y1="211.27" x2="534.47" y2="264.44" style="fill: none; stroke: #8e8e8e; stroke-miterlimit: 10; stroke-width: 2.93px;"/>
          <line x1="578.79" y1="211.27" x2="578.79" y2="264.44" style="fill: none; stroke: #8e8e8e; stroke-miterlimit: 10; stroke-width: 2.93px;"/>
          <line x1="623.11" y1="211.27" x2="623.11" y2="264.44" style="fill: none; stroke: #8e8e8e; stroke-miterlimit: 10; stroke-width: 2.93px;"/>
          <line x1="667.44" y1="211.27" x2="667.44" y2="264.44" style="fill: none; stroke: #8e8e8e; stroke-miterlimit: 10; stroke-width: 2.93px;"/>
        </g>
        <line x1="313.39" y1="241.15" x2="666.05" y2="241.15" style="fill: none; stroke: #727272; stroke-miterlimit: 10; stroke-width: .93px;"/>
        <rect x="311.4" y="260.44" width="357.51" height="4.03" style="fill: #686868;"/>
        <rect x="311.4" y="211.27" width="357.51" height="4.03" style="fill: #686868;"/>
        <g style="opacity: .2;">
          <rect x="305.01" y="200.86" width="368.34" height="152.02" style="fill: #4690bf;"/>
          <g>
            <line x1="340.12" y1="200.86" x2="340.12" y2="353.17" style="fill: none; stroke: #fff; stroke-miterlimit: 10; stroke-width: 3.06px;"/>
            <line x1="373.04" y1="200.86" x2="373.04" y2="353.17" style="fill: none; stroke: #fff; stroke-miterlimit: 10; stroke-width: 3.06px;"/>
            <line x1="405.96" y1="200.86" x2="405.96" y2="353.17" style="fill: none; stroke: #fff; stroke-miterlimit: 10; stroke-width: 3.06px;"/>
            <line x1="438.88" y1="200.86" x2="438.88" y2="353.17" style="fill: none; stroke: #fff; stroke-miterlimit: 10; stroke-width: 3.06px;"/>
            <line x1="471.8" y1="200.86" x2="471.8" y2="353.17" style="fill: none; stroke: #fff; stroke-miterlimit: 10; stroke-width: 3.06px;"/>
            <line x1="504.72" y1="200.86" x2="504.72" y2="353.17" style="fill: none; stroke: #fff; stroke-miterlimit: 10; stroke-width: 3.06px;"/>
            <line x1="537.64" y1="200.86" x2="537.64" y2="353.17" style="fill: none; stroke: #fff; stroke-miterlimit: 10; stroke-width: 3.06px;"/>
            <line x1="570.56" y1="200.86" x2="570.56" y2="353.17" style="fill: none; stroke: #fff; stroke-miterlimit: 10; stroke-width: 3.06px;"/>
            <line x1="603.48" y1="200.86" x2="603.48" y2="353.17" style="fill: none; stroke: #fff; stroke-miterlimit: 10; stroke-width: 3.06px;"/>
            <line x1="636.4" y1="200.86" x2="636.4" y2="353.17" style="fill: none; stroke: #fff; stroke-miterlimit: 10; stroke-width: 3.06px;"/>
          </g>
          <rect x="305.01" y="200.86" width="368.34" height="152.02" style="fill: none; stroke: #fff; stroke-linecap: round; stroke-linejoin: round; stroke-width: 2.43px;"/>
        </g>
      </g>
      <line x1="1137.39" y1="332.74" x2="1171.6" y2="332.74" style="fill: none; stroke: #abdaf1; stroke-linecap: round; stroke-miterlimit: 10; stroke-width: 6px;"/>
      <line x1="1334.1" y1="332.74" x2="1311.51" y2="332.74" style="fill: none; stroke: #abdaf1; stroke-linecap: round; stroke-miterlimit: 10; stroke-width: 6px;"/>
      <line x1="1219.92" y1="337.19" x2="1213.5" y2="337.19" style="fill: none; stroke: #abdaf1; stroke-linecap: round; stroke-miterlimit: 10; stroke-width: 6px;"/>
      <g>
        <g>
          <path d="M1286.68,323.89h34.07v5.49c0,5.2-4.22,9.43-9.43,9.43h-15.21c-5.2,0-9.43-4.22-9.43-9.43v-5.49h0Z" style="fill: none; stroke: #fff; stroke-linecap: round; stroke-linejoin: round; stroke-width: 2.47px;"/>
          <rect x="1293.14" y="311.77" width="21.14" height="12.13" style="fill: none; stroke: #fff; stroke-linecap: round; stroke-linejoin: round; stroke-width: 2.47px;"/>
          <rect x="1302.05" y="304.55" width="3.31" height="7.22" style="fill: none; stroke: #fff; stroke-linecap: round; stroke-linejoin: round; stroke-width: 2.47px;"/>
        </g>
        <g>
          <path d="M1286.68,323.89h34.07v5.49c0,5.2-4.22,9.43-9.43,9.43h-15.21c-5.2,0-9.43-4.22-9.43-9.43v-5.49h0Z" style="fill: #494949;"/>
          <rect x="1293.14" y="311.77" width="21.14" height="12.13" style="fill: #494949;"/>
          <rect x="1302.05" y="304.55" width="3.31" height="7.22" style="fill: #494949;"/>
        </g>
      </g>
      <g>
        <g>
          <path d="M1160.25,325.28h34.07v5.49c0,5.2-4.22,9.43-9.43,9.43h-15.21c-5.2,0-9.43-4.22-9.43-9.43v-5.49h0Z" style="fill: none; stroke: #fff; stroke-linecap: round; stroke-linejoin: round; stroke-width: 2.47px;"/>
          <rect x="1166.71" y="313.16" width="21.14" height="12.13" style="fill: none; stroke: #fff; stroke-linecap: round; stroke-linejoin: round; stroke-width: 2.47px;"/>
          <rect x="1175.63" y="305.94" width="3.31" height="7.22" style="fill: none; stroke: #fff; stroke-linecap: round; stroke-linejoin: round; stroke-width: 2.47px;"/>
        </g>
        <g>
          <path d="M1160.25,325.28h34.07v5.49c0,5.2-4.22,9.43-9.43,9.43h-15.21c-5.2,0-9.43-4.22-9.43-9.43v-5.49h0Z" style="fill: #962020;"/>
          <rect x="1166.71" y="313.16" width="21.14" height="12.13" style="fill: #962020;"/>
          <rect x="1175.63" y="305.94" width="3.31" height="7.22" style="fill: #962020;"/>
        </g>
      </g>
      <line x1="1121.07" y1="322.45" x2="1141.07" y2="322.45" style="fill: none; stroke: #abdaf1; stroke-linecap: round; stroke-miterlimit: 10; stroke-width: 6px;"/>
      <line x1="1326.73" y1="315.83" x2="1334.7" y2="315.83" style="fill: none; stroke: #abdaf1; stroke-linecap: round; stroke-miterlimit: 10; stroke-width: 6px;"/>
      <g>
        <g>
          <path d="M1218.82,325.28h34.07v5.49c0,5.2-4.22,9.43-9.43,9.43h-15.21c-5.2,0-9.43-4.22-9.43-9.43v-5.49h0Z" style="fill: none; stroke: #fff; stroke-linecap: round; stroke-linejoin: round; stroke-width: 2.47px;"/>
          <rect x="1225.28" y="313.16" width="21.14" height="12.13" style="fill: none; stroke: #fff; stroke-linecap: round; stroke-linejoin: round; stroke-width: 2.47px;"/>
          <rect x="1234.19" y="305.94" width="3.31" height="7.22" style="fill: none; stroke: #fff; stroke-linecap: round; stroke-linejoin: round; stroke-width: 2.47px;"/>
        </g>
        <g>
          <path d="M1218.82,325.28h34.07v5.49c0,5.2-4.22,9.43-9.43,9.43h-15.21c-5.2,0-9.43-4.22-9.43-9.43v-5.49h0Z" style="fill: #aaa;"/>
          <rect x="1225.28" y="313.16" width="21.14" height="12.13" style="fill: #aaa;"/>
          <rect x="1234.19" y="305.94" width="3.31" height="7.22" style="fill: #aaa;"/>
        </g>
      </g>
      <line x1="1269.78" y1="340.19" x2="1247.19" y2="340.19" style="fill: none; stroke: #abdaf1; stroke-linecap: round; stroke-miterlimit: 10; stroke-width: 6px;"/>
      <g style="clip-path: url(#clippath);">
        <g>
          <path d="M148.83,671.58s16.48-4.72,21.34-7.76c4.86-3.04,14.19-13.19,17.84-13.59,3.65-.41,9.74-3.85,14-4.67,4.26-.81,9.94-2.43,12.78-4.06,2.84-1.62,12.17-6.29,15.01-5.68,2.84.61,19.07,10.75,23.53,11.56s14.61,3.04,22.31,9.33c7.71,6.29,19.58,12.17,26.02,14,6.44,1.83,22.06,3.65,28.55,5.48,6.49,1.83,27.59,21.18,27.59,21.18h-204.82s-4.15-25.79-4.15-25.79Z" style="fill: url(#_未命名漸層_54);"/>
          <path d="M188.01,650.22c3.65-.41,9.74-3.85,14-4.67,4.26-.81,9.94-2.43,12.78-4.06,2.84-1.62,12.17-6.29,15.01-5.68.25.05.61.19,1.06.38.79.79,1.54,1.95,1.71,3.61.41,3.79-.95,10.55-3.79,13.39-2.84,2.84-8.25.95-10.01,3.92-1.76,2.97-5.14,5.95-8.65,6.63-3.52.68-9.55,3.65-11.54,5.14-1.99,1.49-.91,10.14-7.4,12.98-6.49,2.84-14.61,9.47-28.67,10.41-3.36.23-7.73-.34-10.69-.98l-3-19.73s16.48-4.72,21.34-7.76c4.86-3.04,14.19-13.19,17.84-13.59Z" style="fill: url(#linear-gradient);"/>
          <path d="M207.63,697.37s14.21-3.21,19.48-5.84c5.27-2.64,7.77-7.71,11.39-9.53,3.62-1.83,4.83-5.68,6.86-4.87s5.94,5.07,10.98,6.9c5.04,1.83,19.24,3.54,25.13,4.2,5.88.66,13.39,4.32,13.39,4.32l7.76,4.26-94.99.57Z" style="fill: url(#linear-gradient-2);"/>
        </g>
      </g>
      <g style="clip-path: url(#clippath-1);">
        <g>
          <path d="M579.52,673.21s16.48-4.72,21.34-7.76c4.86-3.04,14.19-13.19,17.84-13.59s9.74-3.85,14-4.67c4.26-.81,9.94-2.43,12.78-4.06,2.84-1.62,12.17-6.29,15.01-5.68,2.84.61,19.07,10.75,23.53,11.56,4.46.81,14.61,3.04,22.31,9.33s19.58,12.17,26.02,14c6.44,1.83,22.06,3.65,28.55,5.48,6.49,1.83,27.59,21.18,27.59,21.18h-204.82s-4.15-25.79-4.15-25.79Z" style="fill: url(#_未命名漸層_81);"/>
          <path d="M618.7,651.85c3.65-.41,9.74-3.85,14-4.67,4.26-.81,9.94-2.43,12.78-4.06,2.84-1.62,12.17-6.29,15.01-5.68.25.05.61.19,1.06.38.79.79,1.54,1.95,1.71,3.61.41,3.79-.95,10.55-3.79,13.39-2.84,2.84-8.25.95-10.01,3.92-1.76,2.97-5.14,5.95-8.65,6.63-3.52.68-9.55,3.65-11.54,5.14-1.99,1.49-.91,10.14-7.4,12.98-6.49,2.84-14.61,9.47-28.67,10.41-3.36.23-7.73-.34-10.69-.98l-3-19.73s16.48-4.72,21.34-7.76c4.86-3.04,14.19-13.19,17.84-13.59Z" style="fill: url(#linear-gradient-3);"/>
          <path d="M638.31,698.99s14.21-3.21,19.48-5.84c5.27-2.64,7.77-7.71,11.39-9.53,3.62-1.83,4.83-5.68,6.86-4.87s5.94,5.07,10.98,6.9c5.04,1.83,19.24,3.54,25.13,4.2,5.88.66,13.39,4.32,13.39,4.32l7.76,4.26-94.99.57Z" style="fill: url(#linear-gradient-4);"/>
        </g>
        <g>
          <path d="M1074.99,674.98s-16.48-4.72-21.34-7.76c-4.86-3.04-14.19-13.19-17.84-13.59-3.65-.41-9.74-3.85-14-4.67-4.26-.81-9.94-2.43-12.78-4.06s-12.17-6.29-15.01-5.68c-2.84.61-19.07,10.75-23.53,11.56-4.46.81-14.61,3.04-22.31,9.33-7.71,6.29-19.58,12.17-26.02,14-6.44,1.83-22.06,3.65-28.55,5.48-6.49,1.83-27.59,21.18-27.59,21.18h204.82l4.15-25.79Z" style="fill: url(#_未命名漸層_83);"/>
          <path d="M1035.81,653.63c-3.65-.41-9.74-3.85-14-4.67-4.26-.81-9.94-2.43-12.78-4.06s-12.17-6.29-15.01-5.68c-.25.05-.61.19-1.06.38-.79.79-1.54,1.95-1.71,3.61-.41,3.79.95,10.55,3.79,13.39,2.84,2.84,8.25.95,10.01,3.92,1.76,2.97,5.14,5.95,8.65,6.63,3.52.68,9.55,3.65,11.54,5.14,1.99,1.49.91,10.14,7.4,12.98,6.49,2.84,14.61,9.47,28.67,10.41,3.36.23,7.73-.34,10.69-.98l3-19.73s-16.48-4.72-21.34-7.76c-4.86-3.04-14.19-13.19-17.84-13.59Z" style="fill: url(#linear-gradient-5);"/>
          <path d="M1016.19,700.77s-14.21-3.21-19.48-5.84c-5.27-2.64-7.77-7.71-11.39-9.53-3.62-1.83-4.83-5.68-6.86-4.87-2.03.81-5.94,5.07-10.98,6.9-5.04,1.83-19.24,3.54-25.13,4.2-5.88.66-13.39,4.32-13.39,4.32l-7.76,4.26,94.99.57Z" style="fill: url(#linear-gradient-6);"/>
        </g>
      </g>
      <g style="clip-path: url(#clippath-2);">
        <g>
          <path d="M269.68,140.36s13.41-3.84,17.36-6.32c3.96-2.48,11.55-10.73,14.52-11.06,2.97-.33,7.92-3.14,11.39-3.8,3.47-.66,8.09-1.98,10.4-3.3,2.31-1.32,9.9-5.12,12.21-4.62s15.52,8.75,19.15,9.41c3.63.66,11.88,2.48,18.16,7.59,6.27,5.12,15.93,9.9,21.17,11.39,5.24,1.49,17.95,2.97,23.23,4.46,5.28,1.49,22.45,17.23,22.45,17.23h-166.67s-3.37-20.98-3.37-20.98Z" style="fill: url(#_未命名漸層_81-2);"/>
          <path d="M301.56,122.98c2.97-.33,7.92-3.14,11.39-3.8,3.47-.66,8.09-1.98,10.4-3.3,2.31-1.32,9.9-5.12,12.21-4.62.21.04.5.15.86.31.64.64,1.25,1.59,1.39,2.94.33,3.08-.77,8.58-3.08,10.89-2.31,2.31-6.71.77-8.14,3.19-1.43,2.42-4.18,4.84-7.04,5.39-2.86.55-7.77,2.97-9.39,4.18-1.62,1.21-.74,8.25-6.02,10.56-5.28,2.31-11.88,7.7-23.33,8.47-2.74.18-6.29-.28-8.7-.8l-2.44-16.05s13.41-3.84,17.36-6.32c3.96-2.48,11.55-10.73,14.52-11.06Z" style="fill: url(#linear-gradient-7);"/>
          <path d="M317.52,161.34s11.57-2.61,15.85-4.76c4.29-2.15,6.33-6.27,9.27-7.76,2.94-1.49,3.93-4.62,5.58-3.96s4.83,4.13,8.94,5.61c4.1,1.49,15.66,2.88,20.44,3.42,4.79.54,10.89,3.51,10.89,3.51l6.31,3.47-77.29.46Z" style="fill: url(#linear-gradient-8);"/>
        </g>
        <g>
          <path d="M695.72,140.36s-13.41-3.84-17.36-6.32c-3.96-2.48-11.55-10.73-14.52-11.06s-7.92-3.14-11.39-3.8c-3.47-.66-8.09-1.98-10.4-3.3-2.31-1.32-9.9-5.12-12.21-4.62s-15.52,8.75-19.15,9.41c-3.63.66-11.88,2.48-18.16,7.59-6.27,5.12-15.93,9.9-21.17,11.39-5.24,1.49-17.95,2.97-23.23,4.46-5.28,1.49-22.45,17.23-22.45,17.23h166.67s3.37-20.98,3.37-20.98Z" style="fill: url(#_未命名漸層_81-3);"/>
          <path d="M663.84,122.98c-2.97-.33-7.92-3.14-11.39-3.8-3.47-.66-8.09-1.98-10.4-3.3-2.31-1.32-9.9-5.12-12.21-4.62-.21.04-.5.15-.86.31-.64.64-1.25,1.59-1.39,2.94-.33,3.08.77,8.58,3.08,10.89s6.71.77,8.14,3.19c1.43,2.42,4.18,4.84,7.04,5.39,2.86.55,7.77,2.97,9.39,4.18,1.62,1.21.74,8.25,6.02,10.56,5.28,2.31,11.88,7.7,23.33,8.47,2.74.18,6.29-.28,8.7-.8l2.44-16.05s-13.41-3.84-17.36-6.32c-3.96-2.48-11.55-10.73-14.52-11.06Z" style="fill: url(#linear-gradient-9);"/>
          <path d="M647.88,161.34s-11.57-2.61-15.85-4.76c-4.29-2.15-6.33-6.27-9.27-7.76-2.94-1.49-3.93-4.62-5.58-3.96s-4.83,4.13-8.94,5.61c-4.1,1.49-15.66,2.88-20.44,3.42-4.79.54-10.89,3.51-10.89,3.51l-6.31,3.47,77.29.46Z" style="fill: url(#linear-gradient-10);"/>
        </g>
      </g>
      <g style="clip-path: url(#clippath-3);">
        <g>
          <path d="M1037.11,796.73s-10.51-3.01-13.61-4.95c-3.1-1.94-9.05-8.41-11.38-8.67-2.33-.26-6.21-2.46-8.93-2.98-2.72-.52-6.34-1.55-8.15-2.59-1.81-1.04-7.76-4.01-9.58-3.62-1.81.39-12.16,6.86-15.01,7.38-2.85.52-9.32,1.94-14.24,5.95-4.92,4.01-12.49,7.76-16.6,8.93-4.11,1.16-14.07,2.33-18.21,3.49-4.14,1.16-17.6,13.51-17.6,13.51h130.67l2.64-16.45Z" style="fill: url(#_未命名漸層_62);"/>
          <path d="M1090.15,783.11c-2.33-.26-6.21-2.46-8.93-2.98-2.72-.52-6.34-1.55-8.15-2.59-1.81-1.04-7.76-4.01-9.58-3.62-.16.03-.39.12-.68.24-.5.5-.98,1.25-1.09,2.3-.26,2.42.6,6.73,2.42,8.54,1.81,1.81,5.26.6,6.38,2.5,1.12,1.9,3.28,3.8,5.52,4.23,2.24.43,6.09,2.33,7.36,3.28,1.27.95.58,6.47,4.72,8.28,4.14,1.81,9.32,6.04,18.29,6.64,2.15.14,4.93-.22,6.82-.62l1.91-12.59s-10.51-3.01-13.61-4.95c-3.1-1.94-9.05-8.41-11.38-8.67Z" style="fill: url(#linear-gradient-11);"/>
          <path d="M1077.64,813.18s-9.07-2.05-12.43-3.73c-3.36-1.68-4.96-4.92-7.27-6.08-2.31-1.16-3.08-3.62-4.38-3.11-1.29.52-3.79,3.24-7.01,4.4-3.22,1.16-12.28,2.26-16.03,2.68-3.75.42-8.54,2.75-8.54,2.75l-4.95,2.72,60.6.36Z" style="fill: url(#linear-gradient-12);"/>
        </g>
      </g>
      <g style="clip-path: url(#clippath-4);">
        <g>
          <path d="M551.25,793.79s-11.99-3.43-15.53-5.65c-3.54-2.21-10.33-9.6-12.99-9.89-2.66-.3-7.09-2.8-10.19-3.4-3.1-.59-7.23-1.77-9.3-2.95-2.07-1.18-8.86-4.58-10.92-4.13-2.07.44-13.88,7.82-17.12,8.41-3.25.59-10.63,2.21-16.24,6.79s-14.25,8.86-18.93,10.19c-4.69,1.33-16.05,2.66-20.78,3.99-4.72,1.33-20.08,15.41-20.08,15.41h149.06l3.02-18.77Z" style="fill: url(#_未命名漸層_54-2);"/>
          <path d="M522.73,778.25c-2.66-.3-7.09-2.8-10.19-3.4-3.1-.59-7.23-1.77-9.3-2.95-2.07-1.18-8.86-4.58-10.92-4.13-.18.04-.45.14-.77.27-.57.57-1.12,1.42-1.25,2.63-.3,2.76.69,7.68,2.76,9.74,2.07,2.07,6,.69,7.28,2.85,1.28,2.16,3.74,4.33,6.3,4.82,2.56.49,6.95,2.66,8.4,3.74,1.45,1.08.66,7.38,5.38,9.45s10.63,6.89,20.86,7.58c2.45.16,5.63-.25,7.78-.71l2.18-14.36s-11.99-3.43-15.53-5.65c-3.54-2.21-10.33-9.6-12.99-9.89Z" style="fill: url(#linear-gradient-13);"/>
          <path d="M508.46,812.56s-10.34-2.33-14.18-4.25c-3.83-1.92-5.66-5.61-8.29-6.94-2.63-1.33-3.52-4.13-4.99-3.54s-4.32,3.69-7.99,5.02c-3.67,1.33-14,2.58-18.28,3.06-4.28.48-9.74,3.14-9.74,3.14l-5.65,3.1,69.13.41Z" style="fill: url(#linear-gradient-14);"/>
        </g>
      </g>
      <g style="clip-path: url(#clippath-5);">
        <g>
          <path d="M546.78,516.33s-8.6-2.46-11.14-4.05c-2.54-1.59-7.41-6.88-9.31-7.09s-5.08-2.01-7.31-2.44-5.19-1.27-6.67-2.12-6.35-3.28-7.84-2.96c-1.48.32-9.95,5.61-12.28,6.04-2.33.42-7.62,1.59-11.65,4.87-4.02,3.28-10.22,6.35-13.58,7.31-3.36.95-11.51,1.91-14.9,2.86-3.39.95-14.4,11.05-14.4,11.05h106.91l2.16-13.46Z" style="fill: url(#_未命名漸層_87);"/>
          <path d="M526.33,505.18c-1.91-.21-5.08-2.01-7.31-2.44s-5.19-1.27-6.67-2.12-6.35-3.28-7.84-2.96c-.13.03-.32.1-.55.2-.41.41-.8,1.02-.89,1.89-.21,1.98.49,5.51,1.98,6.99s4.31.49,5.22,2.05c.92,1.55,2.68,3.11,4.52,3.46,1.84.35,4.98,1.91,6.02,2.68s.47,5.29,3.86,6.78c3.39,1.48,7.62,4.94,14.96,5.44,1.76.12,4.04-.18,5.58-.51l1.57-10.3s-8.6-2.46-11.14-4.05c-2.54-1.59-7.41-6.88-9.31-7.09Z" style="fill: url(#linear-gradient-15);"/>
          <path d="M516.09,529.79s-7.42-1.67-10.17-3.05c-2.75-1.38-4.06-4.02-5.94-4.98-1.89-.95-2.52-2.96-3.58-2.54s-3.1,2.65-5.73,3.6c-2.63.95-10.04,1.85-13.11,2.19-3.07.35-6.99,2.25-6.99,2.25l-4.05,2.22,49.58.3Z" style="fill: url(#linear-gradient-16);"/>
        </g>
      </g>
      <g style="clip-path: url(#clippath-6);">
        <g>
          <path d="M580.85,451.95s-8.6-2.46-11.14-4.05c-2.54-1.59-7.41-6.88-9.31-7.09s-5.08-2.01-7.31-2.44c-2.22-.42-5.19-1.27-6.67-2.12-1.48-.85-6.35-3.28-7.84-2.96-1.48.32-9.95,5.61-12.28,6.04-2.33.42-7.62,1.59-11.65,4.87-4.02,3.28-10.22,6.35-13.58,7.31-3.36.95-11.51,1.91-14.9,2.86-3.39.95-14.4,11.05-14.4,11.05h106.91l2.16-13.46Z" style="fill: url(#_未命名漸層_98);"/>
          <path d="M560.4,440.81c-1.91-.21-5.08-2.01-7.31-2.44-2.22-.42-5.19-1.27-6.67-2.12-1.48-.85-6.35-3.28-7.84-2.96-.13.03-.32.1-.55.2-.41.41-.8,1.02-.89,1.89-.21,1.98.49,5.51,1.98,6.99,1.48,1.48,4.31.49,5.22,2.05.92,1.55,2.68,3.11,4.52,3.46,1.84.35,4.98,1.91,6.02,2.68,1.04.78.47,5.29,3.86,6.78,3.39,1.48,7.62,4.94,14.96,5.44,1.76.12,4.04-.18,5.58-.51l1.57-10.3s-8.6-2.46-11.14-4.05c-2.54-1.59-7.41-6.88-9.31-7.09Z" style="fill: url(#linear-gradient-17);"/>
          <path d="M550.16,465.41s-7.42-1.67-10.17-3.05c-2.75-1.38-4.06-4.02-5.94-4.98-1.89-.95-2.52-2.96-3.58-2.54-1.06.42-3.1,2.65-5.73,3.6-2.63.95-10.04,1.85-13.11,2.19-3.07.35-6.99,2.25-6.99,2.25l-4.05,2.22,49.58.3Z" style="fill: url(#linear-gradient-18);"/>
        </g>
      </g>
      <g style="opacity: .5;">
        <path d="M1232.07,364.08l3.08.93c-.6,1.36-1.37,2.7-2.3,4.02-.93,1.32-1.88,2.42-2.85,3.29-.16-.21-.37-.47-.65-.77s-.57-.6-.87-.9c-.3-.3-.57-.54-.8-.71.89-.72,1.73-1.6,2.52-2.63.79-1.04,1.41-2.11,1.88-3.22ZM1228.4,382.06h26.04v2.85h-26.04v-2.85ZM1229.3,372.81h24.27v2.97h-24.27v-2.97ZM1230.9,377.44h20.86v2.68h-20.86v-2.68ZM1231.89,366.18h9.17v2.97h-9.17v-2.97ZM1233.05,386.14l2.47-1.8c.48.39,1.02.83,1.6,1.34.58.5,1.13,1,1.66,1.48s.95.92,1.28,1.31l-2.59,2.04c-.29-.39-.69-.83-1.21-1.34-.51-.5-1.05-1.03-1.62-1.57s-1.1-1.03-1.6-1.46ZM1233.78,370.08l2.09-1.83c.5.41,1.04.86,1.62,1.35.57.49,1.02.95,1.35,1.35l-2.21,2.01c-.29-.41-.71-.89-1.27-1.44-.55-.55-1.08-1.03-1.59-1.44ZM1239.54,371.39h3.64v7.68h-3.64v-7.68ZM1244.17,364.08l3.17.79c-.45,1.47-1.05,2.9-1.82,4.26-.77,1.37-1.57,2.52-2.4,3.45-.19-.19-.45-.42-.77-.67-.32-.25-.65-.5-.99-.76-.34-.25-.63-.46-.86-.61.8-.78,1.51-1.74,2.15-2.9.64-1.15,1.14-2.34,1.51-3.56ZM1245.31,380.67h3.61v7.86c0,.83-.12,1.45-.35,1.86-.23.41-.66.71-1.28.9-.62.17-1.38.28-2.28.32-.9.04-1.96.06-3.16.06-.06-.45-.17-.92-.33-1.43-.17-.5-.34-.97-.54-1.4.48.02.98.04,1.5.06.51.02.97.02,1.38.01.41,0,.69-.01.84-.01.21,0,.37-.04.47-.12.1-.08.15-.21.15-.41v-7.71ZM1244,366.21h10.91v2.94h-10.91v-2.94ZM1246.5,370.13l2.21-1.78c.5.41,1.03.88,1.57,1.43.54.54.96,1.02,1.25,1.43l-2.36,2.04c-.27-.43-.67-.94-1.19-1.53s-1.02-1.12-1.48-1.59Z" style="fill: #fff;"/>
        <path d="M1262.01,364.46l3.2.93c-.5,1.69-1.12,3.4-1.83,5.12-.72,1.73-1.51,3.37-2.37,4.92-.86,1.55-1.78,2.91-2.75,4.07-.08-.29-.21-.67-.41-1.15-.19-.48-.41-.96-.64-1.44-.23-.48-.45-.87-.64-1.16.76-.95,1.47-2.03,2.15-3.24.68-1.21,1.3-2.51,1.86-3.88.56-1.38,1.04-2.76,1.43-4.16ZM1259.68,372.64l3.2-3.23.12.06v22.2h-3.32v-19.03ZM1264.48,370.22h3.03v15.68h-3.03v-15.68ZM1274.43,377.2h3.52v4.28c0,.85-.12,1.74-.36,2.66-.24.92-.68,1.84-1.31,2.75-.63.91-1.52,1.78-2.68,2.6s-2.64,1.58-4.47,2.26c-.23-.39-.57-.83-1.02-1.34-.45-.5-.87-.91-1.28-1.22,1.73-.52,3.1-1.11,4.12-1.75s1.78-1.31,2.28-2.01c.5-.7.83-1.39.98-2.07.15-.68.22-1.33.22-1.95v-4.22ZM1271.09,373.54l3.14.76c-.43,1.34-.98,2.64-1.66,3.91-.68,1.27-1.4,2.33-2.15,3.19-.19-.17-.46-.37-.8-.6-.34-.22-.68-.44-1.02-.65-.34-.21-.64-.39-.89-.52.74-.74,1.4-1.65,1.99-2.74.59-1.09,1.05-2.2,1.38-3.35ZM1268.29,370.74h15.71v2.91h-15.71v-2.91ZM1268.35,381.45h15.77v2.94h-15.77v-2.94ZM1269.66,365.59h9.75v2.85h-9.75v-2.85ZM1271.09,375.84h12.22v2.85h-12.22v-2.85ZM1276.91,386.43l2.36-1.83c.56.5,1.17,1.05,1.83,1.64.66.59,1.3,1.17,1.94,1.75.63.57,1.15,1.08,1.56,1.53l-2.5,2.07c-.37-.45-.85-.97-1.44-1.56-.59-.59-1.22-1.21-1.89-1.85-.67-.64-1.29-1.22-1.85-1.75ZM1278.59,365.59h.35l.55-.15,2.42.29c-.12,1.16-.27,2.34-.45,3.54-.18,1.19-.38,2.28-.6,3.27l-3.23-.35c.14-.7.27-1.44.39-2.21.13-.78.24-1.52.33-2.23s.17-1.31.23-1.82v-.35Z" style="fill: #fff;"/>
        <path d="M1285.64,377.47c1.14-.12,2.45-.25,3.91-.41,1.46-.15,3.02-.33,4.66-.52,1.64-.19,3.26-.39,4.87-.58l.12,2.76c-1.51.21-3.05.42-4.61.63-1.56.2-3.06.39-4.5.57-1.44.17-2.75.35-3.93.52l-.52-2.97ZM1287.82,367.86h3.03v10.94c0,1.03-.03,2.12-.09,3.29-.06,1.16-.17,2.34-.33,3.52-.17,1.18-.41,2.32-.74,3.4-.33,1.09-.77,2.06-1.31,2.91-.17-.17-.43-.37-.76-.6-.33-.22-.66-.44-1-.64-.34-.2-.63-.35-.86-.45.64-1.07,1.11-2.25,1.4-3.55.29-1.3.48-2.63.55-4,.08-1.37.12-2.66.12-3.88v-10.94ZM1289.1,367.86h6.23v2.71h-6.23v-2.71ZM1291.05,364.28l3.49.58c-.29.83-.58,1.65-.87,2.44s-.55,1.48-.79,2.07l-2.71-.61c.17-.66.34-1.4.51-2.23.16-.82.29-1.58.36-2.26ZM1290.85,381.08l2.07-.87c.37.68.73,1.41,1.08,2.2s.62,1.46.81,2.02l-2.21.99c-.16-.58-.4-1.28-.73-2.1-.33-.81-.67-1.56-1.02-2.24ZM1290.9,372.03l2.09-.81c.33.66.65,1.36.95,2.11.3.75.53,1.4.68,1.96l-2.24.93c-.12-.56-.32-1.24-.6-2.02s-.58-1.51-.89-2.17ZM1294.77,367.86h3v20.31c0,.7-.07,1.27-.22,1.72-.15.45-.43.79-.86,1.05-.45.27-.97.44-1.56.49-.59.06-1.31.09-2.17.09-.04-.41-.15-.9-.33-1.48-.19-.58-.37-1.07-.57-1.46.47.02.92.03,1.35.03s.74,0,.92-.03c.15,0,.27-.03.33-.1.07-.07.1-.18.1-.33v-20.28ZM1301.23,365.86h3.08v4.28c0,.91-.08,1.88-.25,2.9-.17,1.02-.5,1.99-1,2.92s-1.24,1.76-2.21,2.47c-.16-.19-.38-.43-.68-.71-.3-.28-.61-.55-.92-.8-.31-.25-.58-.45-.81-.58.83-.6,1.45-1.25,1.85-1.95.4-.7.65-1.42.77-2.17.12-.75.17-1.46.17-2.14v-4.22ZM1300.01,378.81h11.84v12.75h-3.35v-9.52h-5.3v9.66h-3.2v-12.89ZM1301.29,387.36h9.02v3.17h-9.02v-3.17ZM1307.23,365.86h3.14v7.86c0,.43.02.72.06.89.04.17.14.25.29.25h.93c.17,0,.39-.01.64-.04.25-.03.47-.07.64-.13.04.41.08.87.12,1.38.04.51.08.96.12,1.32-.19.06-.43.11-.7.15-.27.04-.54.06-.81.06h-1.16c-.91,0-1.6-.13-2.05-.39-.46-.26-.77-.68-.95-1.27-.17-.58-.26-1.34-.26-2.27v-7.8Z" style="fill: #fff;"/>
        <path d="M1316.86,367.86h2.85v10.91c0,1.03-.03,2.12-.09,3.29-.06,1.16-.17,2.34-.35,3.52-.17,1.18-.42,2.32-.73,3.4-.31,1.09-.74,2.06-1.28,2.91-.17-.17-.41-.37-.71-.58-.3-.21-.61-.42-.92-.63-.31-.2-.58-.35-.81-.45.62-1.07,1.08-2.26,1.37-3.56.29-1.31.48-2.65.55-4.02.08-1.37.12-2.66.12-3.88v-10.91ZM1314.88,377.7c1.03-.1,2.2-.2,3.51-.32,1.31-.12,2.69-.25,4.15-.41,1.46-.15,2.92-.3,4.39-.44l.09,2.59c-2.08.25-4.16.5-6.24.73-2.09.23-3.92.45-5.51.64l-.38-2.79ZM1318.29,367.86h6.23v2.71h-6.23v-2.71ZM1320.18,364.31l3.38.58c-.27.83-.54,1.65-.8,2.46-.26.81-.51,1.48-.74,2.02l-2.79-.58c.19-.62.38-1.35.57-2.2.18-.84.31-1.6.39-2.28ZM1319.65,372.64l1.95-.81c.35.54.66,1.15.93,1.83s.45,1.28.52,1.8l-2.07.9c-.08-.52-.24-1.13-.49-1.83-.25-.7-.53-1.33-.84-1.89ZM1319.68,381.63l1.92-.81c.35.56.66,1.18.93,1.86.27.68.45,1.27.52,1.77l-2.07.93c-.08-.54-.24-1.16-.48-1.86-.24-.7-.52-1.33-.83-1.89ZM1323.41,367.86h2.85v20.4c0,.7-.07,1.27-.22,1.72s-.42.8-.83,1.05c-.41.25-.9.41-1.47.48-.57.07-1.28.1-2.11.1-.04-.43-.15-.93-.32-1.5-.17-.57-.35-1.05-.52-1.44.47.02.91.03,1.32.04.42.01.71,0,.89-.01.14-.02.24-.06.31-.12.07-.06.1-.17.1-.35v-20.37ZM1327.48,369.29h14.17v22.2h-3.4v-18.97h-7.54v19.18h-3.23v-22.41ZM1328.99,378.31h10.77v3.06h-10.77v-3.06ZM1328.99,387.04h10.77v3.23h-10.77v-3.23ZM1332.86,364.34l3.75.38c-.29,1.15-.6,2.29-.93,3.43-.33,1.15-.64,2.11-.93,2.91l-3.08-.41c.17-.6.34-1.27.49-2.01.16-.74.3-1.48.42-2.23.13-.75.22-1.44.28-2.08Z" style="fill: #fff;"/>
      </g>
      <g>
        <g>
          <circle cx="409.09" cy="619.07" r="24.28" style="fill: #fff; filter: url(#drop-shadow-1);"/>
          <g>
            <path d="M427.27,619.07c0-10.04-8.14-18.18-18.18-18.18s-18.18,8.14-18.18,18.18c0,7.93,5.09,14.65,12.17,17.14l6.01,11.82,6.01-11.82c7.08-2.48,12.17-9.21,12.17-17.14Z" style="fill: url(#Degradado_sin_nombre_5);"/>
            <path d="M395.01,630.53c2.1,2.57,4.88,4.56,8.08,5.68l6.01,11.82,6.01-11.82c7.08-2.48,12.17-9.21,12.17-17.14,0-2.4-.48-4.68-1.32-6.77-10.49,12.72-23.22,16.89-30.94,18.23Z" style="fill: url(#Degradado_sin_nombre_11); mix-blend-mode: soft-light; opacity: .75;"/>
          </g>
        </g>
        <path d="M402.5,630.28v-21.49h12.94v3.23h-9.1v5.47h7.71v3.23h-7.71v6.34h9.42v3.23h-13.26Z" style="fill: #fff;"/>
      </g>
      <g>
        <g>
          <circle cx="1082.49" cy="655.61" r="24.28" style="fill: #fff; filter: url(#drop-shadow-2);"/>
          <g>
            <path d="M1100.67,655.61c0-10.04-8.14-18.18-18.18-18.18s-18.18,8.14-18.18,18.18c0,7.93,5.09,14.65,12.17,17.14l6.01,11.82,6.01-11.82c7.08-2.48,12.17-9.21,12.17-17.14Z" style="fill: url(#Degradado_sin_nombre_5-2);"/>
            <path d="M1068.4,667.07c2.1,2.57,4.88,4.56,8.08,5.68l6.01,11.82,6.01-11.82c7.08-2.48,12.17-9.21,12.17-17.14,0-2.4-.48-4.68-1.32-6.77-10.49,12.72-23.22,16.89-30.94,18.23Z" style="fill: url(#Degradado_sin_nombre_11-2); mix-blend-mode: soft-light; opacity: .75;"/>
          </g>
        </g>
        <path d="M1072.13,666.71l7.87-24.12h5.03l7.83,24.12h-4.54l-3.65-12.83c-.39-1.28-.76-2.6-1.11-3.95-.35-1.35-.71-2.68-1.08-3.98h-.13c-.33,1.33-.67,2.66-1.05,4-.37,1.34-.74,2.65-1.11,3.93l-3.69,12.83h-4.37ZM1076.76,660.18v-3.36h11.39v3.36h-11.39Z" style="fill: #fff;"/>
      </g>
      <g>
        <g>
          <circle cx="619.75" cy="416.47" r="24.28" style="fill: #fff; filter: url(#drop-shadow-3);"/>
          <g>
            <path d="M637.92,417.04c0-10.04-8.14-18.18-18.18-18.18-10.04,0-18.18,8.14-18.18,18.18,0,7.93,5.09,14.65,12.17,17.14l6.01,11.82,6.01-11.82c7.08-2.48,12.17-9.21,12.17-17.14Z" style="fill: url(#Degradado_sin_nombre_5-3);"/>
            <path d="M605.66,428.5c2.1,2.57,4.88,4.56,8.08,5.68l6.01,11.82,6.01-11.82c7.08-2.48,12.17-9.21,12.17-17.14,0-2.4-.48-4.68-1.32-6.77-10.49,12.72-23.22,16.89-30.94,18.23Z" style="fill: url(#Degradado_sin_nombre_11-3); mix-blend-mode: soft-light; opacity: .75;"/>
          </g>
        </g>
        <path d="M612.32,426.25v-19.56h3.49v7.86h7.89v-7.86h3.47v19.56h-3.47v-8.65h-7.89v8.65h-3.49Z" style="fill: #fff;"/>
      </g>
      <g>
        <g>
          <circle cx="707.5" cy="224.83" r="24.28" style="fill: #fff; filter: url(#drop-shadow-4);"/>
          <g>
            <path d="M725.68,225.4c0-10.04-8.14-18.18-18.18-18.18-10.04,0-18.18,8.14-18.18,18.18,0,7.93,5.09,14.65,12.17,17.14l6.01,11.82,6.01-11.82c7.08-2.48,12.17-9.21,12.17-17.14Z" style="fill: url(#Degradado_sin_nombre_5-4);"/>
            <path d="M693.42,236.85c2.1,2.57,4.88,4.56,8.08,5.68l6.01,11.82,6.01-11.82c7.08-2.48,12.17-9.21,12.17-17.14,0-2.4-.48-4.68-1.32-6.77-10.49,12.72-23.22,16.89-30.94,18.23Z" style="fill: url(#Degradado_sin_nombre_11-4); mix-blend-mode: soft-light; opacity: .75;"/>
          </g>
        </g>
        <path d="M706.73,235.93c-1.58,0-2.93-.32-4.03-.96-1.11-.64-2.03-1.61-2.76-2.89l2.99-2.22c.43.79.93,1.37,1.48,1.73.55.37,1.15.55,1.78.55.97,0,1.7-.3,2.19-.89.49-.59.74-1.65.74-3.17v-14.53h4.39v14.88c0,1.38-.24,2.64-.71,3.78-.47,1.14-1.21,2.04-2.21,2.71-1,.67-2.29,1.01-3.87,1.01Z" style="fill: #fff;"/>
      </g>
      <g>
        <g>
          <circle cx="707.5" cy="312.95" r="24.28" style="fill: #fff; filter: url(#drop-shadow-5);"/>
          <g>
            <path d="M725.68,313.52c0-10.04-8.14-18.18-18.18-18.18-10.04,0-18.18,8.14-18.18,18.18,0,7.93,5.09,14.65,12.17,17.14l6.01,11.82,6.01-11.82c7.08-2.48,12.17-9.21,12.17-17.14Z" style="fill: url(#Degradado_sin_nombre_5-5);"/>
            <path d="M693.42,324.98c2.1,2.57,4.88,4.56,8.08,5.68l6.01,11.82,6.01-11.82c7.08-2.48,12.17-9.21,12.17-17.14,0-2.4-.48-4.68-1.32-6.77-10.49,12.72-23.22,16.89-30.94,18.23Z" style="fill: url(#Degradado_sin_nombre_11-5); mix-blend-mode: soft-light; opacity: .75;"/>
          </g>
        </g>
        <path d="M705.3,323.98v-22.06h4.41v22.06h-4.41Z" style="fill: #fff;"/>
      </g>
      <g>
        <g>
          <circle cx="625.61" cy="64.3" r="24.28" style="fill: #fff; filter: url(#drop-shadow-6);"/>
          <g>
            <path d="M643.75,62.69c-.6-10.02-9.21-17.66-19.23-17.06-10.02.6-17.66,9.21-17.06,19.23.47,7.91,5.95,14.32,13.17,16.38l6.7,11.44,5.29-12.16c6.92-2.9,11.6-9.92,11.12-17.83Z" style="fill: url(#Degradado_sin_nombre_5-6);"/>
            <path d="M612.23,76.05c2.25,2.44,5.14,4.26,8.4,5.19l6.7,11.44,5.29-12.16c6.92-2.9,11.6-9.92,11.12-17.83-.14-2.39-.75-4.64-1.72-6.68-9.71,13.32-22.17,18.24-29.8,20.04Z" style="fill: url(#Degradado_sin_nombre_11-6); mix-blend-mode: soft-light; opacity: .75;"/>
          </g>
        </g>
        <path d="M618.08,75.39v-23.68h4.23v10.73h.1l8.39-10.73h4.71l-7.31,9.23,8.52,14.45h-4.65l-6.41-11.12-3.36,4.23v6.89h-4.23Z" style="fill: #fff;"/>
      </g>
      <g>
        <g>
          <circle cx="409.35" cy="782.62" r="24.28" style="fill: #fff; filter: url(#drop-shadow-7);"/>
          <g>
            <path d="M427.52,782.62c0-10.04-8.14-18.18-18.18-18.18s-18.18,8.14-18.18,18.18c0,7.93,5.09,14.65,12.17,17.14l6.01,11.82,6.01-11.82c7.08-2.48,12.17-9.21,12.17-17.14Z" style="fill: url(#Degradado_sin_nombre_5-7);"/>
            <path d="M395.26,794.08c2.1,2.57,4.88,4.56,8.08,5.68l6.01,11.82,6.01-11.82c7.08-2.48,12.17-9.21,12.17-17.14,0-2.4-.48-4.68-1.32-6.77-10.49,12.72-23.22,16.89-30.94,18.23Z" style="fill: url(#Degradado_sin_nombre_11-7); mix-blend-mode: soft-light; opacity: .75;"/>
          </g>
        </g>
        <path d="M403.53,795.58v-22.95h13.85v3.45h-9.75v6.49h8.32v3.45h-8.32v9.57h-4.1Z" style="fill: #fff;"/>
      </g>
      <g>
        <g>
          <circle cx="619.64" cy="497.48" r="24.28" style="fill: #fff; filter: url(#drop-shadow-8);"/>
          <g>
            <path d="M637.82,497.82c0-10.04-8.14-18.18-18.18-18.18-10.04,0-18.18,8.14-18.18,18.18,0,7.93,5.09,14.65,12.17,17.14l6.01,11.82,6.01-11.82c7.08-2.48,12.17-9.21,12.17-17.14Z" style="fill: url(#Degradado_sin_nombre_5-8);"/>
            <path d="M605.55,509.28c2.1,2.57,4.88,4.56,8.08,5.68l6.01,11.82,6.01-11.82c7.08-2.48,12.17-9.21,12.17-17.14,0-2.4-.48-4.68-1.32-6.77-10.49,12.72-23.22,16.89-30.94,18.23Z" style="fill: url(#Degradado_sin_nombre_11-8); mix-blend-mode: soft-light; opacity: .75;"/>
          </g>
        </g>
        <path d="M619.15,508c-1.83,0-3.46-.41-4.9-1.22-1.44-.81-2.58-2-3.42-3.55-.84-1.56-1.26-3.45-1.26-5.68,0-1.66.25-3.15.74-4.45.49-1.3,1.18-2.41,2.04-3.32.87-.92,1.89-1.61,3.05-2.09,1.16-.48,2.42-.72,3.78-.72,1.45,0,2.67.27,3.68.8,1.01.53,1.83,1.13,2.47,1.78l-1.95,2.31c-.51-.49-1.09-.91-1.72-1.25-.63-.34-1.42-.51-2.38-.51-1.19,0-2.23.3-3.13.89-.9.59-1.6,1.44-2.1,2.52-.5,1.09-.76,2.39-.76,3.91s.23,2.86.7,3.97,1.16,1.96,2.09,2.55c.93.59,2.06.89,3.42.89.57,0,1.11-.08,1.62-.23.51-.15.93-.37,1.24-.64v-4.37h-3.82v-2.99h7.08v8.98c-.68.68-1.58,1.25-2.72,1.72-1.14.47-2.39.7-3.76.7Z" style="fill: #fff;"/>
      </g>
      <g>
        <g>
          <circle cx="1088.15" cy="783.87" r="24.28" style="fill: #fff; filter: url(#drop-shadow-9);"/>
          <g>
            <path d="M1106.33,783.87c0-10.04-8.14-18.18-18.18-18.18s-18.18,8.14-18.18,18.18c0,7.93,5.09,14.65,12.17,17.14l6.01,11.82,6.01-11.82c7.08-2.48,12.17-9.21,12.17-17.14Z" style="fill: url(#Degradado_sin_nombre_5-9);"/>
            <path d="M1074.07,795.32c2.1,2.57,4.88,4.56,8.08,5.68l6.01,11.82,6.01-11.82c7.08-2.48,12.17-9.21,12.17-17.14,0-2.4-.48-4.68-1.32-6.77-10.49,12.72-23.22,16.89-30.94,18.23Z" style="fill: url(#Degradado_sin_nombre_11-9); mix-blend-mode: soft-light; opacity: .75;"/>
          </g>
        </g>
        <path d="M1080.99,794.85v-22.33h7.16c1.53,0,2.9.18,4.09.53,1.2.35,2.14.93,2.83,1.72.69.79,1.03,1.88,1.03,3.25,0,.7-.12,1.38-.36,2.04-.24.65-.6,1.23-1.06,1.72-.46.49-1.02.85-1.66,1.07v.15c1.23.26,2.25.83,3.05,1.71.8.88,1.21,2.07,1.21,3.58s-.37,2.72-1.12,3.69c-.75.97-1.76,1.69-3.05,2.16-1.29.47-2.76.71-4.41.71h-7.71ZM1084.98,781.73h2.81c1.55,0,2.67-.28,3.37-.85.7-.56,1.04-1.33,1.04-2.3,0-1.07-.36-1.83-1.09-2.28-.73-.45-1.81-.68-3.27-.68h-2.87v6.1ZM1084.98,791.73h3.32c1.63,0,2.88-.3,3.76-.89.88-.6,1.31-1.51,1.31-2.77s-.43-2.04-1.3-2.57c-.87-.52-2.13-.78-3.78-.78h-3.32v7.01Z" style="fill: #fff;"/>
      </g>
      <text transform="translate(1171.56 354.83)" style="fill: #fff; font-family: NotoSansTC-Medium, &apos;Noto Sans TC&apos;; font-size: 10.24px; font-weight: 500; letter-spacing: .07em;"><tspan x="0" y="0">煤料</tspan></text>
      <text transform="translate(1296.77 352.61)" style="fill: #fff; font-family: NotoSansTC-Medium, &apos;Noto Sans TC&apos;; font-size: 10.24px; font-weight: 500; letter-spacing: .07em;"><tspan x="0" y="0">鐵礦</tspan></text>
      <text transform="translate(1229.76 353.61)" style="fill: #fff; font-family: NotoSansTC-Medium, &apos;Noto Sans TC&apos;; font-size: 10.24px; font-weight: 500; letter-spacing: .07em;"><tspan x="0" y="0">石料</tspan></text>
      <circle cx="1163.83" cy="350.94" r="2.78" style="fill: #fff;"/>
      <circle cx="1224.15" cy="350.94" r="2.78" style="fill: #fff;"/>
      <circle cx="1290.97" cy="349.95" r="2.78" style="fill: #fff;"/>
    </g>
  </g>
</svg>