<?xml version="1.0" encoding="UTF-8"?>
<svg id="uuid-649e3f6f-8048-49e1-9064-ada6b1a10167" data-name="圖層 7" xmlns="http://www.w3.org/2000/svg" viewBox="0 0 671 335">
  <g>
    <polygon points="403.84 239.71 328.35 239.71 348.73 24.48 374.27 24.48 403.84 239.71" style="fill: none; stroke: #25669b; stroke-linecap: round; stroke-linejoin: round; stroke-width: 12px;"/>
    <polygon points="462.29 285.39 328.35 285.39 328.35 239.71 428.22 239.71 462.29 257.26 462.29 285.39" style="fill: none; stroke: #25669b; stroke-linecap: round; stroke-linejoin: round; stroke-width: 12px;"/>
    <rect x="87.58" y="239.71" width="240.77" height="10.45" style="fill: none; stroke: #25669b; stroke-linecap: round; stroke-linejoin: round; stroke-width: 12px;"/>
    <rect x="382.54" y="107.58" width="240.77" height="10.45" style="fill: none; stroke: #25669b; stroke-linecap: round; stroke-linejoin: round; stroke-width: 12px;"/>
    <polygon points="353.52 29.65 97.26 245.78 92.59 240.61 348.85 24.48 353.52 29.65" style="fill: none; stroke: #25669b; stroke-linecap: round; stroke-linejoin: round; stroke-width: 12px;"/>
    <polygon points="371.16 30.7 620.17 112.81 623.32 106.59 374.31 24.48 371.16 30.7" style="fill: none; stroke: #25669b; stroke-linecap: round; stroke-linejoin: round; stroke-width: 12px;"/>
  </g>
  <g>
    <polygon points="403.84 239.71 328.35 239.71 348.73 24.48 374.27 24.48 403.84 239.71" style="fill: #3893ec;"/>
    <polygon points="462.29 285.39 328.35 285.39 328.35 239.71 428.22 239.71 462.29 257.26 462.29 285.39" style="fill: #3893ec;"/>
    <rect x="87.58" y="239.71" width="240.77" height="10.45" style="fill: #3893ec;"/>
    <rect x="382.54" y="107.58" width="240.77" height="10.45" style="fill: #3893ec;"/>
    <polygon points="353.52 29.65 97.26 245.78 92.59 240.61 348.85 24.48 353.52 29.65" style="fill: #3893ec;"/>
    <polygon points="371.16 30.7 620.17 112.81 623.32 106.59 374.31 24.48 371.16 30.7" style="fill: #3893ec;"/>
  </g>
  <path d="M650.34,112.81c0,14.92-12.1,27.02-27.02,27.02-14.92,0-27.02-12.1-27.02-27.02,0-14.92,12.1-27.02,27.02-27.02,14.92,0,27.02,12.1,27.02,27.02Z" style="fill: #3893ec;"/>
  <g>
    <g>
      <g id="uuid-5ff8a5bb-b4df-447c-8cad-699fe97201b7" data-name="&amp;lt;放射狀重複&amp;gt;">
        <g>
          <g>
            <polygon points="90.06 191.2 68.24 205.49 56.82 188.05 88.69 167.18 90.06 191.2" style="fill: none; stroke: #25669b; stroke-linecap: round; stroke-linejoin: round; stroke-width: 7px;"/>
            <polygon points="89.86 215.26 66.54 221.95 56.82 188.01 85.91 193.92 89.86 215.26" style="fill: none; stroke: #25669b; stroke-linecap: round; stroke-linejoin: round; stroke-width: 7px;"/>
          </g>
          <polygon points="90.06 191.2 68.24 205.49 56.82 188.05 88.69 167.18 90.06 191.2" style="fill: #3d99ec;"/>
          <polygon points="89.86 215.26 66.54 221.95 56.82 188.01 85.91 193.92 89.86 215.26" style="fill: #3d99ec;"/>
        </g>
      </g>
      <g id="uuid-75aff3b1-b23e-42e5-bc8e-b37ca15a7665" data-name="&amp;lt;放射狀重複&amp;gt;">
        <g>
          <g>
            <polygon points="124.81 205.1 99.28 199.77 103.53 179.37 140.82 187.15 124.81 205.1" style="fill: none; stroke: #25669b; stroke-linecap: round; stroke-linejoin: round; stroke-width: 7px;"/>
            <polygon points="107.66 221.98 86.44 210.21 103.56 179.34 119.96 204.09 107.66 221.98" style="fill: none; stroke: #25669b; stroke-linecap: round; stroke-linejoin: round; stroke-width: 7px;"/>
          </g>
          <polygon points="124.81 205.1 99.28 199.77 103.53 179.37 140.82 187.15 124.81 205.1" style="fill: #3d99ec;"/>
          <polygon points="107.66 221.98 86.44 210.21 103.56 179.34 119.96 204.09 107.66 221.98" style="fill: #3d99ec;"/>
        </g>
      </g>
      <g id="uuid-0d57276a-550e-4858-824b-61160c91c320" data-name="&amp;lt;放射狀重複&amp;gt;">
        <g>
          <g>
            <polygon points="139.55 239.5 125.26 217.68 142.7 206.26 163.57 238.13 139.55 239.5" style="fill: none; stroke: #25669b; stroke-linecap: round; stroke-linejoin: round; stroke-width: 7px;"/>
            <polygon points="115.49 239.31 108.81 215.98 142.74 206.26 136.84 235.36 115.49 239.31" style="fill: none; stroke: #25669b; stroke-linecap: round; stroke-linejoin: round; stroke-width: 7px;"/>
          </g>
          <polygon points="139.55 239.5 125.26 217.68 142.7 206.26 163.57 238.13 139.55 239.5" style="fill: #3d99ec;"/>
          <polygon points="115.49 239.31 108.81 215.98 142.74 206.26 136.84 235.36 115.49 239.31" style="fill: #3d99ec;"/>
        </g>
      </g>
      <g id="uuid-c761f18e-8057-4136-9300-7762f67a2b3f" data-name="&amp;lt;放射狀重複&amp;gt;">
        <g>
          <g>
            <polygon points="125.65 274.25 130.98 248.72 151.39 252.98 143.61 290.27 125.65 274.25" style="fill: none; stroke: #25669b; stroke-linecap: round; stroke-linejoin: round; stroke-width: 7px;"/>
            <polygon points="108.78 257.1 120.54 235.89 151.41 253.01 126.67 269.4 108.78 257.1" style="fill: none; stroke: #25669b; stroke-linecap: round; stroke-linejoin: round; stroke-width: 7px;"/>
          </g>
          <polygon points="125.65 274.25 130.98 248.72 151.39 252.98 143.61 290.27 125.65 274.25" style="fill: #3d99ec;"/>
          <polygon points="108.78 257.1 120.54 235.89 151.41 253.01 126.67 269.4 108.78 257.1" style="fill: #3d99ec;"/>
        </g>
      </g>
      <g id="uuid-afb646a0-b8c1-43aa-8cfc-125965e22fab" data-name="&amp;lt;放射狀重複&amp;gt;">
        <g>
          <g>
            <polygon points="91.25 289 113.08 274.71 124.49 292.15 92.62 313.02 91.25 289" style="fill: none; stroke: #25669b; stroke-linecap: round; stroke-linejoin: round; stroke-width: 7px;"/>
            <polygon points="91.45 264.94 114.77 258.26 124.49 292.19 95.4 286.28 91.45 264.94" style="fill: none; stroke: #25669b; stroke-linecap: round; stroke-linejoin: round; stroke-width: 7px;"/>
          </g>
          <polygon points="91.25 289 113.08 274.71 124.49 292.15 92.62 313.02 91.25 289" style="fill: #3d99ec;"/>
          <polygon points="91.45 264.94 114.77 258.26 124.49 292.19 95.4 286.28 91.45 264.94" style="fill: #3d99ec;"/>
        </g>
      </g>
      <g id="uuid-243bf5ed-bace-46df-b5a1-7db3b58a23c0" data-name="&amp;lt;放射狀重複&amp;gt;">
        <g>
          <g>
            <polygon points="56.5 275.1 82.04 280.43 77.78 300.83 40.49 293.05 56.5 275.1" style="fill: none; stroke: #25669b; stroke-linecap: round; stroke-linejoin: round; stroke-width: 7px;"/>
            <polygon points="73.65 258.22 94.87 269.99 77.75 300.86 61.35 276.11 73.65 258.22" style="fill: none; stroke: #25669b; stroke-linecap: round; stroke-linejoin: round; stroke-width: 7px;"/>
          </g>
          <polygon points="56.5 275.1 82.04 280.43 77.78 300.83 40.49 293.05 56.5 275.1" style="fill: #3d99ec;"/>
          <polygon points="73.65 258.22 94.87 269.99 77.75 300.86 61.35 276.11 73.65 258.22" style="fill: #3d99ec;"/>
        </g>
      </g>
      <g id="uuid-6e649a11-6733-476a-b206-1ba14af6e0fd" data-name="&amp;lt;放射狀重複&amp;gt;">
        <g>
          <g>
            <polygon points="41.76 240.7 56.05 262.52 38.61 273.94 17.74 242.07 41.76 240.7" style="fill: none; stroke: #25669b; stroke-linecap: round; stroke-linejoin: round; stroke-width: 7px;"/>
            <polygon points="65.82 240.89 72.5 264.22 38.57 273.94 44.47 244.84 65.82 240.89" style="fill: none; stroke: #25669b; stroke-linecap: round; stroke-linejoin: round; stroke-width: 7px;"/>
          </g>
          <polygon points="41.76 240.7 56.05 262.52 38.61 273.94 17.74 242.07 41.76 240.7" style="fill: #3d99ec;"/>
          <polygon points="65.82 240.89 72.5 264.22 38.57 273.94 44.47 244.84 65.82 240.89" style="fill: #3d99ec;"/>
        </g>
      </g>
      <g id="uuid-15189378-dac4-4e64-bd55-7d79282a1423" data-name="&amp;lt;放射狀重複&amp;gt;">
        <g>
          <g>
            <polygon points="55.66 205.95 50.33 231.48 29.93 227.22 37.7 189.93 55.66 205.95" style="fill: none; stroke: #25669b; stroke-linecap: round; stroke-linejoin: round; stroke-width: 7px;"/>
            <polygon points="72.53 223.1 60.77 244.31 29.9 227.2 54.64 210.8 72.53 223.1" style="fill: none; stroke: #25669b; stroke-linecap: round; stroke-linejoin: round; stroke-width: 7px;"/>
          </g>
          <polygon points="55.66 205.95 50.33 231.48 29.93 227.22 37.7 189.93 55.66 205.95" style="fill: #3d99ec;"/>
          <polygon points="72.53 223.1 60.77 244.31 29.9 227.2 54.64 210.8 72.53 223.1" style="fill: #3d99ec;"/>
        </g>
      </g>
    </g>
    <circle cx="90.66" cy="240.1" r="27.14" style="fill: #3d95eb;"/>
    <path d="M90.7,269.52c-11.41,0-22.28-6.67-27.07-17.8h0c-6.41-14.9.5-32.24,15.41-38.65,14.9-6.41,32.24.5,38.65,15.41,6.41,14.9-.5,32.24-15.41,38.65-3.78,1.62-7.71,2.39-11.58,2.39ZM67.81,249.92c5.42,12.6,20.07,18.43,32.66,13.02,12.59-5.41,18.43-20.07,13.02-32.66-5.42-12.59-20.07-18.43-32.66-13.02-12.59,5.41-18.43,20.07-13.02,32.66h0Z" style="fill: #25669b;"/>
    <path d="M90.68,261.12c-8.15,0-15.92-4.77-19.34-12.72-2.22-5.16-2.29-10.87-.21-16.09,2.08-5.22,6.06-9.31,11.22-11.53,10.65-4.58,23.04.36,27.61,11.01,4.58,10.65-.36,23.04-11.01,27.62-2.7,1.16-5.51,1.71-8.27,1.71ZM90.63,222.33c-2.34,0-4.71.46-6.99,1.44-9,3.87-13.17,14.34-9.3,23.34,3.87,9,14.34,13.17,23.34,9.3,9-3.87,13.17-14.34,9.3-23.34-2.89-6.72-9.46-10.75-16.35-10.75Z" style="fill: #25669b;"/>
  </g>
  <path d="M650.34,112.81c0,14.92-12.1,27.02-27.02,27.02-14.92,0-27.02-12.1-27.02-27.02,0-14.92,12.1-27.02,27.02-27.02,14.92,0,27.02,12.1,27.02,27.02Z" style="fill: none; stroke: #25669b; stroke-miterlimit: 10; stroke-width: 6px;"/>
</svg>