<?xml version="1.0" encoding="UTF-8"?>
<svg id="uuid-3a87cfe8-2404-43c7-a982-f5ff8f9e146a" data-name="圖層 7" xmlns="http://www.w3.org/2000/svg" viewBox="0 0 671 335">
  <g>
    <polygon points="405.56 239.71 330.06 239.71 350.44 24.48 375.99 24.48 405.56 239.71" style="fill: none; stroke: #b25d42; stroke-linecap: round; stroke-linejoin: round; stroke-width: 12px;"/>
    <polygon points="464 285.39 330.06 285.39 330.06 239.71 429.94 239.71 464 257.26 464 285.39" style="fill: none; stroke: #b25d42; stroke-linecap: round; stroke-linejoin: round; stroke-width: 12px;"/>
    <rect x="89.29" y="239.71" width="240.77" height="10.45" style="fill: none; stroke: #b25d42; stroke-linecap: round; stroke-linejoin: round; stroke-width: 12px;"/>
    <rect x="384.26" y="107.58" width="240.77" height="10.45" style="fill: none; stroke: #b25d42; stroke-linecap: round; stroke-linejoin: round; stroke-width: 12px;"/>
    <polygon points="355.23 29.65 98.98 245.78 94.3 240.61 350.56 24.48 355.23 29.65" style="fill: none; stroke: #b25d42; stroke-linecap: round; stroke-linejoin: round; stroke-width: 12px;"/>
    <polygon points="372.87 30.7 621.88 112.81 625.03 106.59 376.02 24.48 372.87 30.7" style="fill: none; stroke: #b25d42; stroke-linecap: round; stroke-linejoin: round; stroke-width: 12px;"/>
  </g>
  <g>
    <polygon points="405.56 239.71 330.06 239.71 350.44 24.48 375.99 24.48 405.56 239.71" style="fill: #fd9873;"/>
    <polygon points="464 285.39 330.06 285.39 330.06 239.71 429.94 239.71 464 257.26 464 285.39" style="fill: #fd9873;"/>
    <rect x="89.29" y="239.71" width="240.77" height="10.45" style="fill: #fd9873;"/>
    <rect x="384.26" y="107.58" width="240.77" height="10.45" style="fill: #fd9873;"/>
    <polygon points="355.23 29.65 98.98 245.78 94.3 240.61 350.56 24.48 355.23 29.65" style="fill: #fd9873;"/>
    <polygon points="372.87 30.7 621.88 112.81 625.03 106.59 376.02 24.48 372.87 30.7" style="fill: #fd9873;"/>
  </g>
  <circle cx="625.03" cy="112.81" r="27.02" style="fill: #fd9873;"/>
  <g>
    <g>
      <g id="uuid-28a8116a-c23e-42f0-9dba-606150c28186" data-name="&amp;lt;放射狀重複&amp;gt;">
        <g>
          <g>
            <polygon points="91.77 191.2 69.95 205.49 58.53 188.05 90.4 167.18 91.77 191.2" style="fill: none; stroke: #b25d42; stroke-linecap: round; stroke-linejoin: round; stroke-width: 7px;"/>
            <polygon points="91.58 215.26 68.25 221.95 58.53 188.01 87.63 193.92 91.58 215.26" style="fill: none; stroke: #b25d42; stroke-linecap: round; stroke-linejoin: round; stroke-width: 7px;"/>
          </g>
          <polygon points="91.77 191.2 69.95 205.49 58.53 188.05 90.4 167.18 91.77 191.2" style="fill: #fd8d65;"/>
          <polygon points="91.58 215.26 68.25 221.95 58.53 188.01 87.63 193.92 91.58 215.26" style="fill: #fd8d65;"/>
        </g>
      </g>
      <g id="uuid-46d0e3d4-630a-4d68-9bde-74d707695c4f" data-name="&amp;lt;放射狀重複&amp;gt;">
        <g>
          <g>
            <polygon points="126.52 205.1 100.99 199.77 105.24 179.37 142.54 187.15 126.52 205.1" style="fill: none; stroke: #b25d42; stroke-linecap: round; stroke-linejoin: round; stroke-width: 7px;"/>
            <polygon points="109.37 221.98 88.15 210.21 105.27 179.34 121.67 204.09 109.37 221.98" style="fill: none; stroke: #b25d42; stroke-linecap: round; stroke-linejoin: round; stroke-width: 7px;"/>
          </g>
          <polygon points="126.52 205.1 100.99 199.77 105.24 179.37 142.54 187.15 126.52 205.1" style="fill: #fd8d65;"/>
          <polygon points="109.37 221.98 88.15 210.21 105.27 179.34 121.67 204.09 109.37 221.98" style="fill: #fd8d65;"/>
        </g>
      </g>
      <g id="uuid-4f179b25-814e-449f-b2ac-6f7b8522c9b6" data-name="&amp;lt;放射狀重複&amp;gt;">
        <g>
          <g>
            <polygon points="141.27 239.5 126.98 217.68 144.42 206.26 165.28 238.13 141.27 239.5" style="fill: none; stroke: #b25d42; stroke-linecap: round; stroke-linejoin: round; stroke-width: 7px;"/>
            <polygon points="117.21 239.31 110.52 215.98 144.46 206.26 138.55 235.36 117.21 239.31" style="fill: none; stroke: #b25d42; stroke-linecap: round; stroke-linejoin: round; stroke-width: 7px;"/>
          </g>
          <polygon points="141.27 239.5 126.98 217.68 144.42 206.26 165.28 238.13 141.27 239.5" style="fill: #fd8d65;"/>
          <polygon points="117.21 239.31 110.52 215.98 144.46 206.26 138.55 235.36 117.21 239.31" style="fill: #fd8d65;"/>
        </g>
      </g>
      <g id="uuid-50818530-ccbb-4329-a9dc-b43e2b9cc54f" data-name="&amp;lt;放射狀重複&amp;gt;">
        <g>
          <g>
            <polygon points="127.37 274.25 132.69 248.72 153.1 252.98 145.32 290.27 127.37 274.25" style="fill: none; stroke: #b25d42; stroke-linecap: round; stroke-linejoin: round; stroke-width: 7px;"/>
            <polygon points="110.49 257.1 122.26 235.89 153.13 253.01 128.38 269.4 110.49 257.1" style="fill: none; stroke: #b25d42; stroke-linecap: round; stroke-linejoin: round; stroke-width: 7px;"/>
          </g>
          <polygon points="127.37 274.25 132.69 248.72 153.1 252.98 145.32 290.27 127.37 274.25" style="fill: #fd8d65;"/>
          <polygon points="110.49 257.1 122.26 235.89 153.13 253.01 128.38 269.4 110.49 257.1" style="fill: #fd8d65;"/>
        </g>
      </g>
      <g id="uuid-fe862dea-8b0c-4c3e-b242-cbd8524dfcf2" data-name="&amp;lt;放射狀重複&amp;gt;">
        <g>
          <g>
            <polygon points="92.97 289 114.79 274.71 126.21 292.15 94.34 313.02 92.97 289" style="fill: none; stroke: #b25d42; stroke-linecap: round; stroke-linejoin: round; stroke-width: 7px;"/>
            <polygon points="93.16 264.94 116.48 258.26 126.21 292.19 97.11 286.28 93.16 264.94" style="fill: none; stroke: #b25d42; stroke-linecap: round; stroke-linejoin: round; stroke-width: 7px;"/>
          </g>
          <polygon points="92.97 289 114.79 274.71 126.21 292.15 94.34 313.02 92.97 289" style="fill: #fd8d65;"/>
          <polygon points="93.16 264.94 116.48 258.26 126.21 292.19 97.11 286.28 93.16 264.94" style="fill: #fd8d65;"/>
        </g>
      </g>
      <g id="uuid-b0b9039e-bd53-42c3-9920-4f83b372756b" data-name="&amp;lt;放射狀重複&amp;gt;">
        <g>
          <g>
            <polygon points="58.21 275.1 83.75 280.43 79.49 300.83 42.2 293.05 58.21 275.1" style="fill: none; stroke: #b25d42; stroke-linecap: round; stroke-linejoin: round; stroke-width: 7px;"/>
            <polygon points="75.36 258.22 96.58 269.99 79.46 300.86 63.06 276.11 75.36 258.22" style="fill: none; stroke: #b25d42; stroke-linecap: round; stroke-linejoin: round; stroke-width: 7px;"/>
          </g>
          <polygon points="58.21 275.1 83.75 280.43 79.49 300.83 42.2 293.05 58.21 275.1" style="fill: #fd8d65;"/>
          <polygon points="75.36 258.22 96.58 269.99 79.46 300.86 63.06 276.11 75.36 258.22" style="fill: #fd8d65;"/>
        </g>
      </g>
      <g id="uuid-94c7d7d1-a52f-4d29-8488-bee4cb959b29" data-name="&amp;lt;放射狀重複&amp;gt;">
        <g>
          <g>
            <polygon points="43.47 240.7 57.76 262.52 40.32 273.94 19.45 242.07 43.47 240.7" style="fill: none; stroke: #b25d42; stroke-linecap: round; stroke-linejoin: round; stroke-width: 7px;"/>
            <polygon points="67.53 240.89 74.21 264.22 40.28 273.94 46.18 244.84 67.53 240.89" style="fill: none; stroke: #b25d42; stroke-linecap: round; stroke-linejoin: round; stroke-width: 7px;"/>
          </g>
          <polygon points="43.47 240.7 57.76 262.52 40.32 273.94 19.45 242.07 43.47 240.7" style="fill: #fd8d65;"/>
          <polygon points="67.53 240.89 74.21 264.22 40.28 273.94 46.18 244.84 67.53 240.89" style="fill: #fd8d65;"/>
        </g>
      </g>
      <g id="uuid-69227b78-c8a8-4d04-9913-6a4fbc930e5a" data-name="&amp;lt;放射狀重複&amp;gt;">
        <g>
          <g>
            <polygon points="57.37 205.95 52.04 231.48 31.64 227.22 39.42 189.93 57.37 205.95" style="fill: none; stroke: #b25d42; stroke-linecap: round; stroke-linejoin: round; stroke-width: 7px;"/>
            <polygon points="74.25 223.1 62.48 244.31 31.61 227.2 56.36 210.8 74.25 223.1" style="fill: none; stroke: #b25d42; stroke-linecap: round; stroke-linejoin: round; stroke-width: 7px;"/>
          </g>
          <polygon points="57.37 205.95 52.04 231.48 31.64 227.22 39.42 189.93 57.37 205.95" style="fill: #fd8d65;"/>
          <polygon points="74.25 223.1 62.48 244.31 31.61 227.2 56.36 210.8 74.25 223.1" style="fill: #fd8d65;"/>
        </g>
      </g>
    </g>
    <circle cx="92.37" cy="240.1" r="27.14" style="fill: #fc865b;"/>
    <path d="M92.41,269.52c-11.41,0-22.28-6.67-27.07-17.8h0c-6.41-14.9.5-32.24,15.41-38.65,14.9-6.41,32.24.5,38.65,15.41,6.41,14.9-.5,32.24-15.41,38.65-3.78,1.62-7.71,2.39-11.58,2.39ZM69.53,249.92c5.42,12.6,20.07,18.43,32.66,13.02,12.59-5.41,18.43-20.07,13.02-32.66-5.42-12.59-20.07-18.43-32.66-13.02-12.59,5.41-18.43,20.07-13.02,32.66h0Z" style="fill: #b25d42;"/>
    <path d="M92.4,261.12c-8.15,0-15.92-4.77-19.34-12.72-2.22-5.16-2.29-10.87-.21-16.09,2.08-5.22,6.06-9.31,11.22-11.53,10.65-4.58,23.04.36,27.61,11.01,4.58,10.65-.36,23.04-11.01,27.62-2.7,1.16-5.51,1.71-8.27,1.71ZM92.34,222.33c-2.34,0-4.71.46-6.99,1.44-9,3.87-13.17,14.34-9.3,23.34,3.87,9,14.34,13.17,23.34,9.3,9-3.87,13.17-14.34,9.3-23.34-2.89-6.72-9.46-10.75-16.35-10.75Z" style="fill: #b25d42;"/>
  </g>
  <circle cx="625.03" cy="112.81" r="27.02" style="fill: none; stroke: #b25d42; stroke-miterlimit: 10; stroke-width: 6px;"/>
</svg>